<?xml version="1.0" standalone="no"?>
<!DOCTYPE svg PUBLIC "-//W3C//DTD SVG 1.1//EN" "http://www.w3.org/Graphics/SVG/1.1/DTD/svg11.dtd" >
<svg xmlns="http://www.w3.org/2000/svg">
<metadata>
Created by FontPrep 20130207 at Tue Aug  2 14:56:44 2016
 By Tina Muller
Copyright (c) 2016 by Set Sail Studios. All rights reserved.
</metadata>
<defs>
<font id="806aa21c84038d3a0bc7d084a977a78f" horiz-adv-x='1024' >
  <font-face 
    font-family="ViolettaScript"
    font-weight="400"
    font-stretch="normal"
    units-per-em="2048"
    panose-1="2 0 0 0 0 0 0 0 0 0"
    ascent="1638"
    descent="-410"
    x-height="724"
    cap-height="2182"
    bbox="-2787.65 -1834.27 3372.84 2532.57"
    underline-thickness="102"
    underline-position="-102"
    unicode-range="U+000D-2212"
  />
<missing-glyph horiz-adv-x="641" 
 />
    <glyph glyph-name=".notdef" horiz-adv-x="641" 
 />
    <glyph glyph-name=".null" horiz-adv-x="0" 
 />
    <glyph glyph-name="nonmarkingreturn" horiz-adv-x="681" 
 />
    <glyph glyph-name="NULL" horiz-adv-x="0" 
 />
    <glyph glyph-name="NULL" horiz-adv-x="0" 
 />
    <glyph glyph-name="CR" unicode="&#xd;" horiz-adv-x="641" 
 />
    <glyph glyph-name="space" unicode=" " horiz-adv-x="641" 
 />
    <glyph glyph-name="exclam" unicode="!" horiz-adv-x="493" 
d="M252 201q6 -10 6 -84q-6 -31 -37 -33q-45 -8 -57 25q-10 23 -2 61t41 46t49 -15zM174 668q-8 48 -8 108t5 129q5 68 17 245t20 266q9 90 21 238t19 222q29 299 16 446q-2 20 21 28t46 0q23 -10 25 -30q12 -150 -20 -500t-49 -596q-17 -245 -21 -286q-22 -227 17 -332
q7 -20 -13 -32t-46 -8q-26 5 -34 30q-8 24 -16 72z" />
    <glyph glyph-name="quotedbl" unicode="&#x22;" horiz-adv-x="800" 
d="M633 1776q17 -3 10 -95q-8 -92 -2 -122q6 -29 -35 -35q-47 -6 -57 32q-11 74 -5 132q5 59 10 71t13 19q35 23 66 -2zM403 1737q2 20 27 28q24 8 46 -1t20 -27q-20 -109 -9 -203q2 -20 -20 -29q-23 -8 -47 0t-25 29q-12 97 8 203z" />
    <glyph glyph-name="numbersign" unicode="#" horiz-adv-x="1746" 
d="M1026 638q4 28 10 76t41 257q-185 -32 -366 -49q-5 -42 -21 -138t-24 -152t-15 -87q111 11 369 51zM1143 1518q0 20 22 28q23 8 47 -1t23 -29q0 -141 -45 -420l-6 -43q289 34 461 -27q14 -6 19 -19t-5 -26q-23 -29 -62 -10q-134 50 -426 12q-13 -99 -31 -207t-21 -131
t-5 -35q297 35 467 -26q13 -4 19 -18t-3 -27q-23 -27 -63 -11q-106 39 -303 27q-80 -8 -127 -14q-15 -91 -29 -194t-31 -216t-13 -168q3 -55 9 -83t-14 -42q-20 -12 -44 -6t-29 32q-11 57 -11 142t68 522q-35 -3 -162 -22q-128 -18 -205 -27q-31 -205 -42 -286t-19 -133
q-36 -217 -11 -349q4 -23 -16 -34t-44 -6t-28 26q-30 141 22 467q5 32 20 143t24 166q-246 -10 -426 51q-15 4 -21 18t10 32t58 6q166 -57 389 -43q8 61 18 123t39 255q-254 -10 -430 52q-14 4 -20 18t10 32t57 5q166 -57 394 -43q4 20 10 63t10 66q51 307 51 481
q0 33 46 33t47 -33q0 -152 -60 -542q-6 -39 -10 -60q52 5 369 51l8 60q45 279 45 420z" />
    <glyph glyph-name="dollar" unicode="$" horiz-adv-x="1349" 
d="M892 2003q-114 -180 -42 -514q2 2 7 6q61 49 155 160q212 251 155 411q-23 59 -67 68q-7 -59 -15 -104q-6 -33 -50 -30t-42 30q4 29 13 81q-68 -35 -114 -108zM870 1403q51 -199 170 -504t155 -440t51 -269t3 -210q-35 -201 -186 -350q-152 -148 -350 -162
q-8 -61 -21 -185q-2 -20 -26 -28t-46 1t-20 29q12 115 21 183q-160 16 -289 115q-128 99 -182 245t-39 304q14 157 91 294t208 220t290 87q16 0 32 -9t16 -26q-2 -31 -48 -30h-6q-152 -6 -268 -100t-171 -230q-54 -135 -52 -291t64 -266q63 -111 157 -173t205 -75
q8 92 24 186q2 21 27 29q24 8 46 -1t19 -30q-16 -92 -24 -184q86 10 162 55q178 104 243 284t7 466q-39 182 -167 508t-167 475q0 2 -2 5t-2 5q-37 -41 -54 -63q-68 -96 -55 -166q4 -23 -16 -34t-45 -6t-27 23q-33 147 174 336q-33 139 -42 250t25 237t126 208q59 53 135 73
q13 79 18 146q2 20 27 28t47 -1t16 -38q-5 -29 -14 -124q68 -6 113 -60t46 -131q2 -126 -87 -265q-88 -140 -293 -325q-6 -4 -19 -16z" />
    <glyph glyph-name="percent" unicode="%" horiz-adv-x="1705" 
d="M1593 2095q90 -236 -51 -516q-106 -219 -399 -555q-51 -59 -159 -180q-334 -374 -513 -606q-344 -445 -231 -695q12 -29 -27 -37q-47 -8 -61 23q-100 221 122 575q168 266 622 761q287 316 439 534q274 399 170 682q-10 29 29 37q45 8 59 -23zM1343 524q-8 0 -12 -2
q-84 -32 -139 -140t-37 -200q25 -129 119 -80q72 39 119 134q18 37 23 89t-7 83q-17 35 -47 39q-61 8 -60 35q1 15 16 25q16 9 30 7q118 -12 148 -89t-3 -173q-49 -145 -158 -203q-59 -35 -133 -21t-112 74q-72 115 24 301q98 184 229 187q15 0 31 -9t17 -24q-2 -33 -48 -33
zM616 1491q0 27 48 33q74 2 122 -40t45 -114q-5 -134 -107 -242t-200 -79q-59 16 -95 69t-32 115q10 154 111 289q110 141 242 61q32 -25 -4 -45t-62 0q-27 27 -86 -37q-57 -68 -92 -176q-45 -158 37 -211q18 -18 52 6q118 82 142 244q6 47 -11 70t-42 23q-68 3 -68 34z" />
    <glyph glyph-name="ampersand" unicode="&#x26;" horiz-adv-x="2461" 
d="M1120 -465q211 92 422 361q59 78 131 188q-31 209 -108 356t-245 331t-218 253q-51 69 -107 162q-20 -25 -93 -109q-236 -272 -351 -443q-304 -455 -177 -813q42 -120 132 -200q123 -111 295 -133t319 47zM1001 1370q1 -6 7 -16t8 -15l67 86q106 137 148 240
q25 72 22 127q-5 125 -71 177t-142 -23q-76 -70 -100 -174q-35 -169 61 -402zM901 -1208h-2l2 -2v2zM901 -1208h6q166 8 364 170t290 338q150 291 127 653q-363 -522 -795 -533q-203 -4 -370 96t-236 285q-123 324 92 709q109 202 276 403t226 269t71 82q-39 80 -59 143
q-134 389 82 587q86 78 185 60q98 -18 148 -114t36 -199q-14 -102 -88 -217t-201 -269q75 -135 139 -215t178 -205q114 -127 184 -223q134 -180 191 -413q17 27 115 195t148 246t101 132q63 72 135 84t142 -51q10 -11 3 -25t-19 -20q-39 -13 -72 20q-20 13 -38 6
q-20 -8 -32 -12q-41 -13 -115 -129q-22 -35 -59 -91q-37 -58 -135 -226t-152 -252q37 -252 -16 -500q-68 -319 -287 -549q-178 -188 -391 -268t-264 16q-14 29 27 35q43 10 61 -16z" />
    <glyph glyph-name="quotesingle" unicode="'" horiz-adv-x="704" 
d="M371 1683q16 -72 -9 -135q-12 -31 -57 -20q-43 8 -31 39q16 55 10 89t13 45q20 11 45 5t29 -23z" />
    <glyph glyph-name="parenleft" unicode="(" horiz-adv-x="829" 
d="M242 526q0 -410 82 -729q51 -199 108 -303q59 -119 117 -119h6q6 0 8 2q43 3 55 -25t-32 -38q-131 -25 -224 131q-117 199 -182 600q-26 160 -30 420t28 526q69 546 255 906q66 143 141 220q74 76 149 76q41 1 80 -24q14 -9 13 -23t-13 -22q-33 -23 -66 0l-10 4
q-88 0 -211 -260q-55 -111 -106 -254q-168 -504 -168 -1088z" />
    <glyph glyph-name="parenright" unicode=")" horiz-adv-x="823" 
d="M670 1489q84 -545 -21 -1131q-68 -393 -203 -696q-77 -185 -144 -254t-91 -81q-25 -13 -64 -27t-100 8q-14 4 -20 18t6 28t53 10q79 -6 137 79q112 155 229 481t154 841t-69 929q-62 222 -128 338q-11 20 -39 47t-59 28q-35 -16 -56 12t11 44q60 27 118 -3t97 -89
q63 -96 123 -285q39 -133 66 -297z" />
    <glyph glyph-name="asterisk" unicode="*" horiz-adv-x="901" 
d="M715 1556q10 -12 4 -24t-21 -19q-36 -16 -68 17t-73 59q0 -79 -1 -109t-25 -38q-25 -8 -47 1t-20 39t1 107q-57 -45 -79 -73t-64 -9q-33 16 -15 43q35 43 129 113q-84 47 -131 94q-22 27 30 47q26 10 49 -13t77 -60q0 95 1 127t24 40q24 8 46 -1t23 -29q-2 -41 -2 -123
q49 37 77 63t54 17q51 -20 24 -51q-28 -31 -139 -109q109 -70 146 -109z" />
    <glyph glyph-name="plus" unicode="+" horiz-adv-x="1003" 
d="M819 635q0 -27 -47 -33q-135 0 -203 2q-14 -129 -16 -235q0 -21 -23 -29t-43 1t-20 30q2 106 16 235q-155 4 -201 4q-79 0 -75 33q0 31 43 32t237 -5q12 123 19 245q0 20 22 30q23 9 43 0t21 -30q-6 -125 -19 -247q101 -2 201 0q45 0 45 -33z" />
    <glyph glyph-name="comma" unicode="," horiz-adv-x="428" 
d="M309 162q33 -92 -65 -174q-27 -20 -62 0t-4 47q63 51 41 110q-12 31 33 39t57 -22z" />
    <glyph glyph-name="hyphen" unicode="-" horiz-adv-x="1009" 
d="M739 680q47 0 47 -33q0 -27 -47 -33q-199 0 -397 -6q-16 0 -31 9q-14 9 -14 26q0 31 47 31q198 6 395 6z" />
    <glyph glyph-name="period" unicode="." horiz-adv-x="397" 
d="M332 139q2 -31 -39 -41q-20 -8 -45 -2t-29 25q-4 3 -6 21q-3 18 17 38t53 8q47 -12 49 -49z" />
    <glyph glyph-name="slash" unicode="/" horiz-adv-x="1615" 
d="M-98 -725q12 -6 18 -8h2q90 -26 243 182q168 229 357 676l143 339q60 146 77 193q62 167 204 492q270 620 451 807q122 123 243 98q14 -4 26 -14t5 -25q-14 -36 -63 -20q-86 0 -185 -133q-185 -235 -445 -868q-127 -299 -220 -535q-158 -375 -254 -585t-199 -372
q-260 -414 -481 -264q-29 24 4 46t63 -3q2 -2 9 -6h2z" />
    <glyph glyph-name="zero" unicode="0" horiz-adv-x="1480" 
d="M774 1911q0 -33 -44 -33t-77 -34q-32 -34 -55 -71q-24 -37 -66 -98t-94 -186q-92 -203 -151 -487q-156 -751 -29 -1078q51 -129 137 -186q100 -70 230 -51q227 31 389 307q139 233 217 569q78 335 90 531t7 350t-48 260q-43 104 -116 152t-158 18q-150 -59 -281 -285
q-16 -29 -66 -18q-33 12 -22 37q76 128 150 202q75 74 133 103q147 73 268 12q215 -94 233 -510q11 -211 -31 -521t-137 -583q-121 -356 -297 -528q-104 -102 -239 -144t-268 -1q-428 128 -320 983q35 283 107 557t176 456q59 111 136 211t181 99q45 0 45 -33z" />
    <glyph glyph-name="one" unicode="1" horiz-adv-x="942" 
d="M119 1574q-37 26 -35 53t26 37t46 0t22 -26q-2 -16 0 -16q105 -30 212 6q107 35 189 112q81 76 138 152t125 185q18 29 58 21t30 -40q-279 -868 -408 -1876q-47 -354 -45 -516q-1 -20 -23 -28t-46 1t-23 29q-2 115 35 434q106 897 340 1704q-135 -164 -285 -219
q-98 -39 -208 -39q-111 0 -148 26z" />
    <glyph glyph-name="two" unicode="2" horiz-adv-x="1716" 
d="M215 -295q208 -69 471 297q-128 70 -236 98t-176 11q-90 -21 -143 -117t-31 -177t115 -112zM1575 -383q2 0 6 4q27 23 61 3t5 -48q-57 -49 -159 -21q-177 49 -475 243q-198 129 -253 161q-23 -31 -68 -88q-133 -156 -260 -211q-76 -35 -169 -30q-93 4 -168 56t-89 147
t40 186q109 183 331 161q156 -16 348 -121q83 123 225 384t193 391q131 330 153 583q27 340 -133 461q-97 74 -241 69t-255 -127t-128 -239q-5 -48 6 -82l8 -8v-2h2l4 -4h4l4 -2h21q47 4 57 -23q8 -31 -35 -41q-126 -11 -158 70q-35 84 49 241q117 218 326 271
q160 39 318 -29q231 -102 246 -413q12 -248 -105 -594q-45 -135 -104 -265l-111 -208q-199 -369 -270 -476q8 -2 20 -10q13 -8 235 -150t334 -191q112 -50 177 -52q8 0 8 4z" />
    <glyph glyph-name="three" unicode="3" horiz-adv-x="1521" 
d="M729 1161q43 -15 109 15t110 71l-2 2q-70 31 -134 39t-85 -20q-20 -28 -21 -61q-1 -34 23 -46zM745 719q-92 0 -178 -31q-184 -63 -301 -216t-127 -345q-14 -252 144 -371q80 -61 185 -83t204 1q188 41 345 191t248 335t88 397q-3 211 -99 369t-232 242q-76 -70 -134 -87
q-190 -55 -252 16q-26 29 -22 77q8 86 78 118q118 54 307 -29q68 80 107 170q88 207 30 365t-206 156q-148 -3 -244 -98q-95 -95 -10 -145q39 -18 12 -44t-59 -9q-100 51 -82 137q12 72 104 133q98 68 211 86t221 -31q74 -39 117 -115t49 -167q12 -193 -102 -375
q-33 -55 -74 -102q230 -145 322 -398q72 -198 44 -400t-140 -385q-111 -183 -285 -319t-367 -157q-244 -29 -418 98q-113 84 -156 220q-43 135 -19 275t98 259q92 149 254 237t342 90q16 0 30 -9t15 -23q0 -33 -48 -33z" />
    <glyph glyph-name="four" unicode="4" horiz-adv-x="1560" 
d="M1196 735q0 -12 -4 -20q126 0 176 40q31 23 41 66q4 66 -37 88q-57 33 -105 -27t-71 -147zM1242 966q72 46 144 16t101 -90t0 -124q-69 -119 -309 -119q-18 -90 -95 -508q-70 -403 -88 -569q-2 -20 -25 -29q-24 -8 -46 1t-21 30q23 224 93 605q71 382 89 470
q-174 11 -311 28t-225 25q-87 8 -183 -2t-233 -63q-39 -17 -59 9t4 42q139 84 277 242t243 344t156 368q51 197 20 338q-4 23 16 34t46 6q24 -5 26 -18t4 -17q59 -319 -190 -750q-180 -309 -379 -479q17 2 81 10t214 -3t282 -32q123 -14 224 -16q16 82 32 119q39 86 112 132
z" />
    <glyph glyph-name="five" unicode="5" horiz-adv-x="1519" 
d="M726 1417q42 0 153 -10q237 -50 374 -236q113 -153 156 -357q85 -403 -88 -795q-82 -183 -223 -315q-142 -132 -322 -173t-366 33t-269 196q-82 122 -81 270q1 146 66 289t171 259q107 116 243 186q136 68 277 55q45 -4 45 -35t-47 -30q-170 14 -344 -121
q-119 -92 -202 -225q-83 -132 -109 -278t24 -269q59 -135 195 -207q186 -94 355 -64t301 162t211 318q160 378 58 794q-50 201 -182 338t-323 150q-53 4 -219 -15q-198 -16 -220 -16t-39 12t-10 29q31 59 110 240t128 252q49 70 99 81t129 1q79 -9 89 -9q307 -18 428 12
q41 10 52 48q4 18 28 22t45 -8q20 -12 15 -33q-27 -92 -213 -108q-101 -10 -289 1t-252 11h-4q-2 0 -4 -2h-2l-8 -6q-51 -68 -119 -205q-85 -196 -121 -270q42 2 152 15t152 13z" />
    <glyph glyph-name="six" unicode="6" horiz-adv-x="1505" 
d="M727 1626v-2q-8 -8 -23 -33q-16 -25 -69 -109t-137 -249q-221 -434 -285 -797q-80 -479 119 -729q138 -170 292 -162t314 142q139 121 231 289t111 346q24 139 -25 308q-20 73 -75 128q-56 55 -144 68q-88 12 -188 -20t-174 -99q-139 -127 -197 -340q-5 -19 -29 -23
t-45 8q-20 12 -14 33q37 145 123 263t196 174q222 113 425 48q153 -55 210 -221q101 -325 -72 -667q-85 -168 -229 -308t-324 -182q-179 -43 -339 62q-160 109 -232 313q-111 311 21 776q102 371 328 768q168 303 307 451t241 170q147 33 218 -131q12 -31 -32 -37t-59 22
q-23 68 -66 80q-44 12 -91 -22q-92 -59 -185 -181t-97 -129q-3 -8 -5 -8z" />
    <glyph glyph-name="seven" unicode="7" horiz-adv-x="1390" 
d="M1450 2003q-3 1 -35 -13q-33 -14 -129 -106q55 10 123 45t55 74h-14zM213 -451q43 1 43 -31t-47 -32q-74 0 -93 64q-35 119 93 500q128 382 360 865q-207 29 -286 -53q-29 -29 -64 -10q-14 6 -20 18t4 25q49 49 121 71t131 20t143 -11q261 549 508 835l-109 -2
q-593 -13 -735 72q-62 35 -60 68q3 32 25 60t66 9q33 -16 14 -41q-4 -4 -6 -10q-14 -14 12 -35q175 -59 416 -59h215q113 0 223 6q61 61 95 92q82 74 156 94t113 -16q41 -35 25 -73q-59 -146 -333 -158q-20 -25 -29 -35q-248 -289 -504 -819q102 -16 154 -17q104 0 151 45
q25 25 51 15q51 -20 29 -50q-49 -49 -130 -64t-173 -7t-108 16h-2q-113 -238 -216 -479q-240 -597 -245 -776q-2 -76 8 -86v-4l4 -5v-2zM1464 2003l-2 2q0 -2 2 -2z" />
    <glyph glyph-name="eight" unicode="8" horiz-adv-x="1497" 
d="M1186 -152q135 196 122 434t-155 463q-96 158 -262 332q-135 -12 -299 -135q-230 -176 -360 -487t-62 -543q37 -127 125 -207q117 -94 283 -119t336 47q172 72 272 215zM999 1077q571 -606 335 -1136q-91 -207 -265 -307t-359 -114q-185 -13 -352 62q-130 59 -206 169
t-93 253q-29 264 129 565q106 205 278 365t368 199q-20 20 -62 59q-125 115 -182 190q-140 180 -110 332t118 242t200 129t222 23t188 -89q163 -153 49 -440q-70 -166 -225 -360q-20 -27 -63 -9q-33 16 -15 41q178 221 230 389t2 273q-29 79 -112 113t-179 18t-177 -82
t-125 -182t-5 -212q20 -52 40 -92q42 -83 222 -252q55 -52 84 -81q92 4 188 -31q14 -4 20 -17t-3 -26q-23 -23 -63 -9t-77 17z" />
    <glyph glyph-name="nine" unicode="9" horiz-adv-x="1447" 
d="M268 -401v-2l2 -3h2q4 0 11 7q53 39 160 202t244 467q299 665 394 1065q51 227 47 399t-98 246t-204 60q-214 -26 -371 -197q-113 -121 -157 -283t5 -323q53 -147 172 -172q95 -23 195 10t127 119q3 18 29 22t45 -8t14 -34q-25 -80 -106 -125t-175 -54q-147 -16 -254 47
q-94 59 -134 172t-28 238q16 182 118 336t263 237q220 117 425 55q110 -34 174 -140t54 -292q-11 -186 -93 -492t-385 -974q-38 -84 -118 -234t-157 -259q-88 -127 -158 -154q-45 -16 -85 1q-40 16 -52 54t27 48q45 8 59 -23q4 -12 6 -16h2z" />
    <glyph glyph-name="colon" unicode=":" horiz-adv-x="712" 
d="M455 387q43 -37 9 -74t-64 -19t-38 56q0 4 3 8q7 27 35 35t55 -6zM461 879q-20 -21 -49 -16t-35 24q-29 72 39 88q37 12 59 -14q29 -39 -14 -82z" />
    <glyph glyph-name="semicolon" unicode=";" horiz-adv-x="632" 
d="M362 375q4 0 9 4h-2q-4 -4 -7 -4zM354 330q-12 12 -14 29t13 25t43 5q28 -4 42 -31q39 -74 -47 -165q-23 -27 -61 -11q-14 6 -20 20t3 25q55 55 41 103zM467 929q0 -30 -29 -44q-18 -12 -45 -11t-41 19q-30 55 18 84t72 5t25 -53z" />
    <glyph glyph-name="less" unicode="&#x3c;" horiz-adv-x="1150" 
d="M215 625v8q0 20 31 29v2h6q36 14 122 72q216 146 365 294q91 88 115 128t64 32q16 -4 28 -15t4 -26q-92 -139 -334 -328q-184 -147 -262 -186q14 -8 56 -33q86 -59 194 -156q237 -214 352 -368q23 -29 -18 -43t-61 12q-106 143 -322 340q-106 98 -151 129t-117 62t-72 47
z" />
    <glyph glyph-name="equal" unicode="=" horiz-adv-x="1359" 
d="M342 603q0 32 47 32q150 -2 672 2q15 0 31 -9t14 -24q0 -31 -45 -31q-393 -6 -674 -2q-45 0 -45 32zM1120 860q0 -31 -47 -31t-305 -5t-395 -3q-47 0 -47 33q2 33 47 33q116 -2 700 8q15 0 31 -9t16 -26z" />
    <glyph glyph-name="greater" unicode="&#x3e;" horiz-adv-x="1009" 
d="M872 690q0 -18 -19 -26t-38 -5h-2q-4 0 -9 -3t-13 -7q-109 -61 -256 -194q-225 -211 -324 -342q-20 -27 -61 -12t-19 44q125 170 352 367q140 129 250 190q-38 19 -63 39q-70 45 -194 143t-215 187q-91 90 -120 137q-20 33 25 45q39 12 55 -12q35 -55 127 -147
q227 -211 490 -365h2q33 -8 32 -33v-6z" />
    <glyph glyph-name="question" unicode="?" horiz-adv-x="1173" 
d="M396 213q42 0 42 -33q0 -2 -12 -69q-6 -35 -47 -31q-14 0 -31 9q-16 9 -14 24q8 53 12 69q8 31 50 31zM688 2380q162 26 286 -73t122 -249q-3 -255 -308 -631q-86 -109 -194 -227q-186 -209 -218 -385t40 -252q45 -45 94 25q18 28 59 12t17 -53t-71 -59q-46 -22 -95 -9
q-92 25 -129 129q-49 152 20 314q70 162 197 303q287 319 392 513t104 324q0 154 -136 230q-100 57 -229 7t-242 -177q-135 -156 -160 -347q-13 -101 39 -186q8 -12 -5 -24t-27 -15q-39 -6 -56 25q-43 76 -44 167q-2 162 110 326q78 119 192 206q115 87 242 106z" />
    <glyph glyph-name="at" unicode="@" horiz-adv-x="1646" 
d="M798 570q18 46 28 94q11 47 20 69l-8 8q-31 47 -100 -33t-72 -184q-5 -59 22 -86q20 8 56 47t54 85zM1044 268q68 0 127 47t91 111q72 140 72 318t-103 319q-125 166 -327 184t-366 -118t-229 -341q-61 -170 -24 -380t176 -334q105 -92 243 -124t265 9q43 12 63 -14
q10 -11 3 -25t-21 -18q-240 -79 -477 35q-145 70 -234 196q-115 164 -123 382t84 394q96 199 278 314t399 85q216 -30 347 -186q117 -137 134 -333t-62 -365q-102 -209 -262 -225q-70 -9 -136 17t-102 83q-41 68 -49 141q-62 -73 -134 -68q-44 3 -67 34q-42 54 -30 162
t106 210q53 58 119 60t113 -66q10 -16 4 -24q18 -14 12 -33q-66 -258 4 -379q38 -68 106 -68z" />
    <glyph glyph-name="A" unicode="A" horiz-adv-x="1982" 
d="M1960 643q6 19 32 23t45 -8t11 -33q-182 -528 -360 -834q-92 -156 -162 -223q-102 -94 -187 -70q-133 37 -190 232q-47 154 -51 370q-6 27 0 121t5 121t9 121t12 120q2 25 14 119t13 121q-13 -26 -89 -244q-75 -217 -120 -329t-115 -232q-187 -337 -421 -358
q-156 -16 -277 82q-193 162 -172 561q14 332 135 674q115 340 354 588q166 172 326 219q205 59 385 -49q12 -9 11 -23t-13 -22q-29 -23 -63 0q-155 92 -309 27t-265 -190t-199 -267q-137 -229 -219 -578q-91 -423 -28 -678q66 -241 245 -276q158 -33 312 147
q128 150 228 409q46 114 164 443q118 330 177 537q24 225 64 288q18 31 57 23q13 -4 25 -12t10 -21q-23 -135 -66 -289l-6 -54q-4 -35 -8 -69t-15 -155t-34 -311q-80 -674 20 -940q29 -82 81 -132t117 5q119 102 302 503q117 260 215 543z" />
    <glyph glyph-name="B" unicode="B" horiz-adv-x="1888" 
d="M309 -467q2 0 2 -3q0 -14 22 -57q54 -106 183 -100q182 4 341 114q159 109 273 315q191 343 197 632q-223 -78 -418 -192q-311 -180 -473 -387q-72 -93 -104 -177t-23 -143v-2zM-35 532q41 350 49 1076q0 20 24 28t46 -1t22 -29q-4 -358 -12 -539q44 121 105 225
q98 178 202 303q319 385 652 334q158 -23 178 -149q18 -109 -74 -258q-123 -207 -319 -346q215 -39 352 -158q201 -178 225 -481q231 76 481 118q44 11 56 -21t-33 -42q-268 -49 -502 -125q2 -324 -194 -676q-117 -211 -267 -326q-158 -117 -356 -149q-238 -37 -332 100
q-68 94 -49 195q31 176 217 366q211 219 555 390q166 82 334 139q-6 182 -88 330q-89 152 -237 219t-259 57q-88 -51 -163 -78q-33 -10 -59 7t-3 38q72 68 180 92q27 16 80 54q164 123 266 273t99 257q-2 106 -133 115q-166 8 -328 -115q-246 -180 -436 -565
q-53 -108 -74 -180t-49 -232q-39 -172 -51 -205t-15 -50q-2 -17 -10 -70q-2 -21 -27 -29q-24 -8 -46 1t-20 25q9 54 13 80v2z" />
    <glyph glyph-name="C" unicode="C" horiz-adv-x="1503" 
d="M51 208q0 -272 58 -431q109 -298 323 -312q92 -6 214 65q121 72 276 257q301 354 573 864q14 27 59 19t29 -37q-256 -479 -536 -826q-96 -119 -168 -193t-192 -142q-120 -70 -241 -70q-188 -2 -308 148t-156 353q-36 201 -22 455t74 463t177 447q111 213 197 341
q86 127 216 255q221 214 408 143q74 -29 119 -92q80 -117 51 -297q-31 -164 -121 -302t-188 -161q-45 -8 -56 22t31 40h2l13 6h2q107 64 180 247q102 246 16 396q-37 66 -92 86q-141 51 -364 -203q-207 -229 -385 -627q-102 -231 -146 -437q-44 -205 -43 -477z" />
    <glyph glyph-name="D" unicode="D" horiz-adv-x="1718" 
d="M913 -176q154 279 217 655q-302 -105 -504 -255t-290 -316q-133 -254 -29 -365q72 -82 163 -80t181 64q151 98 262 297zM-6 436l-2 56q-9 246 37 723q20 216 28 329q0 20 24 28q25 8 47 0q22 -9 22 -30q-6 -82 -14 -175t-19 -206q-10 -113 -17 -176q109 304 279 515
q170 212 301 296q199 127 356 27q284 -180 236 -910q-16 -225 -33 -329q246 70 492 78q16 2 31 -8t16 -25q-2 -31 -47 -31q-215 -9 -502 -88q-43 -276 -127 -490q-195 -506 -520 -604q-102 -33 -212 1t-159 116q-88 145 29 377q166 328 649 547q125 57 254 96l18 147
q59 538 -21 810q-48 163 -120 230q-106 98 -223 38q-137 -63 -305 -273q-119 -143 -197 -295q-103 -211 -157 -402t-54 -319q2 -19 3 -47t-21 -36t-47 1q-24 9 -25 29z" />
    <glyph glyph-name="E" unicode="E" horiz-adv-x="1499" 
d="M503 999q3 0 5 2q-90 8 -150 23q-221 57 -307 184q-63 90 -50 202q23 201 187 380q121 127 277 195q186 88 321 53q88 -20 142 -91t53 -173q0 -102 -66 -203q-66 -102 -165 -172q-27 -20 -64 4q-27 20 0 43q156 106 200 287q22 90 -30 170q-82 129 -297 47
q-162 -63 -268 -170q-174 -170 -195 -359q-10 -102 32 -177t161 -126q150 -66 463 -53q24 0 36 -13t7 -30q-5 -16 -23 -20t-61 -10q-43 -7 -137 -41q-95 -34 -199 -86t-203 -144q-132 -117 -238 -271t-137 -394q-31 -239 25 -380t158 -198q190 -106 429 1q517 231 1064 1168
q18 29 65 19q41 -10 25 -37q-319 -545 -625 -854q-473 -481 -866 -402q-156 33 -254 144q-127 139 -122 399t99 463q68 139 215 295q127 139 285 227q90 53 205 96q0 2 3 2z" />
    <glyph glyph-name="F" unicode="F" horiz-adv-x="1527" 
d="M668 -109q53 236 96 582q-131 -29 -197 -47q-410 -117 -610 -352q-123 -144 -169 -282t-52 -277q-18 -389 194 -490q141 -66 285 8q123 61 221 228q138 229 232 630zM1292 2091q-242 -180 -320 -730q-18 -133 -27 -193t-13 -87q8 4 20 17q145 117 267 264
q127 160 195 311t78 251t-7 153q-31 94 -121 53q-39 -14 -72 -39zM608 899q0 13 16 23t31 8q66 -6 154 57q8 4 18 14q6 28 30 215q52 403 149 619q116 271 306 351q50 22 110 23t102 -36q90 -79 59 -271t-162 -402t-342 -398q-66 -57 -161 -129q-28 -200 -33 -254
q-6 -53 -19 -160q66 10 285 42t379 73q14 4 32 -2t25 -21q10 -29 -33 -39q-151 -40 -384 -74q-234 -34 -312 -49q-89 -731 -258 -1099q-186 -420 -471 -455q-190 -23 -306 71t-153 240q-74 283 27 559q59 167 183 305t286 228q246 137 606 203l43 362q-84 -45 -162 -37
q-45 4 -45 33z" />
    <glyph glyph-name="G" unicode="G" horiz-adv-x="1775" 
d="M1012 -872q47 156 69 386t52 670q-412 -248 -598 -516q-137 -197 -156 -368q-25 -238 86 -406q76 -106 160 -127q100 -20 196 51q119 92 191 310zM1169 816q0 13 5 54q-154 -282 -304 -462q-141 -178 -286 -261q-182 -100 -339 -50t-216 214q-100 287 61 727
q88 238 241 460t342 376t343 170q119 14 196 -43q94 -66 111 -184q25 -189 -166 -373t-348 -193q-17 -1 -31 9t-14 26q0 31 54 32t140 59t152 132q172 188 109 351q-27 72 -76 102t-107 20q-58 -12 -134 -45q-75 -33 -167 -113q-92 -81 -127 -118q-367 -379 -487 -877
q-45 -191 -32 -363t101 -257q51 -49 129 -59t144 18q141 55 287 221q221 254 417 664q12 20 47 21t43 -23q15 -59 9 -151t-8 -168t-5 -112q-2 -36 -7 -136t-9 -150q12 6 86 49q73 43 95 55q167 93 337 228q27 23 61 0t3 -48q-10 -8 -32 -24t-32 -25q-121 -90 -524 -325
q-36 -643 -76 -907q-14 -99 -61 -242t-123 -239t-188 -138q-112 -41 -220 0q-190 72 -254 319q-61 223 12 411t205 347q193 225 613 481q12 139 21 333t9 207z" />
    <glyph glyph-name="H" unicode="H" horiz-adv-x="1808" 
d="M1128 1952q-153 -355 -217 -991q319 243 494 420q174 178 278 364q129 219 121 395q-4 92 -39 177t-104 120q-131 66 -311 -133q-133 -152 -222 -352zM193 182q31 106 55 248q-39 -25 -113 -82q-174 -135 -221 -274q-33 -88 -14 -176q14 -72 63 -52q152 60 230 336z
M743 -2q-1 164 19 361q20 198 41 427q-2 -2 -10 -7t-81 -58t-169 -111t-134 -80q-38 -23 -57 -34l-24 -142q-43 -225 -109 -356q-57 -106 -133 -164q-102 -80 -184 -55q-55 16 -80 71q-43 95 0 234q43 140 207 276q88 76 235 168q45 319 51 566t-13 366t-42 119l-2 2
q-33 14 -22 37q14 33 57 20q61 -18 86 -103q70 -236 -8 -898l-6 -49q193 115 299 192l147 105q49 537 130 806t179 437q220 373 454 389q89 6 175 -51q137 -106 145 -306t-108 -413q-109 -190 -270 -361q-223 -240 -615 -528l-18 -196q-3 -64 -17 -196t-26 -280t4 -315
q16 -215 78 -313q63 -107 140 -54q77 52 152 146q176 218 418 646q145 257 183 363q12 31 59 21q39 -12 31 -39q-49 -123 -245 -467t-390 -588q-62 -77 -108 -107q-100 -64 -150 -60q-50 3 -88 26q-100 55 -140 222t-41 331z" />
    <glyph glyph-name="I" unicode="I" horiz-adv-x="1554" 
d="M1141 1153q20 159 19 359t-47 365t-142 222q-57 35 -128 25t-120 -58q-102 -92 -168 -299q-194 -651 39 -1159q53 -115 125 -211q11 11 33 21q137 92 313 151q51 281 76 584zM973 143q49 180 78 349q-158 -66 -285 -156q94 -111 207 -193zM698 -496q156 221 256 564
q-145 96 -252 219q-113 -93 -211 -233t-143 -310q-46 -170 -26 -266t59 -130t98 -24q102 18 219 180zM1567 666q16 0 30 -10t15 -25q0 -25 -47 -31q-217 -14 -385 -63q-4 -2 -31 -11q-36 -214 -96 -436q61 -35 108 -56t19 -47q-28 -25 -70 -7q-41 18 -78 40
q-72 -238 -170 -411q-244 -444 -502 -332q-219 96 -88 526q94 317 379 545q-111 145 -172 305q-208 529 -4 1159q72 207 180 299q63 53 149 71t165 -5q135 -45 205 -203q53 -126 67 -292q34 -403 -78 -1082q187 54 404 66z" />
    <glyph glyph-name="J" unicode="J" horiz-adv-x="935" 
d="M502 166q12 111 16 174q-102 -54 -266 -154t-299 -232t-199 -322t-8 -314q56 -123 180 -145q53 -12 122 0t116 41q125 72 186 223q109 266 152 729zM2134 1851l-33 9q-94 20 -273 20q-312 0 -1130 -186l-49 -13q-8 -156 -12 -570t-19 -634q180 98 304 174q35 20 56 6
t21 -28t-12 -23q-123 -78 -373 -213q-12 -193 -36 -387q-35 -236 -79 -409t-117 -287t-219 -175q-147 -59 -291 -17t-207 169t-9 328q88 326 485 588q133 86 383 223q20 334 24 721q3 387 7 512q-154 -37 -291 -67t-360 -17q-350 18 -340 180q4 35 20 69t62 25
q39 -12 28 -39q-37 -79 7 -116q57 -42 205 -54q220 -18 569 64q775 184 1135 222t536 -5q96 -23 160 -78t57 -143q0 -20 -24 -28q-25 -8 -47 0q-22 9 -20 36q3 60 -28 88q-12 14 -37 31l-6 2l-4 4q-33 14 -41 16z" />
    <glyph glyph-name="K" unicode="K" horiz-adv-x="1327" 
d="M479 551q-12 -94 69 -90t154 47q4 14 9 43q-74 74 -159 55q-44 -10 -73 -55zM1092 2003q-56 -115 -105 -287t-94 -534q160 119 285 258q168 184 245 438q49 168 23 250q-14 55 -62 82q-148 84 -292 -207zM2046 -453q8 -12 2 -25t-20 -18l-31 -12q-153 -42 -286 -4
q-133 39 -248 132q-115 94 -198 194t-132 167q-49 68 -163 234t-182 248q-149 -723 -538 -998q-207 -141 -344 -65q-90 47 -134 147t-36 209q14 199 170 389q137 172 313 269q39 18 66 -2q12 -8 13 -22t-13 -23q-203 -106 -342 -312q-166 -248 -99 -448q39 -121 115 -156
q57 -27 137 10q147 66 293 252q201 256 295 707q-144 -64 -248 -3q-85 50 -39 155q23 50 66 75q145 78 262 -12q23 121 55 383q-164 -92 -301 -117q-47 -4 -57 25q-6 14 5 25t28 14q145 23 338 145q16 135 26 203q57 416 158 647q80 197 182 276q61 50 143 54t150 -35
q174 -104 33 -477q-98 -250 -309 -457q-141 -139 -295 -242q-4 -20 -16 -130t-58 -382l135 92q418 289 637 689q16 29 61 20q39 -12 27 -39q-90 -166 -209 -305q-244 -293 -604 -514q74 -86 172 -231q98 -144 131 -189q217 -311 383 -436q116 -88 222 -112t220 18
q41 16 64 -13z" />
    <glyph glyph-name="L" unicode="L" horiz-adv-x="1452" 
d="M553 -362q108 197 207 534q-16 4 -27 6q-207 60 -388 -64t-258 -339t28 -338q78 -82 168 -68q90 13 152 93t118 176zM1128 1341q199 41 366 210t175 331q4 106 -54 146t-138 -5q-141 -76 -232 -288q-58 -134 -117 -394zM1020 1262l2 6q-139 4 -252 75q-12 9 -11 23t13 23
q29 23 66 0q86 -57 196 -58q41 193 86 326q143 409 411 453q67 11 126 -23q55 -29 81 -86q45 -99 -1 -238q-63 -167 -239 -313t-384 -176q-167 -770 -248 -1063q108 -33 440 -173q331 -140 468 -190q282 -95 384 -74q40 8 56 15t33 23q27 20 61 0t4 -48q-144 -124 -548 18
q-168 58 -476 189t-440 174q-90 -304 -188 -487q-79 -163 -150 -236q-70 -72 -108 -90t-87 -32t-126 7t-133 75t-76 126q-51 176 69 396q80 152 210 247q218 160 519 87q36 129 136 563t103 446t3 15z" />
    <glyph glyph-name="M" unicode="M" horiz-adv-x="2760" 
d="M602 -590q0 2 4 5t15 16q36 45 55 141q51 201 51 627q0 83 -3 247t-1 248q-6 -18 -18 -56t-19 -56q-154 -491 -174 -861q-16 -250 41 -311l8 -8h2l6 -2q0 -2 4 -2h5q2 0 13 5t11 7zM819 1178q230 460 430 454q108 0 151 -115q31 -87 40 -198q14 -207 -17 -543
q186 597 383 890q35 52 101 112t135 71q102 20 166 -45t90 -186q44 -214 24 -530t-52 -563t-36 -272q-4 -26 -11 -105t1 -154q8 -74 18 -92t9 -19l2 -2q0 -4 2 -4l12 -12l2 2h2q2 0 4 2h2q30 15 72 57q168 188 393 723q14 31 62 19q37 -12 28 -39q-240 -565 -413 -746
q-59 -59 -107 -73q-98 -31 -140 41t-43 181q-1 110 47 488q114 902 7 1168q-22 59 -63 90h-2l-2 2h-2l-5 4h-2q-2 0 -4 2h-4q-4 2 -10 2h-14q-5 0 -41 -12q0 -8 -15 -9q-7 -5 -51 -41t-118 -155t-144 -281q-125 -285 -215 -602t-96 -463q-2 -33 -45 -31t-48 38q-11 83 0 197
q50 531 50 768q0 267 -72 357h-2l-6 7q-2 0 -2 1t-2 1l-6 4h-7l-2 2h-10q-2 -2 -5 -2t-5 -2q-131 -44 -277 -312q-74 -139 -137 -297q-4 -270 -1 -657q5 -647 -83 -838q-47 -113 -133 -125q-55 -8 -98 19q-105 66 -84 360q8 153 48 383t119 474t140 397q9 440 -35 626
t-100 227q-4 3 -8 7l-13 4l-14 2h-12l-2 2q-42 -5 -76 -39q-74 -72 -115 -212t-37 -246t23 -138v-2l4 -4q16 -4 26 -15t5 -26q-10 -31 -58 -20q-84 8 -90 165q-8 113 31 269t111 241q96 111 219 86q94 -16 151 -137q45 -105 61 -251t21 -330z" />
    <glyph glyph-name="N" unicode="N" horiz-adv-x="1982" 
d="M1265 1905q-3 0 -3 2t-4 2t-5 2h-4q-4 2 -10 2h-2q-16 2 -41 -4q-59 -23 -127 -97q-67 -76 -129 -179t-184 -433t-194 -630q-72 -298 -92 -386t-40 -329q0 -15 -17 -25t-38 -6q-37 4 -37 33q8 141 65 649q43 350 65 634q35 461 -71 691q-35 76 -75 108l-3 3l-6 4
q-2 0 -10 4h-2q-2 2 -6 2h-6q-14 0 -23 -8h-2q-11 0 -35 -27l-30 -31q-29 -37 -56 -84q-121 -221 -139 -475q-12 -201 55 -268q0 -2 10 -9t20 -8t18 -3q9 -3 21 -14t5 -26q-10 -27 -57 -22q-76 13 -115 73t-47 144q-18 164 45 387q83 289 219 395q86 62 173 28
q116 -46 178 -274q42 -155 42 -262v-140q0 -72 -14 -232t-16 -176l-13 -123q80 267 172 513t164 363q129 211 250 275q51 32 117 30t115 -39q66 -45 108 -167q101 -310 29 -1131q-55 -607 -23 -877q18 -138 62 -182h4q12 0 18 2h4l19 10l18 13q112 97 244 522q33 113 63 233
t40 165q12 44 17 74t9 42q6 33 53 31q41 -6 39 -33q-2 -2 -2 -4q-114 -557 -246 -844q-76 -162 -136 -217t-105 -55l-13 -2l-28 -2q-37 4 -60 20q-74 47 -91 223q-25 264 13 803q33 373 37 500q12 393 -26 576t-105 251q-14 10 -17 12t-6 3z" />
    <glyph glyph-name="O" unicode="O" horiz-adv-x="1732" 
d="M694 -438q233 162 396 573q8 14 10 27q-403 -137 -697 0q-190 84 -323 278q-22 -184 -12 -384t71 -347q83 -190 235 -225t320 78zM-10 1014q0 -152 49 -299q8 29 35 121q137 428 354 649q132 132 275 149q83 10 151 -49q33 -27 -4 -46t-72 7t-89 19q-54 -6 -99 -43
q-98 -68 -199 -213q-215 -319 -291 -740q104 -207 281 -317q283 -176 694 -27q45 18 55 23q24 72 76 266q220 830 -133 1198q-137 142 -325 148t-366 -107t-286 -315t-106 -424zM1786 657q14 -6 20 -18t-4 -25q-270 -268 -590 -407q-174 -505 -481 -709q-155 -102 -343 -82
q-326 36 -400 521q-43 305 18 628q-66 131 -92 281q-41 225 26 444q67 218 219 374t350 225q199 69 395 11t316 -242t148 -400q28 -218 -4 -422t-74 -362t-49 -175q256 129 481 348q29 28 64 10z" />
    <glyph glyph-name="P" unicode="P" horiz-adv-x="1572" 
d="M684 354q158 55 287 359q-191 49 -341 -77q-62 -52 -68 -129t31 -122q36 -45 91 -31zM23 -547l20 33q55 113 74 361t26 496q7 249 13 383t10 224q-6 -20 -18 -59t-17 -55q-113 -410 -137 -686q-12 -121 -17 -367q0 -240 46 -330zM1081 752q297 -99 506 -99q45 1 45 -31
t-56 -32t-158 10q-101 10 -355 86l-2 2q-4 0 -4 2q-18 -45 -47 -104q-104 -199 -222 -262q-70 -43 -158 -35q-88 9 -127 77q-40 68 -33 147q13 150 201 235q152 68 322 26q94 257 108 481q15 224 -40 353q-35 80 -102 132t-155 52t-178 -50q-91 -50 -170 -140t-186 -351
q0 -18 -14 -347t-20 -577q-13 -528 -68 -755q-39 -143 -104 -184t-109 12q-87 126 -65 538q12 236 29 352t84 409q67 294 173 558q4 86 4 127q4 348 -16 463q-6 0 -15 7q-9 8 -11 22t14 22q25 8 43 14t30 -11q13 -15 21 -29t13 -40t6 -41t7 -82t2 -239q104 199 240 287
q205 137 387 86t250 -225q55 -133 43 -350q-18 -239 -113 -516z" />
    <glyph glyph-name="Q" unicode="Q" horiz-adv-x="1409" 
d="M360 -295q152 31 334 168q-242 183 -434 227q-178 45 -250 -55q-47 -57 -46 -139t61 -131q128 -111 335 -70zM308 328q120 0 235 84q113 84 177 209q65 125 52 256q-2 18 21 26t47 0t24 -29q18 -162 -77 -316t-246 -234q-179 -90 -334 -38q-84 28 -137 101
q-90 123 -100 311t46 396q133 446 439 696q211 171 427 155q120 -9 210 -92q195 -180 223 -561q80 -930 -496 -1417q4 -2 11 -8t12 -10q445 -354 743 -374q137 -9 223 35t121 122q14 29 60 20q43 -10 28 -39q-37 -84 -119 -133q-217 -137 -559 -14q-195 70 -405 217
l-178 135q-259 -193 -483 -196t-339 124q-55 60 -60 144t38 153q90 143 257 130t363 -118q123 -70 224 -141l6 6q465 401 471 1143q0 428 -133 643q-92 147 -218 170t-309 -100q-313 -221 -454 -668q-68 -208 -58 -404t91 -298q76 -86 156 -86z" />
    <glyph glyph-name="R" unicode="R" horiz-adv-x="1687" 
d="M563 354q86 10 176 74q-12 35 -30 61q-63 86 -170 46q-121 -49 -88 -115q17 -34 49 -52t63 -14zM135 506q0 272 2 293q-45 -123 -63 -185q-86 -272 -121 -610q-20 -225 -8 -354q19 -144 49 -185q4 -8 8 -10q82 84 115 527q18 252 18 524zM1669 635q4 20 28 24t44 -8
t15 -37t-15 -61q-84 -289 -258 -586q-106 -174 -189 -256q-188 -195 -350 -66q-38 29 -78 133q-10 26 -22 83l-16 76q-3 20 -25 176q-21 157 -43 243q-6 -4 -20 -10t-23 -11q-10 -5 -19 -9q-74 -41 -167 -33t-150 82t-2 143q31 41 92 66t119 26q125 4 192 -82q20 -29 29 -45
q14 14 39 35q139 125 207 246t114 285q115 428 -79 610q-50 51 -122 73t-124 15q-113 -14 -225 -109q-184 -160 -355 -528q-6 -10 -26 -57q-12 -221 -13 -328q0 -509 -17 -737q-36 -482 -134 -572q-37 -37 -89 -38t-91 90q-47 100 -48 288q-2 313 93 715q43 188 119 381
t87 213q25 503 11 615t-25 135q-25 -4 -40 8q-28 22 -1 47q63 41 111 -8q20 -23 35 -90q20 -119 16 -363q0 -43 -4 -133q76 137 141 225q221 303 467 311q170 6 290 -101t146 -275q49 -301 -129 -652q-57 -119 -153 -218t-172 -156q29 -94 59 -332q37 -240 72 -317
q95 -208 299 44q169 211 321 590q55 142 78 240z" />
    <glyph glyph-name="S" unicode="S" horiz-adv-x="1273" 
d="M639 352q-45 86 -70 129q-376 -136 -577 -358q-162 -180 -125 -404q14 -88 58 -168t114 -120q145 -85 321 -55t290 169t118 335t-129 472zM1321 642q0 -32 -47 -32q-328 -12 -621 -102q2 -4 7 -12t8 -13q305 -553 125 -882q-88 -158 -253 -237q-164 -79 -358 -51
t-295 150q-125 152 -118 355q14 375 561 639q117 53 207 84q-25 44 -153 249t-144 235q-84 158 -94 223q-21 141 12 235q70 195 260 285t381 -3q71 -39 105 -107t18 -147q-31 -158 -162 -221q-33 -14 -59 13t24 51t82 92q33 69 27 142t-75 116t-159 42t-170 -51t-133 -130
q-119 -177 -25 -411q13 -32 27 -57t19 -35q19 -36 36 -61q20 -30 41 -65t103 -168t120 -201q304 95 658 107q45 0 45 -32z" />
    <glyph glyph-name="T" unicode="T" horiz-adv-x="1224" 
d="M573 1722h-4q-12 4 -67 7l-117 6q-350 8 -565 -66q-135 -45 -201 -130t-31 -216q6 -21 -14 -33t-46 -6t-30 25q-44 177 60 285t328 164t554 38q123 -4 579 -70t678 -68q426 -6 513 116q18 28 59 12t19 -47q-66 -92 -232 -122t-414 -20q-249 10 -753 80q-281 45 -316 45z
M520 -258q8 4 22 4t19 6q19 6 25 12h2q76 41 164 140q210 237 452 737q14 31 64 18q37 -12 26 -38q-246 -489 -421 -701q-255 -308 -446 -225q-101 45 -163 199q-127 310 19 1269q53 354 65 447q2 20 27 28t47 -1t18 -29q-14 -115 -77 -519t-66 -635q-4 -232 8 -348
q0 -25 6 -49v-2q0 -12 2 -18t13 -55t49 -125q0 -7 10 -17q0 -4 37 -53l10 -8q25 -25 35 -25l31 -12h22z" />
    <glyph glyph-name="U" unicode="U" horiz-adv-x="2254" 
d="M1649 -205h6q43 9 74 37q149 112 380 594q94 196 123 246q16 29 66 16q37 -10 22 -37q-49 -86 -128 -251q-166 -347 -273 -484q-152 -206 -301 -183q-283 39 -217 879q6 100 22 275q-220 -591 -331 -816q-111 -226 -224 -358q-147 -176 -280 -186q-147 -10 -209 203
q-92 293 -6 815q44 297 74 427q29 130 49 236t21 272q2 275 -124 349q-49 29 -104 4q-121 -58 -205 -278t-92 -375q-8 -203 112 -275q32 -23 -9 -51q-22 -14 -56 6q-2 2 -8 5t-8 5q-225 162 -48 650q82 225 195 321q66 57 153 63t167 -54q80 -62 104 -210t10 -296t-57 -357
t-47 -231q-128 -708 -33 -1012q35 -106 65 -130q49 -39 95 -7q63 29 127 100q133 139 217 313q119 248 193 438t169 445q94 254 135 363q20 115 39 168q41 121 125 86q29 -14 21 -37q-43 -98 -92 -230q-14 -82 -43 -342q-33 -346 -40 -492q-8 -145 14 -325t87 -262
q40 -40 54 -39q14 2 16 2z" />
    <glyph glyph-name="V" unicode="V" horiz-adv-x="1390" 
d="M682 -221q-106 -413 -23 -494q-2 0 5 -4l2 -2h2q2 0 7 6t5 15q47 109 2 479zM2075 2099q-2 0 -7 2h-14q-4 -2 -18 -5t-25 -11q-197 -108 -534 -654q-337 -545 -631 -1183q-53 -115 -101 -256q48 -302 50 -531q-4 -135 -29 -186q-41 -86 -137 -55q-86 31 -94 164
q-9 100 25 266t62 252q28 88 30 91q1 3 -3 20q-3 17 -19 119t-39 227q-23 124 -44 255q-45 292 -119 488q-63 156 -134 230t-164 71q-50 -2 -81 -41q-33 -33 -53 -109q-33 -137 -4 -276t71 -180h3q35 -8 34 -33q0 -14 -15 -24t-30 -7q-92 11 -133 147t-31 279q8 174 84 244
q92 86 232 57q207 -43 321 -377q63 -173 89 -320q44 -251 64 -387t36 -206q27 66 106 233q342 715 676 1223q209 309 350 434q195 170 314 70q33 -27 -7 -46t-73 13h-4q-2 2 -4 2z" />
    <glyph glyph-name="W" unicode="W" horiz-adv-x="2107" 
d="M2388 1972q14 -8 13 -22t-13 -23q-25 -10 -57 -3t-43 7l-2 -2q-106 -57 -197 -424t-157 -808t-111 -715t-95 -410q-16 -47 -54 -102t-93 -84q-172 -72 -286 60q-115 132 -155 263q-39 131 -69 389q-8 50 -19 148t-12 106l-18 203q-16 -63 -72 -262l-92 -326
q-53 -184 -129 -286q-121 -160 -289 -107q-235 78 -211 698q15 377 19 664q4 286 -27 468t-67 252t-111 64q-74 -8 -131 -80q-76 -100 -98 -268t7 -322q30 -154 99 -229q21 -25 -16 -43q-37 -14 -64 13q-68 74 -102 216t-25 289q23 367 232 467q110 52 184 16t116 -126
q41 -89 53 -163q13 -74 22 -127t20 -314q10 -261 -8 -554q-17 -293 -15 -411q12 -188 40 -276t75 -146q47 -57 115 -33q102 35 182 238q6 14 88 285q145 524 182 692q-2 25 -4 76q-2 52 -6 134t-2 197q6 109 29 131q41 36 79 10t51 -92q23 -119 -54 -460q37 -528 73 -760
q35 -272 82 -400t120 -191t137 -39t118 120q52 96 70 215t51 299t78 476q46 296 83 511t97 451q70 256 129 354q110 180 260 96z" />
    <glyph glyph-name="X" unicode="X" horiz-adv-x="2168" 
d="M2269 2060h-2q-63 0 -134 -41t-112 -82q-227 -227 -459 -558q-231 -331 -626 -978q6 -20 50 -137q44 -118 117 -268t143 -239t143 -93q122 -7 309 237q72 93 112 157t106 177q67 112 135 241q67 128 93 163t68 19t18 -46q-18 -24 -40 -63q-21 -39 -33 -59
q-11 -20 -47 -87q-375 -698 -621 -792q-59 -23 -121 -14q-106 10 -189 112q-83 101 -155 249t-150 347q-198 -322 -372 -548q-95 -116 -161 -155q-187 -110 -326 -10q-89 64 -129 168t-29 211q2 20 25 29q24 8 46 -1t21 -30q-12 -123 48 -237t146 -121q131 -8 291 192
q88 113 264 383q45 74 140 222q-58 158 -152 460t-111 353q-84 262 -194 385q-49 59 -100 75q-76 18 -134 -125q-45 -115 -39 -224t48 -175q18 -35 28 -41t15 -10q41 4 52 -25t-40 -41t-98 37t-70 113q-66 180 14 385q63 154 173 172q142 23 279 -169q94 -128 161 -353
q135 -456 227 -719q87 135 185 294q98 158 176 282t220 323q140 199 265 350q195 227 328 309q176 107 307 27q14 -9 13 -23t-13 -22q-33 -23 -66 0l-16 8q-2 0 -6 2h-4q-10 4 -17 4z" />
    <glyph glyph-name="Y" unicode="Y" horiz-adv-x="1927" 
d="M485 -1589q139 0 261 62q373 189 477 788q29 182 50 395q21 214 23 266t11 200l12 222q-914 -437 -1180 -975q-84 -168 -104 -332q-33 -383 198 -546q113 -80 252 -80zM430 1042l-10 -398q0 -71 10 -198q12 -94 34 -139t36 -54t23 -11t14 -4h18q2 2 14 5q11 3 15 5t11 5
q50 21 129 126q111 148 266 489q282 622 333 703q39 77 91 56q28 -11 30 -42q6 -90 2 -205q0 -305 -29 -915q242 106 510 199q41 16 64 -13q8 -12 2 -25t-21 -18q-322 -113 -559 -221q-2 -43 -7 -139t-10 -193q-17 -358 -71 -733q-33 -216 -88 -370t-145 -279
q-119 -172 -329 -267t-416 -43t-316 230q-131 213 -80 502q72 401 457 749q347 317 915 580q39 747 33 1022q-61 -127 -179 -382t-225 -470q-234 -473 -450 -416q-123 33 -154 207q-27 135 -15 492t-39 580q-20 88 -73 138q-52 49 -139 -30q-78 -66 -105 -236t48 -244
q41 -20 12 -45t-60 -10q-82 43 -89 181q-7 139 45 271t149 177q56 25 114 15q156 -26 202 -278q28 -158 32 -354z" />
    <glyph glyph-name="Z" unicode="Z" horiz-adv-x="1574" 
d="M-181 -215q135 -38 488 254q-258 53 -420 -62q-39 -27 -82 -73t-32 -76q10 -33 46 -43zM1712 1618h6q33 4 149 16t249 61q26 9 64 34q61 40 44 101t-181 7q-165 -53 -331 -219zM191 117q103 0 174 -27q240 215 475 524q70 92 292 401t309 414t105 127q-79 0 -309 38
q-229 38 -343 52q-114 12 -169 -4q-86 -31 -119 -129q-6 -18 -32 -22t-45 8t-13 33q37 104 121 147q81 45 193 38t318 -41t282 -45t172 -13q264 283 530 305q109 12 157 -41t27 -117q-29 -84 -196 -141q-227 -72 -469 -72q-85 -92 -203 -248t-326 -446q-208 -289 -353 -466
q-146 -177 -310 -329q97 -33 197 -77t404 -226q304 -180 484 -243q276 -96 461 -99q252 -4 430 146q25 24 60 2t4 -47q-322 -272 -891 -92q-227 70 -475 208q-47 27 -207 122t-278 155t-247 100q-127 -109 -254 -188q-215 -133 -340 -105q-55 14 -95 45t-27 74
q25 94 109 160q153 119 397 119z" />
    <glyph glyph-name="bracketleft" unicode="[" horiz-adv-x="937" 
d="M653 -557q45 0 45 -32t-47 -32q-281 -4 -403 13q-33 4 -33 30q-2 57 6 211t18 639q12 551 35 921q23 371 34 559t15 248t27 210q6 39 45 39l291 -4q16 1 30 -9t15 -24q0 -33 -47 -33l-246 6q-12 -57 -20 -153t-37 -562q-39 -630 -51 -1171q-11 -541 -18 -670t-5 -180
q70 -6 346 -6z" />
    <glyph glyph-name="backslash" unicode="\" horiz-adv-x="1968" 
d="M197 2054q121 25 243 -98q180 -183 415 -724l81 -186q66 -151 156 -384t131 -324q39 -92 91 -213t82 -181l76 -152q208 -418 364 -510q44 -26 79 -15h2q12 4 17 7t12 7q32 25 64 2t3 -45q-221 -150 -481 264q-181 288 -489 1044q-287 705 -411 951t-218 365
q-98 133 -185 133q-4 -2 -6 -2q-45 -8 -57 20q-12 29 31 41z" />
    <glyph glyph-name="bracketright" unicode="]" horiz-adv-x="739" 
d="M223 2081q-45 0 -45 33t47 32q195 0 291 -6q45 -4 47 -35q2 -76 -4 -170q-7 -115 -20 -657t-29 -840q-25 -367 -37 -629t-23 -341q-10 -80 -22 -148q-8 -37 -45 -41q-55 -2 -155 2t-142 4q-41 0 -41 33q2 31 47 31l248 -6l8 51q17 149 49 703q33 554 41 922t15 507
q4 200 11 362t7 189q-82 4 -248 4z" />
    <glyph glyph-name="asciicircum" unicode="^" horiz-adv-x="751" 
d="M526 950q14 -4 20 -18t-3 -27q-23 -27 -72 -9t-96 65q-6 -4 -43 -39t-92 -52q-43 -8 -58 25q-10 29 33 39q16 2 58 42q41 40 65 56t47 14t35 -16q45 -57 106 -80z" />
    <glyph glyph-name="underscore" unicode="_" horiz-adv-x="1851" 
d="M1735 145q16 2 33 -9t18 -27q0 -29 -53 -35q-289 -19 -523 -24q-232 -5 -382 -9t-272 -12t-233 -9t-153 -20q-49 -14 -70 16q-10 14 -4 28q18 43 241 47q69 1 206 9t325 11q752 26 867 34z" />
    <glyph glyph-name="grave" unicode="`" horiz-adv-x="788" 
d="M510 883q14 -5 19 -19t-9 -32t-59 -5q-111 39 -213 86q-41 18 -12 44t59 12q104 -49 215 -86z" />
    <glyph glyph-name="a" unicode="a" horiz-adv-x="880" 
d="M866 662q18 30 60 14t20 -47q-11 -22 -31 -45q-163 -239 -280 -352q-27 -26 -77 -60q-142 -95 -245 10q-63 66 -80 154q0 2 -2 8t-2 10q-103 -154 -186 -159q-84 -5 -120 71t-15 160q37 154 121 268q110 141 239 68q14 -8 14 -22t-14 -23q-29 -23 -73 6q-51 2 -113 -85
t-84 -187q-23 -100 16 -177q10 -14 17 -14q29 12 59 51q90 113 114 171t32 79q14 72 40 152q6 16 30 21t44 -3t17 -26q-18 -100 -43 -166q-20 -115 -2 -185t29 -86q57 -85 91 -73q50 14 76 37q91 77 136 141q97 116 212 289z" />
    <glyph glyph-name="b" unicode="b" horiz-adv-x="894" 
d="M117 98q47 47 80 109q-5 -5 -13 -12t-10 -11q-47 -47 -57 -86zM330 1632q-70 -156 -147 -454t-89 -384t-14 -104q72 49 149 121q328 297 471 647q78 199 64 340q-8 115 -59 167t-136 -1q-133 -90 -239 -332zM55 217q0 -29 -42 -32t-48 24q0 229 15 387q-18 18 4 37
q30 340 178 811q80 246 182 395q156 231 324 215q94 -8 139 -89t51 -187q12 -303 -274 -697q-250 -336 -514 -481q-4 -43 -9 -133q96 118 184 112q148 -11 126 -182q205 100 315 155t182 112q27 20 64 -2q27 -23 0 -46q-76 -59 -180 -111t-208 -101q-105 -49 -202 -103
q-14 -37 -31 -68q-92 -180 -211 -235q-14 -8 -37 -3t-30 23q-70 158 229 320q29 84 19 125q-9 41 -19 47q-20 13 -59 -12q-112 -99 -146 -238q-2 -14 -2 -43z" />
    <glyph glyph-name="c" unicode="c" horiz-adv-x="864" 
d="M842 655q22 27 62 10t16 -42q-184 -203 -453 -332q-223 -106 -375 -62q-100 29 -140 102t-26 167q23 176 162 278q80 61 138 56q58 -6 90 -34t34 -67t-33 -44t-47 28t-26 47t-66 -12q-141 -90 -162 -261q-16 -208 172 -208q150 3 344 127t310 247z" />
    <glyph glyph-name="d" unicode="d" horiz-adv-x="1134" 
d="M250 586q37 80 39 174q-23 -4 -37 4q-86 31 -166 -102q-72 -135 -61 -234q4 -66 47 -94h2q2 2 12 6t23 20q69 70 141 226zM379 809q2 0 2 2q168 156 310 379q143 223 197 439t11 366q-29 90 -61 127q-28 28 -54 28q-65 -16 -120 -83q-54 -66 -76 -114
q-117 -251 -160 -512t-46 -380t-3 -252zM-70 442q0 158 104 293t253 86q0 131 5 254t43 357t109 409q96 250 222 332q70 47 148 36t122 -83q82 -125 76 -277q-10 -428 -377 -884q-124 -147 -244 -250q-6 -6 -8 -10q2 -80 12 -160q0 -59 26 -129q85 -228 257 -166
q59 23 119 65q143 107 319 334q23 27 63 11t17 -46q-154 -195 -285 -305q-125 -100 -215 -126t-170 0t-140 110t-79 209q-18 -36 -31 -51q-29 -49 -48 -78t-58 -64t-78 -39q-70 -8 -116 47t-46 125z" />
    <glyph glyph-name="e" unicode="e" horiz-adv-x="759" 
d="M74 608q54 0 108 23q92 33 129 82q16 23 8 55t-32 41q-11 6 -42 -3q-32 -9 -59 -34q-78 -66 -116 -164h4zM733 645q19 27 59 13t19 -46q-76 -116 -197 -202q-243 -173 -478 -145q-58 7 -103 41t-64 91q-55 168 76 340q55 76 136 121t160 3q79 -43 75 -111t-78 -121
q-139 -92 -287 -86q-20 -139 49 -191q35 -29 93 -28q131 -2 291 93t249 228z" />
    <glyph glyph-name="f" unicode="f" horiz-adv-x="1081" 
d="M274 -119q13 48 17 137t-47 188t-146 154q-24 8 -30 11q-2 -12 -2 -37q-12 -242 4 -368t73 -181q72 -68 131 96zM344 1747q-216 -520 -254 -1065q217 113 383 293q252 276 375 659q111 330 49 512q-75 216 -231 101q-172 -138 -322 -500zM-10 592q-27 27 4 45
q0 136 35 328q72 432 223 792q84 203 188 357q160 231 314 239q90 5 154 -61q152 -154 69 -529q-85 -373 -319 -691t-576 -472q-8 -96 -10 -149q41 -16 69 -33q164 -35 457 47q160 45 276 98t162 88q4 1 22 13t21 10q2 -2 29 -2q14 -4 20 -18t-4 -27q-43 -45 -186 -111
t-332 -118t-336 -54h-26q68 -66 100 -143q68 -162 21 -330q-33 -119 -103 -154q-100 -57 -190 29q-72 68 -90 223t-9 375q10 103 17 248z" />
    <glyph glyph-name="g" unicode="g" horiz-adv-x="1001" 
d="M321 -458q1 12 5 98t10 212t6 248q-98 -76 -106 -82q-203 -158 -356 -312q-152 -154 -258 -340t-126 -344t23 -312q43 -156 135 -226q104 -74 256 -14q281 115 364 623q8 49 14 84q5 35 11 96t9 85t7 98t6 86zM983 666q27 22 61 0t3 -48q-148 -118 -350 -262
q-203 -145 -263 -188q4 -211 -26 -687q-31 -476 -132 -720q-70 -172 -184 -266q-141 -121 -305 -117t-257 121t-120 277t4 321q37 162 158 356q195 305 629 635q47 37 141 107q-2 100 -10 301q-31 -37 -72 -72q-145 -115 -260 -90q-68 12 -88 69t2 117q51 162 192 250
q80 53 156 51q92 -8 131 -98q14 -27 -24 -37q-47 -8 -67 27t-38 41t-61 -10t-99 -72q-56 -55 -86 -129q-32 -74 -24 -102t14 -40l4 -2q16 -16 107 21q131 68 211 223q12 25 50 22t40 -32q12 -258 12 -373q399 285 551 406z" />
    <glyph glyph-name="h" unicode="h" horiz-adv-x="1071" 
d="M127 1358q-47 -305 -52 -427t-6 -177t-3 -84q430 186 776 688q141 203 176 362q51 231 -60 367q-155 182 -391 63q-346 -178 -440 -792zM16 211q-44 0 -43 33q0 61 -1 273q-1 213 5 345q7 132 43 398t99 456t194 332q193 211 418 213q111 2 208 -56t146 -159
q55 -138 35 -282t-94 -273q-174 -305 -420 -544t-540 -353v-158q126 167 240 129q66 -22 88 -102t22 -187q10 -127 26 -165q23 -63 138 10q63 41 114 92q100 93 211 233t146 191q18 27 58 13t19 -46q-68 -106 -206 -270q-186 -213 -310 -279q-158 -86 -235 -2
q-33 39 -41 107t-11 128t-7 89q-7 56 -17 93q-20 67 -105 -7q-40 -35 -82 -107t-48 -114q-6 -31 -50 -31z" />
    <glyph glyph-name="i" unicode="i" 
d="M64 1026q22 0 37 -9q26 -16 9 -49q-18 -34 -48 -28t-39 16q-10 22 5 46q14 24 36 24zM127 174h12q22 0 85 44q64 44 132 117t154 169t116 130t70 16t14 -44q-24 -28 -44 -48t-118 -135q-99 -115 -232 -235q-30 -26 -85 -54t-102 -25q-137 10 -156 219q-12 170 17 342
q2 20 26 28t46 -1t20 -29q-28 -150 -20 -286t32 -172t33 -36z" />
    <glyph glyph-name="j" unicode="j" horiz-adv-x="624" 
d="M-4 864q-12 4 -21 19q-12 29 13 46q24 17 52 12t34 -25t-18 -44q-24 -26 -60 -8zM-41 -754q39 201 45 423t-2 474q-133 -92 -246 -202q-319 -311 -327 -658q-8 -229 75 -377q58 -98 142 -115t164 66q51 55 93 178t56 211zM-10 625q0 20 22 28t46 -1t24 -29q0 -109 8 -330
q41 27 124 79t178 111t196 150q26 26 63 10q11 -6 19 -19t-4 -26q-103 -88 -161 -126t-92 -60q-33 -22 -95 -62q-62 -39 -89 -55t-75 -48t-62 -40q8 -287 6 -430q-8 -530 -129 -819q-51 -118 -133 -180t-186 -54q-100 12 -170 83t-103 175q-121 377 93 733q162 264 528 518
q-8 258 -8 392z" />
    <glyph glyph-name="k" unicode="k" horiz-adv-x="1148" 
d="M119 350q5 6 35 24t71 62q61 61 70 86q12 70 -53 6q-77 -77 -123 -178zM96 852q-12 -115 -16 -172q4 2 50 22t155 103q408 337 594 659q115 203 129 355q20 250 -99 309q-143 74 -334 -49q-368 -251 -479 -1227zM141 281q74 -103 207 -103q127 -6 275 62q305 135 524 434
q18 28 59 12t19 -47q-115 -158 -269 -282q-154 -125 -326 -191t-320 -50t-244 128q0 -49 4 -148q10 -128 27 -156t-21 -42q-43 -14 -60 14q-30 44 -36 146q-22 340 18 724q57 575 199 920q88 211 233 356t344 158q102 6 186 -36t115 -134q55 -162 0 -352q-86 -309 -436 -672
q-133 -135 -266 -246q-86 -66 -135 -96q-111 -61 -164 -70q-4 -57 -8 -176q62 108 122 158q59 49 103 42q45 -7 69 -36q72 -82 -92 -229q-66 -59 -127 -88z" />
    <glyph glyph-name="l" unicode="l" horiz-adv-x="831" 
d="M309 1632q-195 -338 -227 -862q-4 -78 -8 -119q154 74 278 202t203 286q145 289 125 536q-12 96 -47 142q-82 117 -215 -33q-64 -72 -109 -152zM803 633q14 29 61 20q39 -12 27 -39q-188 -348 -361 -503q-253 -217 -418 -44q-170 175 -126 635q28 553 202 891
q111 213 224 291q68 51 154 46t141 -72q86 -104 61 -320q-16 -142 -88 -336t-236 -368t-374 -261q-8 -363 131 -483q119 -102 321 125q146 160 281 418z" />
    <glyph glyph-name="m" unicode="m" horiz-adv-x="1552" 
d="M283 725q119 0 133 -180q0 -14 1 -42t1 -42q110 198 215 284q63 54 131 47q36 -5 64 -45t31 -125t-5 -143q-8 -236 4 -319q18 -139 80 -152h6q56 14 131 82q74 59 148 143q203 227 311 408q18 31 49 23q15 -2 23 -16t-4 -46q-78 -158 -287 -389q-63 -69 -91 -97t-86 -75
t-116 -78t-120 -13q-64 18 -105 95q-41 76 -41 297l10 207q0 119 -18 164q-6 18 -37 -2q-76 -59 -163 -197t-126 -240q-8 -22 -44 -22t-45 28q-13 41 -9 164q5 124 -13 170q-16 55 -47 35q-44 -34 -100 -137q-57 -102 -101 -211q-10 -27 -49 -23t-41 33q-16 188 9 346
q6 33 53 31q41 -6 39 -33q-10 -68 -15 -151l31 55q69 121 131 152q29 14 62 14z" />
    <glyph glyph-name="n" unicode="n" horiz-adv-x="935" 
d="M586 354q43 0 114 54q123 94 211 235q17 27 59 11t21 -46q-76 -119 -188 -215q-152 -129 -260 -98q-143 41 -123 301l4 47q4 47 4 84t-8 37q-74 -20 -126 -112q-20 -34 -28 -48q-18 -29 -67 -146q-50 -117 -78 -152q-28 -36 -46 -53q-19 -17 -48 -13t-35 24
q-14 70 -10 217l2 111v43q-4 8 0 18q10 14 22 19q39 16 64 -13q6 -8 6 -55l-2 -104q0 -16 -1 -51t-1 -54q39 84 47 103q86 186 141 246t111 75q111 33 139 -37q14 -36 4 -166t3 -185t54 -75q4 -2 15 -2z" />
    <glyph glyph-name="o" unicode="o" 
d="M717 631q10 -29 -33 -39q-231 -61 -395 -10q8 -51 4 -121q-4 -186 -92 -258q-51 -45 -131 -35t-115 70q-61 98 -19 283t130 202q45 8 57 -23q8 -29 -29 -38q-14 0 -45 -78t-38 -156t7 -131q35 -92 103 -59q18 8 31 28q33 45 43 119q23 150 -13 252q-10 6 -28 25
q-20 12 -20 36t36 26q35 3 49 -17l39 -33q8 -4 30 -18t64 -21q127 -29 310 20q14 4 32 -3t23 -21z" />
    <glyph glyph-name="p" unicode="p" horiz-adv-x="913" 
d="M465 174q33 43 51 109q-103 -62 -147 -119q-7 -6 -7 -20t10 -20q10 -7 42 6q31 13 51 44zM-131 -1106q71 143 98 719q10 217 10 412q-6 -16 -16 -33q-125 -258 -194 -531q-98 -351 -59 -475q39 -125 101 -138q32 -7 60 46zM70 219v-305q-8 -401 -34 -634
q-26 -232 -48 -314t-62 -140q-41 -58 -112 -51q-98 12 -150 92q-51 79 -56 175t27 264q33 147 85 317t93 257t66 137t37 79l61 135q-2 199 -12 402q0 21 23 29q22 8 46 -2t23 -29q4 -74 9 -221q39 70 86 127q109 131 198 141q114 10 182 -64t82 -182q207 131 293 211
q27 26 62 12q35 -20 16 -45q-102 -96 -369 -264q-12 -166 -105 -240q-93 -73 -177 -40q-120 68 -6 174q58 54 198 139q-7 150 -83 213q-35 32 -79 22q-67 -15 -178 -170q-59 -92 -114 -219q-2 -2 -2 -6z" />
    <glyph glyph-name="q" unicode="q" horiz-adv-x="1153" 
d="M274 -272q-9 -37 -55 -379q-45 -343 -25 -447t74 -157q74 -70 140 -25q141 100 116 421t-241 576q-6 6 -9 11zM1122 659q20 27 64 9q33 -16 14 -43q-39 -49 -92 -107q-217 -223 -649 -491q-117 -72 -148 -95q-12 -70 -18 -106q200 -219 268 -424q37 -106 52 -240t-2 -236
q-17 -104 -76 -192t-157 -95t-173 61t-99 184t16 424q53 410 75 502q-29 25 -37 38q-29 45 59 113q4 2 6 4q12 53 40 222t28 196q-151 -197 -287 -170q-41 8 -63 43q-74 116 -2 282t192 230q75 41 141 23t109 -105q14 -29 -30 -38t-60 22q-66 121 -167 6
q-102 -115 -118 -209t0 -145q12 -60 59 -39q46 20 74 51q29 31 40 44t28 32q88 110 114 195q3 13 6 25t27 16q24 5 48 -6q25 -11 6 -62q-8 -59 -19 -164t-32 -221q-21 -117 -27 -158q24 16 72 45q494 295 718 579z" />
    <glyph glyph-name="r" unicode="r" horiz-adv-x="952" 
d="M18 1106q-80 -147 -49 -295q14 -55 51 -113q55 70 105 164q121 245 10 303q-25 13 -42 11t-40 -24t-35 -46zM299 446q1 -20 -29 -160t-30 -226t19 -136t67 -46q48 3 132 87q83 84 187 240q55 77 159 245t128 198t62 12t20 -44q-32 -35 -68 -96t-133 -216
q-139 -222 -258 -353q-186 -206 -315 -125q-53 33 -74 92q-35 104 -2 291q4 23 22 107t21 128q-49 18 -84 39q-82 45 -156 147t-88 176q-14 73 -2 150q31 203 141 263q66 37 147 9t105 -102q37 -111 -49 -269t-151 -224q74 -88 147 -119q63 -21 72 -35q10 -13 10 -33z" />
    <glyph glyph-name="s" unicode="s" horiz-adv-x="679" 
d="M91 -99q-14 62 -21 122q-2 -1 -6 -5t-7 -6q-312 -312 -319 -483q-4 -63 24 -131t82 -98q56 -30 144 22q88 53 113 154t19 172q-5 71 -10 131t-19 122zM649 653q20 27 64 9q33 -16 10 -48q-48 -65 -226 -211q-179 -147 -347 -303q45 -252 57 -405q25 -272 -113 -389
q-80 -68 -176 -79t-178 56q-47 45 -74 116q-64 167 80 376q109 160 307 344q-2 10 -6 33q-11 62 -43 193q-72 289 37 417q63 78 180 57q13 -2 25 -13t6 -26q-12 -30 -58 -22t-77 -31q-54 -68 -49 -183t59 -325q0 -8 6 -29q89 82 273 237t243 226z" />
    <glyph glyph-name="t" unicode="t" horiz-adv-x="720" 
d="M78 1820q0 32 23 42q25 8 47 -1t22 -30q-4 -86 -8 -127q72 12 207 36t194 34q342 55 580 50t336 -42q129 -47 112 -144q-6 -32 -50 -28t-42 30q3 36 -14 56q-55 47 -242 61q-145 6 -329 -8t-756 -113q-8 -100 -35 -402q-85 -947 24 -1132q41 -72 89 -63q68 14 146 92
t134 166q117 172 186 354q6 19 32 23t45 -8t12 -33q-98 -258 -259 -455q-233 -289 -401 -176q-105 70 -125 283t-9 437t38 540t28 358q-653 -106 -1026 -78q-242 16 -362 90q-84 49 -109 121q-37 113 72 141q14 4 32 -2t25 -20q10 -29 -32 -39q-21 -14 -13 -47t23 -49
q72 -98 305 -125q160 -18 408 -7t684 83q8 100 8 132z" />
    <glyph glyph-name="u" unicode="u" horiz-adv-x="897" 
d="M47 478q0 -77 16 -111q23 -53 80 24q39 39 93 149t88 152q12 14 36 16t39 -14q14 -10 15 -24q0 -402 36 -495t103 -13q37 37 96 123t219 356q16 31 66 18q37 -10 22 -36q-134 -225 -204 -335t-136 -177q-97 -98 -210 -19q-76 53 -82 424q-14 -27 -48 -80
q-94 -162 -188 -164q-180 -4 -119 377q2 12 6 31l5 25q6 33 50 29t42 -32q-25 -147 -25 -224z" />
    <glyph glyph-name="v" unicode="v" horiz-adv-x="872" 
d="M297 793q-31 -139 16 -244q2 6 31 63t51 129q23 55 19 113t-49 41q-45 -18 -68 -102zM197 694q0 201 106 252q76 37 152 -8q55 -31 51 -104q0 -54 -12 -89q-12 -34 -28 -77q-17 -43 -37 -82q-19 -40 -30 -62t-28 -57q87 -96 244 -41t247 207q20 26 46 22t38 -16t4 -25
q-72 -122 -198 -202t-258 -70q-88 6 -158 53q-82 -168 -127 -252q-12 -25 -44 -23t-44 25q-70 129 -109 354q-22 127 -28 155t14 39t44 6t28 -23q10 -47 34 -189t64 -235q51 102 100 207q-8 12 -14 20q-57 84 -57 215z" />
    <glyph glyph-name="w" unicode="w" horiz-adv-x="1310" 
d="M727 385q142 351 129 514q-12 123 -105 113t-141 -146q-29 -78 -24 -159q0 -75 43 -167t98 -155zM1292 649q10 19 38 23t42 -12t-4 -56q-86 -158 -213 -270t-276 -101q-61 6 -107 29q-65 -157 -133 -194q-94 -55 -172 14q-63 59 -98 197q-10 43 -33 161q-9 -24 -65 -136
q-15 -30 -52 -72t-76 -54q-82 -27 -123 33q-28 43 -40 159t12 271q6 33 53 31q41 -6 39 -33q-24 -131 -16 -239t28 -150q2 -2 4 -6t4 -6q58 23 136 202q61 152 65 201q4 33 46 32t46 -34q59 -421 123 -500q82 -82 164 144l10 26q-43 35 -84 92q-129 186 -116 353
q20 203 135 282q57 45 150 40t136 -70q61 -102 9 -322q-41 -160 -127 -358q136 -70 287 54q122 100 208 269z" />
    <glyph glyph-name="x" unicode="x" horiz-adv-x="935" 
d="M-150 110q0 16 14 23q14 8 28 7q33 -2 76 69q9 14 49 70t57 85q18 29 22 35q-51 151 -69 182t-38 42q-21 11 -14 32q5 15 23 21t35 2q53 -14 92 -103q8 -16 33 -81q158 246 235 325q76 80 152 58q14 -5 19 -19t-3 -27q-16 -18 -47 -14h-2q-49 -27 -97 -93
q-47 -66 -65 -92t-53 -80t-49 -74t-53 -85v-2q37 -100 67 -164q51 -100 162 -51q51 23 117 74q199 158 381 420q18 30 59 14t20 -47q-90 -129 -220 -269q-312 -336 -498 -262q-88 35 -150 195q-4 -6 -11 -16q-7 -11 -12 -19t-29 -44t-38 -55t-38 -44q-45 -47 -101 -47
q-55 0 -54 34z" />
    <glyph glyph-name="y" unicode="y" horiz-adv-x="1169" 
d="M229 -1376q51 166 89 460t50 460q11 165 23 431q-88 -72 -168 -143q-362 -326 -502 -645q-81 -179 -103 -401t48 -371q46 -103 142 -159t190 3q147 94 231 365zM477 741l12 -495v-99q55 41 165 121t232 170t269 215q27 23 64 0q31 -23 0 -47q-128 -111 -391 -303
q-264 -192 -343 -252q0 -8 -15 -318q-15 -311 -50 -579t-58 -383q-55 -258 -155 -411q-74 -106 -175 -160q-100 -54 -210 -22t-178 113t-91 179q-56 228 -16 412q61 379 344 715q188 227 514 477q0 53 3 131t-9 344q-35 -71 -71 -125t-108 -88q-71 -34 -142 -6
q-100 35 -97 186q2 57 15 176q2 20 25 29q25 8 47 -1t20 -30q-8 -76 -12 -151q-6 -129 38 -150q76 -35 162 109q78 143 121 254q10 28 50 24t40 -35z" />
    <glyph glyph-name="z" unicode="z" horiz-adv-x="1040" 
d="M334 -293q4 180 -10 320q-150 -115 -267 -222q-324 -303 -426 -608q-66 -201 -51 -377q16 -227 152 -317q59 -41 124 -35q118 11 220 119q106 117 157 305q95 344 101 815zM426 -248q0 -465 -92 -833q-45 -190 -131 -308q-156 -213 -359 -210q-100 2 -181 60t-124 155
q-72 154 -47 370q41 352 311 672q174 205 512 457q-4 15 -13 89t-32 120q-20 53 -57 86q-32 21 -50 23q-17 3 -37 19t-3 37q129 129 153 158q106 131 82 191q-8 20 -22 26q-41 16 -113 -67q-25 -27 -79 -98t-85 -101t-67 -12q-14 4 -20 18q-5 14 5 25q33 33 95 115t116 131
q56 51 128 59t116 -53q63 -88 -51 -236q-45 -59 -152 -162q129 -55 166 -297q2 -4 2 -10q398 285 617 473q28 20 62 0t3 -47q-231 -197 -425 -334t-244 -176q16 -150 16 -340z" />
    <glyph glyph-name="braceleft" unicode="{" horiz-adv-x="1089" 
d="M782 2083q0 -33 -47 -33q-74 4 -117 -49q-68 -78 -75 -270q-4 -79 6 -231t2 -275q-4 -133 -23 -240q-41 -233 -172 -416q174 -117 154 -450q-2 -35 -12 -165t-10 -164t1 -165q16 -222 89 -291q45 -45 108 -18q41 12 62 -14q10 -12 4 -26t-21 -17q-121 -41 -196 12
t-103 154q-55 175 -33 461t21 335q-4 242 -146 314q-35 16 -14 43q117 156 160 328t43 483q0 43 -7 139t-5 147q0 446 286 441q45 0 45 -33z" />
    <glyph glyph-name="bar" unicode="|" horiz-adv-x="944" 
d="M448 286q8 78 18 236q11 158 21 270t35 418q29 295 17 445q-2 20 20 28q23 8 47 0t25 -28q12 -152 -18 -477t-49 -595q-19 -269 -23 -311t-5 -59q-1 -16 -4 -60q-8 -108 25 -214q10 -31 -31 -39q-45 -6 -59 24q-27 84 -27 183q0 101 8 179z" />
    <glyph glyph-name="braceright" unicode="}" horiz-adv-x="927" 
d="M467 1510q0 34 -2 165q-12 166 -57 250q-51 82 -140 60q-43 -12 -61 12q-10 12 -4 26t20 19q125 38 198 -14t101 -154q55 -178 33 -467t-23 -330q9 -239 146 -311q37 -20 16 -45q-114 -150 -158 -325t-44 -484l12 -287q0 -199 -51 -301q-74 -143 -236 -139q-16 0 -32 9
q-15 8 -14 24t15 24t31 6q181 0 195 322q4 76 -6 220t-5 286q8 143 25 237q41 236 172 418q-174 117 -154 451q2 33 13 164q10 130 10 164z" />
    <glyph glyph-name="asciitilde" unicode="~" horiz-adv-x="641" 
d="M387 922h4q8 8 10 12q14 29 60 20q39 -12 28 -39q-39 -78 -149 -51q-8 2 -34 10t-40 11h-9l-7 -15q-12 -29 -57 -20q-39 12 -31 41q35 82 145 51l74 -18q2 -2 6 -2z" />
    <glyph glyph-name="exclamdown" unicode="&#xa1;" horiz-adv-x="493" 
d="M268 2236q-6 10 -6 84q6 31 37 33q45 8 57 -24q10 -23 2 -62t-41 -47t-49 16zM354 1686q0 -80 -1 -96t-5 -71q-4 -54 -16 -227t-20 -267q-9 -93 -21 -241t-19 -223q-29 -299 -16 -446q2 -20 -20 -29q-23 -8 -47 1q-23 10 -25 30q-12 150 20 500t49 596q17 245 21 286
t9 126t-6 133q-11 49 -18 71q-7 23 12 35t45 7t32 -24q26 -81 26 -161z" />
    <glyph glyph-name="cent" unicode="&#xa2;" horiz-adv-x="696" 
d="M322 784q-128 -102 -144 -241q-20 -166 96 -205q20 209 28 271q8 63 12 107q5 44 8 68zM514 463q18 29 59 12q39 -14 21 -45q-76 -117 -166 -147q-31 -10 -68 -15q-4 -37 -5 -57t-24 -29q-25 -8 -47 1t-21 29t5 60q-18 2 -41 13q-83 29 -119 105t-20 169q31 170 166 268
q39 31 76 41q0 2 6 78q0 20 23 29q24 8 47 -1q24 -10 22 -26q-4 -38 -4 -74q70 -14 98 -100q6 -20 -13 -32t-45 -8q-26 5 -34 29t-14 34q-22 -183 -49 -461q79 21 147 127z" />
    <glyph glyph-name="sterling" unicode="&#xa3;" horiz-adv-x="1927" 
d="M623 -580q125 162 223 486q-328 76 -506 -58q-74 -55 -114 -143t-20 -168t76 -136q56 -55 129 -71t116 6t96 84zM1389 1696q-80 -185 -121 -353q152 74 231 132q223 158 330 322t36 250q-102 118 -286 -73q-121 -127 -190 -278zM1577 644q0 -12 -12 -23q-82 -55 -204 -65
t-216 7q-12 0 -45 4q-6 -25 -14 -71q-47 -259 -134 -549q17 0 422 -137q250 -90 356 -117q198 -50 267 -15q35 16 59 -10t-14 -45q-98 -49 -276 -6t-438 136q-259 93 -394 130q-36 -111 -78 -219t-111 -215q-98 -151 -200 -179t-212 14q-111 42 -175 139t-45 210
q31 180 183 274q153 93 347 93q115 -4 221 -31q2 4 2 11q70 236 144 593q-156 8 -230 -67q-23 -27 -61 -10q-14 4 -21 18q-6 14 4 27q98 104 320 96q6 29 46 230t69 327q-7 -8 -87 -58q-212 -133 -190 -280q4 -25 -29 -31q-47 -8 -61 25q-2 2 -2 6q-20 121 87 226t306 206
q91 412 271 639q131 172 256 213q76 31 158 5t120 -101q70 -140 -104 -342t-365 -318q-33 -18 -252 -131q-32 -117 -131 -622q82 -17 199 -15t186 52q35 23 66 -2q12 -10 12 -22z" />
    <glyph glyph-name="dieresis" unicode="&#xa8;" horiz-adv-x="540" 
d="M393 973q33 8 52 -12t8 -54q-21 -39 -61 -19t-32 47q8 26 33 38zM190 879q-39 -1 -50 27t4 48q16 20 56 16t40 -32q-4 -59 -50 -59z" />
    <glyph glyph-name="copyright" unicode="&#xa9;" horiz-adv-x="1396" 
d="M997 1324q78 69 118 155q87 187 -5 340q-61 94 -174 109t-211 -36q14 -10 29 -22q24 -29 -28 -49q-26 -10 -44 9t-23 17q-83 -41 -118 -149q-41 -110 -28 -224t91 -180q102 -86 223 -57q92 18 170 87zM1124 1921q129 -107 123 -293t-166 -332q-184 -166 -381 -122
q-94 18 -164 78t-98 151q-51 162 19 326q23 53 67 108q-2 12 13 27q78 66 181 102q102 36 214 29q112 -8 192 -74zM922 1516q18 30 59 14t20 -47q-45 -70 -113 -98q-68 -29 -136 -5q-66 24 -92 76t-15 113q20 125 119 190q51 37 110 28t82 -73q10 -31 -31 -40t-55 20t-16 30
h-2q-33 -12 -53 -36q-55 -55 -65 -140q-10 -84 56 -108t132 76z" />
    <glyph glyph-name="plusminus" unicode="&#xb1;" horiz-adv-x="1003" 
d="M686 401q47 0 47 -32q0 -27 -47 -33q-202 0 -397 -6q-16 0 -31 9q-14 9 -14 26q0 31 47 30q198 6 395 6zM799 815q0 -27 -47 -33q-135 0 -203 2q-14 -129 -17 -235q0 -20 -22 -29q-23 -8 -43 1t-21 30q2 106 17 235q-156 4 -218 5t-59 32q0 31 43 32t238 -5
q12 123 18 246q0 20 23 29t43 0t20 -29q-6 -125 -18 -248q101 -2 201 0q45 0 45 -33z" />
    <glyph glyph-name="acute" unicode="&#xb4;" horiz-adv-x="747" 
d="M537 956q18 -29 -14 -42q-31 -13 -117 -52t-134 -52t-61 6q-14 18 -8 32q5 14 37 24t120 48t120 52q32 13 57 -16z" />
    <glyph glyph-name="periodcentered" unicode="&#xb7;" horiz-adv-x="397" 
d="M260 618q2 -31 -39 -40q-20 -8 -45 -2t-29 24q-4 4 -6 22t18 36q20 20 52 10q47 -13 49 -50z" />
    <glyph glyph-name="cedilla" unicode="&#xb8;" horiz-adv-x="702" 
d="M223 -115q0 16 -4 86t-1 88q3 19 27 27q25 8 47 -1t20 -27t3 -150q123 -33 146 -111q25 -81 -43 -153t-150 -66q-98 10 -121 133q-2 19 20 27q23 8 47 0t30 -45t30 -49h13l2 2h4q37 21 55 43q41 51 23 96q-18 51 -115 68q-33 10 -33 32z" />
    <glyph glyph-name="questiondown" unicode="&#xbf;" horiz-adv-x="1173" 
d="M803 2284q0 2 12 69q6 35 47 31q14 0 30 -9t15 -24q-8 -54 -12 -70q-8 -31 -50 -31t-42 34zM553 84q-162 -26 -286 73t-122 249q3 257 308 630q86 109 194 228q186 209 218 385t-40 252q-45 45 -94 -25q-18 -27 -61 -10q-35 16 -19 45q29 43 75 65t95 9q92 -25 129 -130
q50 -151 -20 -313t-197 -303q-287 -319 -392 -513t-103 -325q0 -154 135 -229q100 -57 229 -7t242 177q134 155 161 347q13 101 -40 185q-8 12 5 24t27 15q39 8 56 -24q43 -76 44 -167q2 -160 -110 -327q-79 -119 -193 -206t-241 -105z" />
    <glyph glyph-name="Agrave" unicode="&#xc0;" horiz-adv-x="2111" 
d="M1194 1987q14 -5 19 -19t-9 -32t-59 -5q-111 39 -213 86q-41 18 -12 44t59 12q104 -49 215 -86zM2089 643q6 19 32 23t45 -8t11 -33q-182 -528 -360 -834q-92 -156 -162 -223q-102 -94 -187 -70q-133 37 -190 232q-47 154 -51 370q-6 27 0 121t5 121t9 121t12 120
q1 25 13 119t14 121q-16 -31 -20 -55q-143 -406 -162 -449q-72 -182 -142 -301q-187 -337 -421 -358q-156 -16 -277 82q-193 162 -172 561q14 332 135 674q115 340 354 588q166 172 326 219q205 59 385 -49q12 -9 11 -23t-13 -22q-29 -23 -63 0q-155 92 -309 27t-267 -192
t-196 -265q-137 -229 -220 -578q-91 -423 -28 -678q66 -241 245 -276q158 -33 312 147q128 150 228 409q46 114 164 443q118 330 177 537q24 225 64 288q18 31 57 23q14 -4 26 -12t9 -21q-23 -135 -66 -289l-6 -54q-4 -35 -8 -69t-15 -155t-34 -311q-80 -674 20 -940
q29 -82 81 -132t117 5q119 102 302 503q117 260 215 543z" />
    <glyph glyph-name="Aacute" unicode="&#xc1;" horiz-adv-x="2111" 
d="M1130 2066q18 -29 -14 -42t-117 -52q-86 -39 -133 -52t-61 6q-14 18 -8 32q5 14 37 24t120 48t120 52q32 13 56 -16zM2089 643q6 19 32 23t45 -8t11 -33q-182 -528 -360 -834q-92 -156 -162 -223q-102 -94 -187 -70q-133 37 -190 232q-47 154 -51 370q-6 27 0 121t5 121
t9 121t12 120q1 25 13 119t14 121q-16 -31 -20 -55q-143 -406 -162 -449q-72 -182 -142 -301q-187 -337 -421 -358q-156 -16 -277 82q-193 162 -172 561q14 332 135 674q115 340 354 588q166 172 326 219q205 59 385 -49q12 -9 11 -23t-13 -22q-29 -23 -63 0
q-155 92 -309 27t-267 -192t-196 -265q-137 -229 -220 -578q-91 -423 -28 -678q66 -241 245 -276q158 -33 312 147q128 150 228 409q46 114 164 443q118 330 177 537q24 225 64 288q18 31 57 23q14 -4 26 -12t9 -21q-23 -135 -66 -289l-6 -54q-4 -35 -8 -69t-15 -155
t-34 -311q-80 -674 20 -940q29 -82 81 -132t117 5q119 102 302 503q117 260 215 543z" />
    <glyph glyph-name="Acircumflex" unicode="&#xc2;" horiz-adv-x="2111" 
d="M1239 2060q14 -4 19 -18t-3 -27q-23 -27 -71 -9t-97 65q-6 -5 -23 -21q-56 -54 -112 -70q-43 -8 -55 23t31 41q16 2 58 42t66 56t46 14q23 -2 35 -16q45 -57 106 -80zM2089 643q6 19 32 23t45 -8t11 -33q-182 -528 -360 -834q-92 -156 -162 -223q-102 -94 -187 -70
q-133 37 -190 232q-47 154 -51 370q-6 27 0 121t5 121t9 121t12 120q1 25 13 119t14 121q-16 -31 -20 -55q-143 -406 -162 -449q-72 -182 -142 -301q-187 -337 -421 -358q-156 -16 -277 82q-193 162 -172 561q14 332 135 674q115 340 354 588q166 172 326 219
q205 59 385 -49q12 -9 11 -23t-13 -22q-29 -23 -63 0q-155 92 -309 27t-267 -192t-196 -265q-137 -229 -220 -578q-91 -423 -28 -678q66 -241 245 -276q158 -33 312 147q128 150 228 409q46 114 164 443q118 330 177 537q24 225 64 288q18 31 57 23q14 -4 26 -12t9 -21
q-23 -135 -66 -289l-6 -54q-4 -35 -8 -69t-15 -155t-34 -311q-80 -674 20 -940q29 -82 81 -132t117 5q119 102 302 503q117 260 215 543z" />
    <glyph glyph-name="Atilde" unicode="&#xc3;" horiz-adv-x="2111" 
d="M981 2011q0 -2 -6 -14q-12 -29 -57 -21q-39 12 -31 41q35 82 145 51l74 -18q2 -2 6 -2h4q8 8 10 12q14 29 60 21q39 -12 28 -39q-39 -78 -149 -51q-8 2 -34 10t-40 10h-10zM2089 643q6 19 32 23t45 -8t11 -33q-182 -528 -360 -834q-92 -156 -162 -223q-102 -94 -187 -70
q-133 37 -190 232q-47 154 -51 370q-6 27 0 121t5 121t9 121t12 120q1 25 13 119t14 121q-16 -31 -20 -55q-143 -406 -162 -449q-72 -182 -142 -301q-187 -337 -421 -358q-156 -16 -277 82q-193 162 -172 561q14 332 135 674q115 340 354 588q166 172 326 219
q205 59 385 -49q12 -9 11 -23t-13 -22q-29 -23 -63 0q-155 92 -309 27t-267 -192t-196 -265q-137 -229 -220 -578q-91 -423 -28 -678q66 -241 245 -276q158 -33 312 147q128 150 228 409q46 114 164 443q118 330 177 537q24 225 64 288q18 31 57 23q14 -4 26 -12t9 -21
q-23 -135 -66 -289l-6 -54q-4 -35 -8 -69t-15 -155t-34 -311q-80 -674 20 -940q29 -82 81 -132t117 5q119 102 302 503q117 260 215 543z" />
    <glyph glyph-name="Adieresis" unicode="&#xc4;" horiz-adv-x="2111" 
d="M1141 2040q33 8 52 -12t7 -54q-20 -38 -60 -18t-32 46t33 38zM938 1946q-39 0 -50 28t4 47q15 21 55 17t40 -33q-4 -59 -49 -59zM2089 643q6 19 32 23t45 -8t11 -33q-182 -528 -360 -834q-92 -156 -162 -223q-102 -94 -187 -70q-133 37 -190 232q-47 154 -51 370
q-6 27 0 121t5 121t9 121t12 120q1 25 13 119t14 121q-16 -31 -20 -55q-143 -406 -162 -449q-72 -182 -142 -301q-187 -337 -421 -358q-156 -16 -277 82q-193 162 -172 561q14 332 135 674q115 340 354 588q166 172 326 219q205 59 385 -49q12 -9 11 -23t-13 -22
q-29 -23 -63 0q-155 92 -309 27t-267 -192t-196 -265q-137 -229 -220 -578q-91 -423 -28 -678q66 -241 245 -276q158 -33 312 147q128 150 228 409q46 114 164 443q118 330 177 537q24 225 64 288q18 31 57 23q14 -4 26 -12t9 -21q-23 -135 -66 -289l-6 -54q-4 -35 -8 -69
t-15 -155t-34 -311q-80 -674 20 -940q29 -82 81 -132t117 5q119 102 302 503q117 260 215 543z" />
    <glyph glyph-name="Aring" unicode="&#xc5;" horiz-adv-x="2111" 
d="M1040 1954q40 32 47 86q4 29 -20 24h-6q1 -16 -19 -27t-43 -7l-8 -9q-35 -35 -11 -69t60 2zM991 2101q7 11 37 25t90 0q62 -14 60 -66t-30 -97q-28 -44 -67 -69q-49 -34 -105 -26t-86 58t8 110t93 65zM2089 643q6 19 32 23t45 -8t11 -33q-182 -528 -360 -834
q-92 -156 -162 -223q-102 -94 -187 -70q-133 37 -190 232q-47 154 -51 370q-6 27 0 121t5 121t9 121t12 120q1 25 13 119t14 121q-16 -31 -20 -55q-143 -406 -162 -449q-72 -182 -142 -301q-187 -337 -421 -358q-156 -16 -277 82q-193 162 -172 561q14 332 135 674
q115 340 354 588q166 172 326 219q205 59 385 -49q12 -9 11 -23t-13 -22q-29 -23 -63 0q-155 92 -309 27t-267 -192t-196 -265q-137 -229 -220 -578q-91 -423 -28 -678q66 -241 245 -276q158 -33 312 147q128 150 228 409q46 114 164 443q118 330 177 537q24 225 64 288
q18 31 57 23q14 -4 26 -12t9 -21q-23 -135 -66 -289l-6 -54q-4 -35 -8 -69t-15 -155t-34 -311q-80 -674 20 -940q29 -82 81 -132t117 5q119 102 302 503q117 260 215 543z" />
    <glyph glyph-name="AE" unicode="&#xc6;" horiz-adv-x="3262" 
d="M1982 -559q2 0 7 2h6q91 0 211 57q227 102 471 361q290 309 577 801q16 29 66 16q37 -10 22 -37q-319 -545 -624 -854q-475 -479 -865 -399q-86 16 -155 61q-133 69 -195 256q-37 125 -41 338t54 725l-19 -55q-100 -292 -168 -462q-67 -169 -147 -309t-186 -234
q-106 -93 -226 -103q-160 -16 -274 82q-190 158 -174 561q14 332 134 673t355 588q371 376 711 170q29 -21 0 -47q-31 -18 -66 2q-157 93 -311 27t-272 -202q-117 -136 -189 -257q-139 -231 -217 -575q-43 -186 -53 -370t24 -308q39 -156 131 -225q112 -80 221 -50
q109 29 203 146q88 104 162 258t217 554t191 574q34 242 65 291q18 31 58 23q35 -12 32 -33q-20 -121 -63 -289q-15 -106 -25 -220t-33 -308t-30 -299q2 4 5 11q55 128 218 306q139 148 263 216t228 108l9 4q-72 2 -150 22q-223 53 -307 183q-63 91 -50 203q24 209 185 378
q113 121 289 202t311 48q86 -22 140 -94t54 -172t-66 -201q-67 -102 -165 -172q-29 -20 -59 2t-4 45q155 106 200 286q22 89 -30 169q-82 133 -299 47q-158 -59 -266 -168q-174 -172 -195 -360q-10 -104 33 -178t167 -126t298 -55q74 0 157 2q37 1 42 -27t-31 -36
q-70 -8 -96 -16t-105 -36q-217 -74 -391 -227q-139 -129 -226 -254q-119 -170 -149 -413q-18 -174 1 -276q20 -102 40 -139q20 -38 22 -43t6 -10l16 -20q11 -15 45 -46q33 -31 54 -41l31 -16q36 -18 47 -18q24 -10 70 -16h10l20 -2h43z" />
    <glyph glyph-name="Ccedilla" unicode="&#xc7;" horiz-adv-x="1703" 
d="M645 -930q0 16 -4 86t-1 88t27 26q25 8 47 0q22 -10 20 -28t3 -149q123 -33 146 -111q25 -80 -43 -152t-150 -67q-98 10 -121 133q-2 18 20 26q23 8 47 1q24 -8 30 -45t30 -49h13l2 2h4q37 21 55 43q41 51 23 96q-18 51 -115 67q-33 10 -33 33zM252 208q0 -272 57 -431
q109 -298 324 -312q92 -6 222 69q71 42 149 123q361 373 692 994q14 27 59 19t29 -37q-256 -479 -537 -826q-96 -119 -168 -193q-71 -74 -191 -142q-120 -70 -241 -70q-188 -2 -308 148t-157 353q-38 201 -22 455t76 463t176 447q110 213 196 341q86 127 218 255
q220 213 407 143q74 -29 119 -92q80 -117 51 -297q-31 -164 -121 -302t-188 -161q-44 -8 -56 22t31 40h2l12 6h2q46 28 80 73q61 76 101 174q102 246 16 396q-37 66 -92 86q-142 52 -365 -203q-207 -229 -385 -627q-102 -231 -145 -437q-43 -205 -43 -477z" />
    <glyph glyph-name="Egrave" unicode="&#xc8;" horiz-adv-x="1929" 
d="M1307 2214q14 -4 19 -18t-9 -32t-60 -5q-111 39 -213 86q-41 18 -12 44t60 11q104 -49 215 -86zM933 999q3 0 5 2q-88 8 -150 23q-221 57 -307 184q-63 90 -50 202q23 201 187 380q121 127 277 195q186 88 322 53q88 -20 141 -91t53 -173q1 -102 -65 -203
q-66 -102 -166 -172q-27 -20 -64 4q-27 20 0 43q156 106 200 287q22 90 -30 170q-82 129 -297 47q-162 -63 -268 -170q-174 -170 -195 -359q-10 -102 32 -177t161 -126q150 -66 463 -53q23 0 36 -13q13 -14 7 -30q-5 -16 -23 -20t-49 -8q-126 -20 -289 -101
q-163 -80 -262 -172q-132 -117 -238 -271t-137 -394q-31 -239 25 -380t158 -198q190 -106 429 1q517 231 1064 1168q18 29 65 19q41 -10 25 -37q-319 -545 -625 -854q-473 -481 -866 -402q-156 33 -254 144q-127 139 -122 399t99 463q68 139 215 295q127 139 285 227
q90 53 205 96q0 2 3 2z" />
    <glyph glyph-name="Eacute" unicode="&#xc9;" horiz-adv-x="1929" 
d="M1186 2271q18 -29 -14 -42t-118 -52t-132 -52q-48 -13 -62 6q-29 38 35 58q63 20 227 95q39 16 64 -13zM933 999q3 0 5 2q-88 8 -150 23q-221 57 -307 184q-63 90 -50 202q23 201 187 380q121 127 277 195q186 88 322 53q88 -20 141 -91t53 -173q1 -102 -65 -203
q-66 -102 -166 -172q-27 -20 -64 4q-27 20 0 43q156 106 200 287q22 90 -30 170q-82 129 -297 47q-162 -63 -268 -170q-174 -170 -195 -359q-10 -102 32 -177t161 -126q150 -66 463 -53q23 0 36 -13q13 -14 7 -30q-5 -16 -23 -20t-49 -8q-126 -20 -289 -101
q-163 -80 -262 -172q-132 -117 -238 -271t-137 -394q-31 -239 25 -380t158 -198q190 -106 429 1q517 231 1064 1168q18 29 65 19q41 -10 25 -37q-319 -545 -625 -854q-473 -481 -866 -402q-156 33 -254 144q-127 139 -122 399t99 463q68 139 215 295q127 139 285 227
q90 53 205 96q0 2 3 2z" />
    <glyph glyph-name="Ecircumflex" unicode="&#xca;" horiz-adv-x="1929" 
d="M1282 2238q14 -4 20 -18t-11 -34t-65 -2t-96 65q-6 -5 -23 -21q-59 -57 -107 -67q-48 -9 -60 21t31 40q16 2 58 42q41 40 65 56t47 15q23 -2 35 -17q45 -57 106 -80zM933 999q3 0 5 2q-88 8 -150 23q-221 57 -307 184q-63 90 -50 202q23 201 187 380q121 127 277 195
q186 88 322 53q88 -20 141 -91t53 -173q1 -102 -65 -203q-66 -102 -166 -172q-27 -20 -64 4q-27 20 0 43q156 106 200 287q22 90 -30 170q-82 129 -297 47q-162 -63 -268 -170q-174 -170 -195 -359q-10 -102 32 -177t161 -126q150 -66 463 -53q23 0 36 -13q13 -14 7 -30
q-5 -16 -23 -20t-49 -8q-126 -20 -289 -101q-163 -80 -262 -172q-132 -117 -238 -271t-137 -394q-31 -239 25 -380t158 -198q190 -106 429 1q517 231 1064 1168q18 29 65 19q41 -10 25 -37q-319 -545 -625 -854q-473 -481 -866 -402q-156 33 -254 144q-127 139 -122 399
t99 463q68 139 215 295q127 139 285 227q90 53 205 96q0 2 3 2z" />
    <glyph glyph-name="Edieresis" unicode="&#xcb;" horiz-adv-x="1929" 
d="M1233 2243q33 7 52 -13t7 -53q-20 -39 -60 -19t-32 47q8 26 33 38zM1079 2208q-4 -60 -46 -60t-53 28t4 48t55 16t40 -32zM933 999q3 0 5 2q-88 8 -150 23q-221 57 -307 184q-63 90 -50 202q23 201 187 380q121 127 277 195q186 88 322 53q88 -20 141 -91t53 -173
q1 -102 -65 -203q-66 -102 -166 -172q-27 -20 -64 4q-27 20 0 43q156 106 200 287q22 90 -30 170q-82 129 -297 47q-162 -63 -268 -170q-174 -170 -195 -359q-10 -102 32 -177t161 -126q150 -66 463 -53q23 0 36 -13q13 -14 7 -30q-5 -16 -23 -20t-49 -8q-126 -20 -289 -101
q-163 -80 -262 -172q-132 -117 -238 -271t-137 -394q-31 -239 25 -380t158 -198q190 -106 429 1q517 231 1064 1168q18 29 65 19q41 -10 25 -37q-319 -545 -625 -854q-473 -481 -866 -402q-156 33 -254 144q-127 139 -122 399t99 463q68 139 215 295q127 139 285 227
q90 53 205 96q0 2 3 2z" />
    <glyph glyph-name="Igrave" unicode="&#xcc;" horiz-adv-x="1396" 
d="M885 2357q14 -4 19 -18t-9 -32t-59 -5q-111 39 -213 86q-41 18 -13 44t60 11q104 -49 215 -86zM983 1153q20 159 19 359t-47 365t-142 222q-57 35 -128 25t-120 -58q-102 -92 -168 -299q-193 -649 39 -1159q53 -115 125 -211q5 5 33 21q137 92 313 151q51 281 76 584z
M815 143q49 180 78 349q-158 -66 -285 -156q94 -111 207 -193zM541 -496q156 221 256 564q-145 96 -252 219q-113 -93 -211 -233t-144 -310q-44 -170 -24 -283q35 -157 156 -137q102 18 219 180zM1454 631q0 -25 -47 -31q-217 -14 -385 -63q-10 -5 -31 -11
q-36 -214 -96 -436q61 -35 109 -56t18 -47q-30 -25 -70 -7t-78 40q-72 -238 -169 -411q-244 -444 -502 -332q-219 96 -88 526q94 317 379 545q-111 145 -172 305q-206 524 -5 1159q72 207 181 299q63 53 148 71t165 -5q135 -45 205 -203q53 -126 67 -292q34 -400 -77 -1082
q186 54 403 66q17 0 31 -10t14 -25z" />
    <glyph glyph-name="Iacute" unicode="&#xcd;" horiz-adv-x="1396" 
d="M844 2431q18 -29 -14 -42t-118 -52t-132 -52q-48 -13 -62 6t-8 32t38 23t120 49q88 37 120 51t56 -15zM983 1153q20 159 19 359t-47 365t-142 222q-57 35 -128 25t-120 -58q-102 -92 -168 -299q-193 -649 39 -1159q53 -115 125 -211q5 5 33 21q137 92 313 151
q51 281 76 584zM815 143q49 180 78 349q-158 -66 -285 -156q94 -111 207 -193zM541 -496q156 221 256 564q-145 96 -252 219q-113 -93 -211 -233t-144 -310q-44 -170 -24 -283q35 -157 156 -137q102 18 219 180zM1454 631q0 -25 -47 -31q-217 -14 -385 -63q-10 -5 -31 -11
q-36 -214 -96 -436q61 -35 109 -56t18 -47q-30 -25 -70 -7t-78 40q-72 -238 -169 -411q-244 -444 -502 -332q-219 96 -88 526q94 317 379 545q-111 145 -172 305q-206 524 -5 1159q72 207 181 299q63 53 148 71t165 -5q135 -45 205 -203q53 -126 67 -292q34 -400 -77 -1082
q186 54 403 66q17 0 31 -10t14 -25z" />
    <glyph glyph-name="Icircumflex" unicode="&#xce;" horiz-adv-x="1396" 
d="M868 2396q14 -4 20 -18t-3 -27q-23 -27 -72 -9t-96 64q-6 -4 -44 -39t-91 -51q-43 -8 -58 25q-10 29 33 39q16 2 58 42q41 40 65 56t47 14t35 -16q45 -57 106 -80zM983 1153q20 159 19 359t-47 365t-142 222q-57 35 -128 25t-120 -58q-102 -92 -168 -299
q-193 -649 39 -1159q53 -115 125 -211q5 5 33 21q137 92 313 151q51 281 76 584zM815 143q49 180 78 349q-158 -66 -285 -156q94 -111 207 -193zM541 -496q156 221 256 564q-145 96 -252 219q-113 -93 -211 -233t-144 -310q-44 -170 -24 -283q35 -157 156 -137
q102 18 219 180zM1454 631q0 -25 -47 -31q-217 -14 -385 -63q-10 -5 -31 -11q-36 -214 -96 -436q61 -35 109 -56t18 -47q-30 -25 -70 -7t-78 40q-72 -238 -169 -411q-244 -444 -502 -332q-219 96 -88 526q94 317 379 545q-111 145 -172 305q-206 524 -5 1159q72 207 181 299
q63 53 148 71t165 -5q135 -45 205 -203q53 -126 67 -292q34 -400 -77 -1082q186 54 403 66q17 0 31 -10t14 -25z" />
    <glyph glyph-name="Idieresis" unicode="&#xcf;" horiz-adv-x="1396" 
d="M825 2357q33 8 53 -12t7 -53q-20 -39 -62 -19q-39 20 -28 54q5 18 30 30zM623 2263q-39 0 -50 28t4 48t55 16t40 -33q-4 -59 -49 -59zM983 1153q20 159 19 359t-47 365t-142 222q-57 35 -128 25t-120 -58q-102 -92 -168 -299q-193 -649 39 -1159q53 -115 125 -211
q5 5 33 21q137 92 313 151q51 281 76 584zM815 143q49 180 78 349q-158 -66 -285 -156q94 -111 207 -193zM541 -496q156 221 256 564q-145 96 -252 219q-113 -93 -211 -233t-144 -310q-44 -170 -24 -283q35 -157 156 -137q102 18 219 180zM1454 631q0 -25 -47 -31
q-217 -14 -385 -63q-10 -5 -31 -11q-36 -214 -96 -436q61 -35 109 -56t18 -47q-30 -25 -70 -7t-78 40q-72 -238 -169 -411q-244 -444 -502 -332q-219 96 -88 526q94 317 379 545q-111 145 -172 305q-206 524 -5 1159q72 207 181 299q63 53 148 71t165 -5q135 -45 205 -203
q53 -126 67 -292q34 -400 -77 -1082q186 54 403 66q17 0 31 -10t14 -25z" />
    <glyph glyph-name="Ntilde" unicode="&#xd1;" horiz-adv-x="2183" 
d="M1425 2232q4 0 5 -2q8 9 10 13q14 29 59 20q43 -10 29 -39q-43 -86 -183 -41q-26 8 -40 10h-10l-7 -14q-12 -29 -56 -21t-32 42q35 82 146 51q19 -5 40 -11t28 -7t11 -1zM1466 1905q-4 0 -4 2t-4 2t-4 2h-4q-4 2 -10 2h-2q-16 2 -41 -4q-59 -23 -127 -97
q-66 -76 -128 -179t-147 -326q-162 -439 -233 -737q-70 -298 -90 -386t-41 -329q1 -15 -17 -25t-39 -6q-37 4 -36 33q8 141 65 649q42 350 64 634q35 457 -70 691q-34 75 -76 108l-2 3l-6 4q-2 0 -10 4h-2q-2 2 -6 2h-7q-14 0 -22 -8h-2q-11 0 -35 -27l-31 -31
q-29 -37 -55 -84q-121 -221 -139 -475q-12 -201 55 -268q0 -2 9 -9t19 -8q11 -1 20 -3q8 -3 20 -14t6 -26q-10 -27 -58 -22q-76 13 -114 73t-47 144q-18 164 45 387q83 289 219 395q86 62 173 28q111 -44 178 -274q42 -155 42 -262v-140q0 -72 -14 -232t-17 -176l-12 -123
q80 267 172 513t164 363q129 211 250 275q51 32 117 30t114 -39q66 -45 109 -167q102 -313 28 -1131q-85 -935 39 -1059h4q12 0 19 2h4l18 10l19 13q61 53 124 197q107 243 204 638q8 41 19 85t16 74q6 30 10 42q6 33 53 31q41 -6 39 -33q-2 -2 -2 -4q-114 -557 -246 -844
q-76 -162 -136 -217t-106 -55l-12 -2l-29 -2q-37 4 -59 20q-74 47 -91 223q-25 264 13 803q33 373 37 500q12 393 -26 577t-105 250q-7 5 -13 10t-10 5z" />
    <glyph glyph-name="Ograve" unicode="&#xd2;" horiz-adv-x="1933" 
d="M1108 2097q14 -4 19 -18t-9 -32t-59 -5q-111 39 -213 86q-41 18 -12 44t59 11q104 -49 215 -86zM895 -438q233 162 395 573q8 14 10 27q-403 -137 -696 0q-190 84 -323 278q-23 -184 -13 -384t72 -347q82 -190 234 -225t321 78zM190 1014q0 -152 50 -299q6 29 34 121
q137 428 355 649q132 132 275 149q83 10 151 -49q33 -27 -4 -46t-72 7t-89 19q-54 -6 -99 -43q-98 -68 -199 -213q-215 -319 -291 -740q104 -207 281 -317q283 -176 694 -27q10 5 55 23q25 72 76 266t68 322q74 590 -201 876q-138 142 -326 148t-366 -107t-286 -315
t-106 -424zM1987 657q14 -6 20 -18t-4 -25q-270 -268 -590 -407q-174 -505 -481 -709q-156 -102 -344 -82t-289 185q-78 125 -111 336q-43 305 19 628q-66 131 -92 281q-41 225 25 444q68 218 220 374t350 225t394 11t316 -242t148 -400q28 -218 -3 -422t-74 -362t-49 -175
q256 129 481 348q29 28 64 10z" />
    <glyph glyph-name="Oacute" unicode="&#xd3;" horiz-adv-x="1933" 
d="M1069 2236q19 -29 -13 -42t-118 -52t-133 -52t-61 6q-14 18 -9 32q6 14 38 24t120 48q87 38 119 52q32 13 57 -16zM895 -438q233 162 395 573q8 14 10 27q-403 -137 -696 0q-190 84 -323 278q-23 -184 -13 -384t72 -347q82 -190 234 -225t321 78zM190 1014
q0 -152 50 -299q6 29 34 121q137 428 355 649q132 132 275 149q83 10 151 -49q33 -27 -4 -46t-72 7t-89 19q-54 -6 -99 -43q-98 -68 -199 -213q-215 -319 -291 -740q104 -207 281 -317q283 -176 694 -27q10 5 55 23q25 72 76 266t68 322q74 590 -201 876q-138 142 -326 148
t-366 -107t-286 -315t-106 -424zM1987 657q14 -6 20 -18t-4 -25q-270 -268 -590 -407q-174 -505 -481 -709q-156 -102 -344 -82t-289 185q-78 125 -111 336q-43 305 19 628q-66 131 -92 281q-41 225 25 444q68 218 220 374t350 225t394 11t316 -242t148 -400
q28 -218 -3 -422t-74 -362t-49 -175q256 129 481 348q29 28 64 10z" />
    <glyph glyph-name="Ocircumflex" unicode="&#xd4;" horiz-adv-x="1933" 
d="M1085 2126q13 -4 19 -18t-2 -27q-23 -27 -72 -9t-96 64q-6 -4 -24 -20q-63 -58 -108 -68q-46 -10 -61 23q-10 29 33 38q16 2 60 41q41 42 64 58t46 14t35 -16q45 -57 106 -80zM895 -438q233 162 395 573q8 14 10 27q-403 -137 -696 0q-190 84 -323 278q-23 -184 -13 -384
t72 -347q82 -190 234 -225t321 78zM190 1014q0 -152 50 -299q6 29 34 121q137 428 355 649q132 132 275 149q83 10 151 -49q33 -27 -4 -46t-72 7t-89 19q-54 -6 -99 -43q-98 -68 -199 -213q-215 -319 -291 -740q104 -207 281 -317q283 -176 694 -27q10 5 55 23q25 72 76 266
t68 322q74 590 -201 876q-138 142 -326 148t-366 -107t-286 -315t-106 -424zM1987 657q14 -6 20 -18t-4 -25q-270 -268 -590 -407q-174 -505 -481 -709q-156 -102 -344 -82t-289 185q-78 125 -111 336q-43 305 19 628q-66 131 -92 281q-41 225 25 444q68 218 220 374
t350 225t394 11t316 -242t148 -400q28 -218 -3 -422t-74 -362t-49 -175q256 129 481 348q29 28 64 10z" />
    <glyph glyph-name="Otilde" unicode="&#xd5;" horiz-adv-x="1933" 
d="M938 2099q0 -2 -6 -14q-12 -29 -58 -21q-43 8 -30 41q38 88 168 45q42 -12 52 -12q9 0 9 -2q8 8 10 12q14 29 60 21q43 -10 28 -39q-39 -78 -149 -51q-8 2 -34 10t-40 10h-10zM895 -438q233 162 395 573q8 14 10 27q-403 -137 -696 0q-190 84 -323 278q-23 -184 -13 -384
t72 -347q82 -190 234 -225t321 78zM190 1014q0 -152 50 -299q6 29 34 121q137 428 355 649q132 132 275 149q83 10 151 -49q33 -27 -4 -46t-72 7t-89 19q-54 -6 -99 -43q-98 -68 -199 -213q-215 -319 -291 -740q104 -207 281 -317q283 -176 694 -27q10 5 55 23q25 72 76 266
t68 322q74 590 -201 876q-138 142 -326 148t-366 -107t-286 -315t-106 -424zM1987 657q14 -6 20 -18t-4 -25q-270 -268 -590 -407q-174 -505 -481 -709q-156 -102 -344 -82t-289 185q-78 125 -111 336q-43 305 19 628q-66 131 -92 281q-41 225 25 444q68 218 220 374
t350 225t394 11t316 -242t148 -400q28 -218 -3 -422t-74 -362t-49 -175q256 129 481 348q29 28 64 10z" />
    <glyph glyph-name="Odieresis" unicode="&#xd6;" horiz-adv-x="1933" 
d="M1059 2148q33 8 52 -12t7 -53q-20 -39 -61 -19q-39 20 -31 46t33 38zM905 2114q-4 -60 -46 -60t-53 28t4 48t55 16t40 -32zM895 -438q233 162 395 573q8 14 10 27q-403 -137 -696 0q-190 84 -323 278q-23 -184 -13 -384t72 -347q82 -190 234 -225t321 78zM190 1014
q0 -152 50 -299q6 29 34 121q137 428 355 649q132 132 275 149q83 10 151 -49q33 -27 -4 -46t-72 7t-89 19q-54 -6 -99 -43q-98 -68 -199 -213q-215 -319 -291 -740q104 -207 281 -317q283 -176 694 -27q10 5 55 23q25 72 76 266t68 322q74 590 -201 876q-138 142 -326 148
t-366 -107t-286 -315t-106 -424zM1987 657q14 -6 20 -18t-4 -25q-270 -268 -590 -407q-174 -505 -481 -709q-156 -102 -344 -82t-289 185q-78 125 -111 336q-43 305 19 628q-66 131 -92 281q-41 225 25 444q68 218 220 374t350 225t394 11t316 -242t148 -400
q28 -218 -3 -422t-74 -362t-49 -175q256 129 481 348q29 28 64 10z" />
    <glyph glyph-name="multiply" unicode="&#xd7;" horiz-adv-x="1044" 
d="M698 825q31 31 56 11q20 -20 -11 -58q-117 -123 -141 -145q90 -104 160 -174q14 -14 3 -36t-29 -30t-36 4q-78 78 -159 176q-111 -111 -162 -165q-35 -35 -55 -9q-20 18 8 54q27 29 166 168q-80 90 -164 182q-14 16 -5 38q9 23 28 29t36 -6q86 -90 166 -184
q71 69 139 145z" />
    <glyph glyph-name="Oslash" unicode="&#xd8;" horiz-adv-x="1933" 
d="M-37 -729q12 -6 19 -8h2q89 -25 242 182q57 78 88 133q-89 122 -126 359q-43 305 19 628q-66 131 -92 281q-41 225 25 444q68 218 220 374t350 225t384 14q133 -39 229 -130q73 116 135 179q123 123 244 98q40 -11 29 -44q-12 -32 -62 -15q-86 0 -184 -133
q-47 -60 -101 -149q151 -190 185 -468q43 -323 -78 -767q-43 -158 -49 -175q256 129 481 348q29 29 64 10q14 -6 20 -18t-4 -25q-270 -268 -590 -407q-174 -505 -481 -709q-156 -102 -312 -86t-246 99q-4 -6 -7 -13q-260 -414 -482 -264q-29 24 4 46t64 -3q2 -2 8 -6h2z
M682 131q-155 -358 -265 -550q65 -76 152 -95q158 -37 326 76q233 162 395 573q8 14 10 27q-351 -119 -618 -31zM190 1014q0 -152 50 -299q6 29 34 121q137 428 355 649q132 132 275 149q83 10 151 -49q33 -27 -4 -46t-72 7t-89 19q-54 -6 -99 -43q-98 -68 -199 -213
q-215 -319 -291 -740q117 -234 327 -343q77 179 128 306q52 128 116 288t91 221q27 62 116 270t202 393q-4 4 -7 8q-138 142 -326 148t-366 -107t-286 -315t-106 -424zM362 -337q132 243 240 500q-189 84 -321 277q-23 -184 -12 -406q11 -221 93 -371zM1339 1632
q-146 -257 -415 -921q-104 -254 -216 -519q244 -84 568 33q10 5 55 23q25 72 76 266t68 322q63 512 -136 796z" />
    <glyph glyph-name="Ugrave" unicode="&#xd9;" horiz-adv-x="2471" 
d="M1468 1950q14 -4 20 -18t-9 -32q-14 -18 -60 -6q-111 39 -213 86q-41 18 -12 44t59 12q104 -49 215 -86zM1866 -205h6q43 9 74 37q149 112 380 594q94 196 123 246q16 29 66 16q37 -10 22 -37q-49 -86 -128 -251q-166 -347 -273 -484q-152 -206 -301 -183
q-283 39 -217 879q6 100 22 275q-220 -591 -331 -816q-111 -226 -224 -358q-147 -176 -280 -186q-147 -10 -209 203q-92 293 -6 815q44 297 74 427t50 236t20 272q2 275 -124 349q-49 29 -104 4q-121 -58 -205 -278t-92 -375q-8 -203 113 -275q14 -10 13 -23t-13 -22
q-36 -23 -74 5q-4 3 -8 5q-225 162 -47 650q82 225 194 321q66 57 153 63q88 6 168 -54q80 -62 104 -210t9 -296q-14 -148 -57 -357t-47 -231q-128 -708 -33 -1012q35 -106 65 -130q49 -39 95 -7q63 29 127 100q133 139 217 313q120 248 194 438t168 445q94 254 136 363
q20 115 38 168q41 121 125 86q29 -14 21 -37q-43 -100 -92 -230q-14 -82 -43 -342q-33 -346 -40 -492q-7 -145 15 -325t86 -262q40 -40 54 -39q14 2 16 2z" />
    <glyph glyph-name="Uacute" unicode="&#xda;" horiz-adv-x="2471" 
d="M1526 2023q18 -29 -14 -42t-118 -52t-132 -52q-48 -13 -62 6t-8 33t38 23q32 11 120 49t120 51t56 -16zM1866 -205h6q43 9 74 37q149 112 380 594q94 196 123 246q16 29 66 16q37 -10 22 -37q-49 -86 -128 -251q-166 -347 -273 -484q-152 -206 -301 -183
q-283 39 -217 879q6 100 22 275q-220 -591 -331 -816q-111 -226 -224 -358q-147 -176 -280 -186q-147 -10 -209 203q-92 293 -6 815q44 297 74 427t50 236t20 272q2 275 -124 349q-49 29 -104 4q-121 -58 -205 -278t-92 -375q-8 -203 113 -275q14 -10 13 -23t-13 -22
q-36 -23 -74 5q-4 3 -8 5q-225 162 -47 650q82 225 194 321q66 57 153 63q88 6 168 -54q80 -62 104 -210t9 -296q-14 -148 -57 -357t-47 -231q-128 -708 -33 -1012q35 -106 65 -130q49 -39 95 -7q63 29 127 100q133 139 217 313q120 248 194 438t168 445q94 254 136 363
q20 115 38 168q41 121 125 86q29 -14 21 -37q-43 -100 -92 -230q-14 -82 -43 -342q-33 -346 -40 -492q-7 -145 15 -325t86 -262q40 -40 54 -39q14 2 16 2z" />
    <glyph glyph-name="Ucircumflex" unicode="&#xdb;" horiz-adv-x="2471" 
d="M1507 1935q13 -4 19 -18t-2 -27q-23 -26 -72 -8t-96 64q-6 -4 -43 -39t-92 -52q-43 -8 -58 25q-10 29 33 39q16 2 58 42t66 56q24 17 46 15q23 -2 35 -17q45 -57 106 -80zM1866 -205h6q43 9 74 37q149 112 380 594q94 196 123 246q16 29 66 16q37 -10 22 -37
q-49 -86 -128 -251q-166 -347 -273 -484q-152 -206 -301 -183q-283 39 -217 879q6 100 22 275q-220 -591 -331 -816q-111 -226 -224 -358q-147 -176 -280 -186q-147 -10 -209 203q-92 293 -6 815q44 297 74 427t50 236t20 272q2 275 -124 349q-49 29 -104 4
q-121 -58 -205 -278t-92 -375q-8 -203 113 -275q14 -10 13 -23t-13 -22q-36 -23 -74 5q-4 3 -8 5q-225 162 -47 650q82 225 194 321q66 57 153 63q88 6 168 -54q80 -62 104 -210t9 -296q-14 -148 -57 -357t-47 -231q-128 -708 -33 -1012q35 -106 65 -130q49 -39 95 -7
q63 29 127 100q133 139 217 313q120 248 194 438t168 445q94 254 136 363q20 115 38 168q41 121 125 86q29 -14 21 -37q-43 -100 -92 -230q-14 -82 -43 -342q-33 -346 -40 -492q-7 -145 15 -325t86 -262q40 -40 54 -39q14 2 16 2z" />
    <glyph glyph-name="Udieresis" unicode="&#xdc;" horiz-adv-x="2471" 
d="M1450 1917q33 8 52 -12t7 -54q-20 -39 -60 -19t-32 47q8 26 33 38zM1247 1823q-39 0 -53 35q-8 20 7 40t55 16t40 -32q-4 -59 -49 -59zM1866 -205h6q43 9 74 37q149 112 380 594q94 196 123 246q16 29 66 16q37 -10 22 -37q-49 -86 -128 -251q-166 -347 -273 -484
q-152 -206 -301 -183q-283 39 -217 879q6 100 22 275q-220 -591 -331 -816q-111 -226 -224 -358q-147 -176 -280 -186q-147 -10 -209 203q-92 293 -6 815q44 297 74 427t50 236t20 272q2 275 -124 349q-49 29 -104 4q-121 -58 -205 -278t-92 -375q-8 -203 113 -275
q14 -10 13 -23t-13 -22q-36 -23 -74 5q-4 3 -8 5q-225 162 -47 650q82 225 194 321q66 57 153 63q88 6 168 -54q80 -62 104 -210t9 -296q-14 -148 -57 -357t-47 -231q-128 -708 -33 -1012q35 -106 65 -130q49 -39 95 -7q63 29 127 100q133 139 217 313q120 248 194 438
t168 445q94 254 136 363q20 115 38 168q41 121 125 86q29 -14 21 -37q-43 -100 -92 -230q-14 -82 -43 -342q-33 -346 -40 -492q-7 -145 15 -325t86 -262q40 -40 54 -39q14 2 16 2z" />
    <glyph glyph-name="Yacute" unicode="&#xdd;" horiz-adv-x="2078" 
d="M1145 1950q18 -29 -14 -42q-31 -12 -117 -52t-133 -53t-61 7t-9 32q5 14 37 24t120 48t120 52t57 -16zM637 -1589q139 0 261 62q373 190 476 788q28 182 50 395q22 214 24 266t10 200l12 222q-914 -438 -1179 -975q-84 -168 -105 -332q-33 -383 199 -546q113 -80 252 -80
zM688 238h19q2 2 14 5t15 5t10 5q148 64 430 692q236 527 299 626q39 76 91 56q28 -11 29 -42q6 -90 2 -205q0 -305 -28 -915q242 106 510 199q40 16 63 -13q8 -12 2 -25t-20 -18q-322 -113 -559 -221q-5 -114 -11 -208q-6 -93 -11 -196q-14 -307 -71 -690
q-57 -384 -229 -620q-119 -172 -329 -267t-415 -43q-206 52 -317 230q-131 213 -80 502q72 401 457 749q346 316 916 580q16 307 25 618t7 404q-61 -127 -191 -408t-194 -409q-125 -250 -225 -353q-125 -129 -246 -97t-151 206q-27 135 -15 501t-40 571q-21 89 -73 138
t-139 -30q-77 -66 -103 -231t40 -242l4 -5l2 -2q41 -20 12 -44t-59 -11q-82 43 -89 181q-7 139 45 271t148 177q55 25 113 15t103 -50q124 -120 133 -582l-11 -398q0 -71 11 -198q12 -94 34 -139t35 -54t23 -11t14 -4z" />
    <glyph glyph-name="germandbls" unicode="&#xdf;" horiz-adv-x="1161" 
d="M547 70q59 43 95 129t40 174h-4q-172 -63 -221 -109t-57 -99q-8 -52 32 -99q45 -43 115 4zM188 -481q4 0 7 -2h8q0 2 2 2q41 18 71 104t8 182t-91 172q-10 12 -5 25q6 12 32 22t52 -16q82 -90 106 -211t-30 -233q-31 -63 -86 -95q-55 -33 -119 -5q-165 71 -168 692
q-4 721 158 1425q49 197 77 284q72 222 193 261q133 41 207 -43q56 -61 68 -177q23 -213 -111 -476q-6 -10 -50 -83t-62 -114q-45 -94 -30 -166q15 -71 119 -179t156 -194q51 -86 70 -219q297 101 381 180q28 27 63 13q37 -21 17 -45q-84 -80 -254 -146q-68 -27 -203 -71
q4 -147 -56 -251q-127 -221 -304 -161q-72 26 -98 102q-62 179 237 301q36 16 75 29q40 14 54 20q-6 74 -40 164t-105 172q-18 20 -76 78t-86 109q-53 88 -44 164t60 167q8 16 54 94t83 160t56 199q14 133 -13 219q-43 127 -122 96q-61 -22 -101 -104q-87 -175 -180 -655
q-55 -293 -85 -687t-12 -664q18 -269 74 -384q15 -27 31 -43l2 -4l10 -6v-2z" />
    <glyph glyph-name="agrave" unicode="&#xe0;" horiz-adv-x="880" 
d="M371 946q14 -4 19 -18t-9 -32t-59 -5q-111 39 -213 86q-41 18 -13 44t60 11q104 -49 215 -86zM866 662q18 30 60 14t20 -47q-11 -22 -31 -45q-163 -239 -280 -352q-27 -26 -77 -60q-142 -95 -245 10q-63 66 -80 154q0 2 -2 8t-2 10q-103 -154 -186 -159q-84 -5 -120 71
t-15 160q37 154 121 268q110 141 239 68q14 -8 14 -22t-14 -23q-29 -23 -73 6q-51 2 -113 -85t-84 -187q-23 -100 16 -177q10 -14 17 -14q29 12 59 51q90 113 114 171t32 79q14 72 40 152q6 16 30 21t44 -3t17 -26q-18 -100 -43 -166q-20 -115 -2 -185t29 -86q57 -85 91 -73
q50 14 76 37q91 77 136 141q97 116 212 289z" />
    <glyph glyph-name="aacute" unicode="&#xe1;" horiz-adv-x="880" 
d="M360 1014q18 -29 -14 -42t-117 -52q-86 -38 -133 -52t-61 6t-8 32q5 14 37 24t120 48t120 52t56 -16zM866 662q18 30 60 14t20 -47q-11 -22 -31 -45q-163 -239 -280 -352q-27 -26 -77 -60q-142 -95 -245 10q-63 66 -80 154q0 2 -2 8t-2 10q-103 -154 -186 -159
q-84 -5 -120 71t-15 160q37 154 121 268q110 141 239 68q14 -8 14 -22t-14 -23q-29 -23 -73 6q-51 2 -113 -85t-84 -187q-23 -100 16 -177q10 -14 17 -14q29 12 59 51q90 113 114 171t32 79q14 72 40 152q6 16 30 21t44 -3t17 -26q-18 -100 -43 -166q-20 -115 -2 -185
t29 -86q57 -85 91 -73q50 14 76 37q91 77 136 141q97 116 212 289z" />
    <glyph glyph-name="acircumflex" unicode="&#xe2;" horiz-adv-x="880" 
d="M375 1032q14 -4 19 -18t-3 -27q-23 -27 -71 -9t-97 64q-6 -4 -23 -20q-57 -54 -112 -70q-43 -8 -55 23t30 41q16 2 60 41q41 41 65 57t46 14t34 -16q46 -57 107 -80zM866 662q18 30 60 14t20 -47q-11 -22 -31 -45q-163 -239 -280 -352q-27 -26 -77 -60q-142 -95 -245 10
q-63 66 -80 154q0 2 -2 8t-2 10q-103 -154 -186 -159q-84 -5 -120 71t-15 160q37 154 121 268q110 141 239 68q14 -8 14 -22t-14 -23q-29 -23 -73 6q-51 2 -113 -85t-84 -187q-23 -100 16 -177q10 -14 17 -14q29 12 59 51q90 113 114 171t32 79q14 72 40 152q6 16 30 21
t44 -3t17 -26q-18 -100 -43 -166q-20 -115 -2 -185t29 -86q57 -85 91 -73q50 14 76 37q91 77 136 141q97 116 212 289z" />
    <glyph glyph-name="atilde" unicode="&#xe3;" horiz-adv-x="880" 
d="M266 979q4 0 4 -2q9 8 11 12q14 29 59 21q39 -12 29 -39q-39 -78 -150 -51q-8 2 -34 10t-40 10h-9l-7 -14q-12 -29 -57 -21q-39 12 -31 41q35 82 145 51l74 -18h6zM866 662q18 30 60 14t20 -47q-11 -22 -31 -45q-163 -239 -280 -352q-27 -26 -77 -60q-142 -95 -245 10
q-63 66 -80 154q0 2 -2 8t-2 10q-103 -154 -186 -159q-84 -5 -120 71t-15 160q37 154 121 268q110 141 239 68q14 -8 14 -22t-14 -23q-29 -23 -73 6q-51 2 -113 -85t-84 -187q-23 -100 16 -177q10 -14 17 -14q29 12 59 51q90 113 114 171t32 79q14 72 40 152q6 16 30 21
t44 -3t17 -26q-18 -100 -43 -166q-20 -115 -2 -185t29 -86q57 -85 91 -73q50 14 76 37q91 77 136 141q97 116 212 289z" />
    <glyph glyph-name="adieresis" unicode="&#xe4;" horiz-adv-x="880" 
d="M293 975q33 8 52 -12t7 -54q-20 -39 -60 -19t-32 47q8 26 33 38zM90 881q-39 -1 -50 27t4 48t55 16t40 -32q-4 -59 -49 -59zM866 662q18 30 60 14t20 -47q-11 -22 -31 -45q-163 -239 -280 -352q-27 -26 -77 -60q-142 -95 -245 10q-63 66 -80 154q0 2 -2 8t-2 10
q-103 -154 -186 -159q-84 -5 -120 71t-15 160q37 154 121 268q110 141 239 68q14 -8 14 -22t-14 -23q-29 -23 -73 6q-51 2 -113 -85t-84 -187q-23 -100 16 -177q10 -14 17 -14q29 12 59 51q90 113 114 171t32 79q14 72 40 152q6 16 30 21t44 -3t17 -26q-18 -100 -43 -166
q-20 -115 -2 -185t29 -86q57 -85 91 -73q50 14 76 37q91 77 136 141q97 116 212 289z" />
    <glyph glyph-name="aring" unicode="&#xe5;" horiz-adv-x="880" 
d="M201 997q-43 -43 -19 -77t61 3q38 38 46 85q4 29 -21 24h-6q2 -16 -18 -27t-43 -8zM193 1069q5 10 35 24q30 15 91 1t59 -66t-29 -97q-27 -44 -71 -74q-44 -29 -100 -21t-87 58q-30 50 8 110t94 65zM866 662q18 30 60 14t20 -47q-11 -22 -31 -45q-163 -239 -280 -352
q-27 -26 -77 -60q-142 -95 -245 10q-63 66 -80 154q0 2 -2 8t-2 10q-103 -154 -186 -159q-84 -5 -120 71t-15 160q37 154 121 268q110 141 239 68q14 -8 14 -22t-14 -23q-29 -23 -73 6q-51 2 -113 -85t-84 -187q-23 -100 16 -177q10 -14 17 -14q29 12 59 51q90 113 114 171
t32 79q14 72 40 152q6 16 30 21t44 -3t17 -26q-18 -100 -43 -166q-20 -115 -2 -185t29 -86q57 -85 91 -73q50 14 76 37q91 77 136 141q97 116 212 289z" />
    <glyph glyph-name="ae" unicode="&#xe6;" horiz-adv-x="1026" 
d="M225 827h-4q-21 -11 -41 -27t-53 -75q-66 -111 -80 -197t21 -127q2 -8 8 -10h2q26 10 53 45q80 98 125 205q0 48 24 109q27 68 31 73q-44 -33 -75 -2q-6 2 -6 4t-5 2zM586 807q-70 1 -130 -75q-59 -76 -79 -152q16 -4 49 -9q96 -4 152 76t32 137q-16 20 -24 23zM696 807
q0 -2 2 -4q35 -102 -52 -204t-230 -91q-14 2 -47 6q-5 -80 27 -120q46 -58 147 -47q101 12 211 75q164 92 258 229q18 27 58 12t20 -47q-110 -164 -302 -257q-303 -147 -446 -21q-49 44 -57 92t-9 62q-74 -119 -143 -152q-37 -20 -82 -11t-67 46q-43 68 -31 145
q29 147 102 253t159 118q46 6 91 -27q20 -16 6 -39q16 20 54 15q37 -6 32 -33l-6 -31q108 108 211 93q55 -7 92 -58l2 -2v-2z" />
    <glyph glyph-name="ccedilla" unicode="&#xe7;" horiz-adv-x="864" 
d="M172 -115q0 16 -4 86t-1 88q3 19 27 27t46 -1t20 -27t4 -150q123 -33 146 -111q25 -81 -43 -153t-150 -66q-98 10 -121 133q-2 19 20 27t46 0t30 -45q5 -37 31 -49h13l2 2h4q37 21 55 43q41 51 22 96q-18 51 -114 68q-33 10 -33 32zM842 655q22 27 62 10t16 -42
q-184 -203 -453 -332q-223 -106 -375 -62q-100 29 -140 102t-26 167q23 176 162 278q80 61 138 56q58 -6 90 -34t34 -67t-33 -44t-47 28t-26 47t-66 -12q-141 -90 -162 -261q-16 -208 172 -208q150 3 344 127t310 247z" />
    <glyph glyph-name="egrave" unicode="&#xe8;" horiz-adv-x="759" 
d="M379 1065q14 -4 19 -18t-9 -32t-59 -5q-111 39 -213 86q-41 18 -13 43t60 12q104 -49 215 -86zM74 608q54 0 108 23q92 33 129 82q16 23 8 55t-32 41q-11 6 -42 -3q-32 -9 -59 -34q-78 -66 -116 -164h4zM733 645q19 27 59 13t19 -46q-76 -116 -197 -202
q-243 -173 -478 -145q-58 7 -103 41t-64 91q-55 168 76 340q55 76 136 121t160 3q79 -43 75 -111t-78 -121q-139 -92 -287 -86q-20 -139 49 -191q35 -29 93 -28q131 -2 291 93t249 228z" />
    <glyph glyph-name="eacute" unicode="&#xe9;" horiz-adv-x="759" 
d="M385 1079q19 -29 -13 -42t-118 -52t-133 -52t-61 6q-29 38 29 56q43 14 233 97q38 16 63 -13zM74 608q54 0 108 23q92 33 129 82q16 23 8 55t-32 41q-11 6 -42 -3q-32 -9 -59 -34q-78 -66 -116 -164h4zM733 645q19 27 59 13t19 -46q-76 -116 -197 -202
q-243 -173 -478 -145q-58 7 -103 41t-64 91q-55 168 76 340q55 76 136 121t160 3q79 -43 75 -111t-78 -121q-139 -92 -287 -86q-20 -139 49 -191q35 -29 93 -28q131 -2 291 93t249 228z" />
    <glyph glyph-name="ecircumflex" unicode="&#xea;" horiz-adv-x="759" 
d="M403 1092q13 -4 19 -18t-2 -27q-23 -27 -72 -9t-96 64q-6 -4 -24 -20q-60 -57 -107 -68q-47 -10 -62 22q-10 29 33 39q16 2 60 41q41 42 64 58t46 14t35 -17q45 -56 106 -79zM74 608q54 0 108 23q92 33 129 82q16 23 8 55t-32 41q-11 6 -42 -3q-32 -9 -59 -34
q-78 -66 -116 -164h4zM733 645q19 27 59 13t19 -46q-76 -116 -197 -202q-243 -173 -478 -145q-58 7 -103 41t-64 91q-55 168 76 340q55 76 136 121t160 3q79 -43 75 -111t-78 -121q-139 -92 -287 -86q-20 -139 49 -191q35 -29 93 -28q131 -2 291 93t249 228z" />
    <glyph glyph-name="edieresis" unicode="&#xeb;" horiz-adv-x="759" 
d="M354 1079q32 8 52 -12t8 -53q-20 -39 -62 -19q-39 20 -28 54q5 18 30 30zM152 985q-38 0 -50 28t3 48t55 16t41 -33q-4 -59 -49 -59zM74 608q54 0 108 23q92 33 129 82q16 23 8 55t-32 41q-11 6 -42 -3q-32 -9 -59 -34q-78 -66 -116 -164h4zM733 645q19 27 59 13t19 -46
q-76 -116 -197 -202q-243 -173 -478 -145q-58 7 -103 41t-64 91q-55 168 76 340q55 76 136 121t160 3q79 -43 75 -111t-78 -121q-139 -92 -287 -86q-20 -139 49 -191q35 -29 93 -28q131 -2 291 93t249 228z" />
    <glyph glyph-name="igrave" unicode="&#xec;" 
d="M197 913q14 -4 19 -18t-9 -32t-60 -5q-111 39 -213 86q-41 18 -12 44t60 11q104 -49 215 -86zM127 174h12q22 0 85 44q64 44 132 117t154 169t116 130t70 16t14 -44q-24 -28 -44 -48t-118 -135q-99 -115 -232 -235q-30 -26 -85 -54t-102 -25q-137 10 -156 219
q-12 170 17 342q2 20 26 28t46 -1t20 -29q-28 -150 -20 -286t32 -172t33 -36z" />
    <glyph glyph-name="iacute" unicode="&#xed;" 
d="M283 1022q18 -29 -14 -42q-31 -13 -117 -52q-86 -38 -134 -52t-61 6q-14 20 -8 32q5 14 37 24t120 48t120 52t57 -16zM127 174h12q22 0 85 44q64 44 132 117t154 169t116 130t70 16t14 -44q-24 -28 -44 -48t-118 -135q-99 -115 -232 -235q-30 -26 -85 -54t-102 -25
q-137 10 -156 219q-12 170 17 342q2 20 26 28t46 -1t20 -29q-28 -150 -20 -286t32 -172t33 -36z" />
    <glyph glyph-name="icircumflex" unicode="&#xee;" 
d="M215 950q14 -4 19 -18t-3 -27q-23 -27 -71 -9t-97 65q-6 -5 -23 -21q-56 -54 -112 -70q-43 -8 -55 23t31 41q16 2 58 42t66 56t46 14q23 -2 35 -16q45 -57 106 -80zM127 174h12q22 0 85 44q64 44 132 117t154 169t116 130t70 16t14 -44q-24 -28 -44 -48t-118 -135
q-99 -115 -232 -235q-30 -26 -85 -54t-102 -25q-137 10 -156 219q-12 170 17 342q2 20 26 28t46 -1t20 -29q-28 -150 -20 -286t32 -172t33 -36z" />
    <glyph glyph-name="idieresis" unicode="&#xef;" 
d="M152 928q33 8 52 -12t7 -54q-20 -38 -60 -18t-32 46t33 38zM-51 834q-39 0 -50 28t4 47q15 21 55 17t40 -33q-4 -59 -49 -59zM127 174h12q22 0 85 44q64 44 132 117t154 169t116 130t70 16t14 -44q-24 -28 -44 -48t-118 -135q-99 -115 -232 -235q-30 -26 -85 -54
t-102 -25q-137 10 -156 219q-12 170 17 342q2 20 26 28t46 -1t20 -29q-28 -150 -20 -286t32 -172t33 -36z" />
    <glyph glyph-name="ntilde" unicode="&#xf1;" horiz-adv-x="935" 
d="M446 1061q4 0 5 -2q8 8 10 12q14 29 59 21q39 -12 29 -39q-45 -91 -183 -41q-26 8 -40 10h-10l-7 -14q-12 -29 -57 -21q-39 12 -31 41q35 82 146 51l73 -18h6zM586 354q43 0 114 54q123 94 211 235q17 27 59 11t21 -46q-76 -119 -188 -215q-152 -129 -260 -98
q-143 41 -123 301l4 47q4 47 4 84t-8 37q-74 -20 -126 -112q-20 -34 -28 -48q-18 -29 -67 -146q-50 -117 -78 -152q-28 -36 -46 -53q-19 -17 -48 -13t-35 24q-14 70 -10 217l2 111v43q-4 8 0 18q10 14 22 19q39 16 64 -13q6 -8 6 -55l-2 -104q0 -16 -1 -51t-1 -54
q39 84 47 103q86 186 141 246t111 75q111 33 139 -37q14 -36 4 -166t3 -185t54 -75q4 -2 15 -2z" />
    <glyph glyph-name="ograve" unicode="&#xf2;" 
d="M283 897q14 -4 19 -18t-9 -32t-60 -5q-111 39 -213 86q-41 18 -12 44t60 11q104 -49 215 -86zM717 631q10 -29 -33 -39q-231 -61 -395 -10q8 -51 4 -121q-4 -186 -92 -258q-51 -45 -131 -35t-115 70q-61 98 -19 283t130 202q45 8 57 -23q8 -29 -29 -38q-14 0 -45 -78
t-38 -156t7 -131q35 -92 103 -59q18 8 31 28q33 45 43 119q23 150 -13 252q-10 6 -28 25q-20 12 -20 36t36 26q35 3 49 -17l39 -33q8 -4 30 -18t64 -21q127 -29 310 20q14 4 32 -3t23 -21z" />
    <glyph glyph-name="oacute" unicode="&#xf3;" 
d="M289 975q18 -29 -14 -42q-31 -13 -117 -52t-133 -53t-61 6t-9 33t37 23t120 49q88 37 120 51t57 -15zM717 631q10 -29 -33 -39q-231 -61 -395 -10q8 -51 4 -121q-4 -186 -92 -258q-51 -45 -131 -35t-115 70q-61 98 -19 283t130 202q45 8 57 -23q8 -29 -29 -38
q-14 0 -45 -78t-38 -156t7 -131q35 -92 103 -59q18 8 31 28q33 45 43 119q23 150 -13 252q-10 6 -28 25q-20 12 -20 36t36 26q35 3 49 -17l39 -33q8 -4 30 -18t64 -21q127 -29 310 20q14 4 32 -3t23 -21z" />
    <glyph glyph-name="ocircumflex" unicode="&#xf4;" 
d="M295 948q14 -4 19 -18t-3 -27q-23 -27 -71 -9t-97 64q-6 -4 -23 -20q-57 -54 -112 -70q-43 -8 -55 23t31 41q16 2 58 42t66 56t46 14q23 -2 34 -16q46 -57 107 -80zM717 631q10 -29 -33 -39q-231 -61 -395 -10q8 -51 4 -121q-4 -186 -92 -258q-51 -45 -131 -35t-115 70
q-61 98 -19 283t130 202q45 8 57 -23q8 -29 -29 -38q-14 0 -45 -78t-38 -156t7 -131q35 -92 103 -59q18 8 31 28q33 45 43 119q23 150 -13 252q-10 6 -28 25q-20 12 -20 36t36 26q35 3 49 -17l39 -33q8 -4 30 -18t64 -21q127 -29 310 20q14 4 32 -3t23 -21z" />
    <glyph glyph-name="otilde" unicode="&#xf5;" 
d="M70 897q0 -1 -3 -7t-4 -7q-12 -29 -57 -21q-39 12 -31 41q35 82 146 51l74 -18q2 -2 6 -2h4q8 8 10 12q14 29 59 21q39 -12 29 -39q-39 -78 -149 -51q-8 2 -34 10t-40 10h-10zM717 631q10 -29 -33 -39q-231 -61 -395 -10q8 -51 4 -121q-4 -186 -92 -258q-51 -45 -131 -35
t-115 70q-61 98 -19 283t130 202q45 8 57 -23q8 -29 -29 -38q-14 0 -45 -78t-38 -156t7 -131q35 -92 103 -59q18 8 31 28q33 45 43 119q23 150 -13 252q-10 6 -28 25q-20 12 -20 36t36 26q35 3 49 -17l39 -33q8 -4 30 -18t64 -21q127 -29 310 20q14 4 32 -3t23 -21z" />
    <glyph glyph-name="odieresis" unicode="&#xf6;" 
d="M223 958q33 8 52 -12t8 -53q-20 -39 -62 -19q-39 20 -28 54q5 18 30 30zM70 924q-4 -60 -46 -60t-54 28q-11 28 4 48q16 20 56 16t40 -32zM717 631q10 -29 -33 -39q-231 -61 -395 -10q8 -51 4 -121q-4 -186 -92 -258q-51 -45 -131 -35t-115 70q-61 98 -19 283t130 202
q45 8 57 -23q8 -29 -29 -38q-14 0 -45 -78t-38 -156t7 -131q35 -92 103 -59q18 8 31 28q33 45 43 119q23 150 -13 252q-10 6 -28 25q-20 12 -20 36t36 26q35 3 49 -17l39 -33q8 -4 30 -18t64 -21q127 -29 310 20q14 4 32 -3t23 -21z" />
    <glyph glyph-name="divide" unicode="&#xf7;" horiz-adv-x="1705" 
d="M1593 2095q90 -236 -51 -516q-106 -219 -399 -555q-51 -59 -159 -180q-334 -374 -513 -606q-344 -445 -231 -695q12 -29 -27 -37q-47 -8 -61 23q-100 221 122 575q168 266 622 761q287 316 439 534q274 399 170 682q-10 29 29 37q45 8 59 -23zM1343 524q-8 0 -12 -2
q-84 -32 -139 -140t-37 -200q25 -129 119 -80q72 39 119 134q18 37 23 89t-7 83q-17 35 -47 39q-61 8 -60 35q1 15 16 25q16 9 30 7q118 -12 148 -89t-3 -173q-49 -145 -158 -203q-59 -35 -133 -21t-112 74q-72 115 24 301q98 184 229 187q15 0 31 -9t17 -24q-2 -33 -48 -33
zM616 1491q0 27 48 33q74 2 122 -40t45 -114q-5 -134 -107 -242t-200 -79q-59 16 -95 69t-32 115q10 154 111 289q110 141 242 61q32 -25 -4 -45t-62 0q-27 27 -86 -37q-57 -68 -92 -176q-45 -158 37 -211q18 -18 52 6q118 82 142 244q6 47 -11 70t-42 23q-68 3 -68 34z" />
    <glyph glyph-name="oslash" unicode="&#xf8;" 
d="M23 285l120 384q-10 10 -9 29t27 25q8 25 13 39q20 41 49 33t13 -58q-5 -13 -12 -35l34 -28q8 -4 30 -18t64 -21q127 -29 310 20q14 4 32 -3t23 -21q10 -29 -33 -39q-231 -61 -395 -10q8 -51 4 -121q-4 -186 -92 -258q-53 -46 -146 -33q-19 -58 -51 -46q-31 11 -16 56
q3 7 5 16q-23 16 -38 42q-61 98 -19 283t130 202q45 8 57 -23q8 -29 -29 -38q-14 0 -45 -78t-39 -167q-8 -90 13 -132zM75 231q95 -23 125 180q14 100 -8 192q-57 -182 -117 -372z" />
    <glyph glyph-name="ugrave" unicode="&#xf9;" horiz-adv-x="897" 
d="M340 946q14 -4 19 -18t-9 -32t-59 -5q-111 39 -213 86q-41 18 -12 44t59 11q104 -49 215 -86zM47 478q0 -77 16 -111q23 -53 80 24q39 39 93 149t88 152q12 14 36 16t39 -14q14 -10 15 -24q0 -402 36 -495t103 -13q37 37 96 123t219 356q16 31 66 18q37 -10 22 -36
q-134 -225 -204 -335t-136 -177q-97 -98 -210 -19q-76 53 -82 424q-14 -27 -48 -80q-94 -162 -188 -164q-180 -4 -119 377q2 12 6 31l5 25q6 33 50 29t42 -32q-25 -147 -25 -224z" />
    <glyph glyph-name="uacute" unicode="&#xfa;" horiz-adv-x="897" 
d="M365 1028q18 -29 -14 -42t-118 -52t-133 -52t-61 6q-14 18 -8 32q5 14 37 24t120 48t120 52t57 -16zM47 478q0 -77 16 -111q23 -53 80 24q39 39 93 149t88 152q12 14 36 16t39 -14q14 -10 15 -24q0 -402 36 -495t103 -13q37 37 96 123t219 356q16 31 66 18q37 -10 22 -36
q-134 -225 -204 -335t-136 -177q-97 -98 -210 -19q-76 53 -82 424q-14 -27 -48 -80q-94 -162 -188 -164q-180 -4 -119 377q2 12 6 31l5 25q6 33 50 29t42 -32q-25 -147 -25 -224z" />
    <glyph glyph-name="ucircumflex" unicode="&#xfb;" horiz-adv-x="897" 
d="M381 1006q14 -4 19 -18t-3 -27q-23 -27 -71 -9t-97 64q-6 -4 -23 -20q-59 -57 -107 -68q-48 -10 -60 20t31 41q16 2 58 42q42 41 66 57t46 14q23 -2 34 -17q46 -56 107 -79zM47 478q0 -77 16 -111q23 -53 80 24q39 39 93 149t88 152q12 14 36 16t39 -14q14 -10 15 -24
q0 -402 36 -495t103 -13q37 37 96 123t219 356q16 31 66 18q37 -10 22 -36q-134 -225 -204 -335t-136 -177q-97 -98 -210 -19q-76 53 -82 424q-14 -27 -48 -80q-94 -162 -188 -164q-180 -4 -119 377q2 12 6 31l5 25q6 33 50 29t42 -32q-25 -147 -25 -224z" />
    <glyph glyph-name="udieresis" unicode="&#xfc;" horiz-adv-x="897" 
d="M299 993q33 8 52 -12t7 -53q-20 -39 -61 -19q-39 20 -31 46t33 38zM96 899q-39 0 -50 28t4 48t55 16t40 -33q-4 -59 -49 -59zM47 478q0 -77 16 -111q23 -53 80 24q39 39 93 149t88 152q12 14 36 16t39 -14q14 -10 15 -24q0 -402 36 -495t103 -13q37 37 96 123t219 356
q16 31 66 18q37 -10 22 -36q-134 -225 -204 -335t-136 -177q-97 -98 -210 -19q-76 53 -82 424q-14 -27 -48 -80q-94 -162 -188 -164q-180 -4 -119 377q2 12 6 31l5 25q6 33 50 29t42 -32q-25 -147 -25 -224z" />
    <glyph glyph-name="yacute" unicode="&#xfd;" horiz-adv-x="1169" 
d="M393 1073q19 -29 -13 -42t-118 -52t-133 -52t-61 6t-9 33q6 14 38 23q32 10 120 48q87 37 119 51t57 -15zM229 -1376q51 166 89 460t50 460q11 165 23 431q-88 -72 -168 -143q-362 -326 -502 -645q-81 -179 -103 -401t48 -371q46 -103 142 -159t190 3q147 94 231 365z
M477 741l12 -495v-99q55 41 165 121t232 170t269 215q27 23 64 0q31 -23 0 -47q-128 -111 -391 -303q-264 -192 -343 -252q0 -8 -15 -318q-15 -311 -50 -579t-58 -383q-55 -258 -155 -411q-74 -106 -175 -160q-100 -54 -210 -22t-178 113t-91 179q-56 228 -16 412
q61 379 344 715q188 227 514 477q0 53 3 131t-9 344q-35 -71 -71 -125t-108 -88q-71 -34 -142 -6q-100 35 -97 186q2 57 15 176q2 20 25 29q25 8 47 -1t20 -30q-8 -76 -12 -151q-6 -129 38 -150q76 -35 162 109q78 143 121 254q10 28 50 24t40 -35z" />
    <glyph glyph-name="ydieresis" unicode="&#xff;" horiz-adv-x="1169" 
d="M309 1018q33 8 52 -12t8 -54q-21 -38 -61 -18t-29 53q5 19 30 31zM106 924q-39 0 -50 28t4 47q16 21 56 17t40 -33q-4 -59 -50 -59zM229 -1376q51 166 89 460t50 460q11 165 23 431q-88 -72 -168 -143q-362 -326 -502 -645q-81 -179 -103 -401t48 -371q46 -103 142 -159
t190 3q147 94 231 365zM477 741l12 -495v-99q55 41 165 121t232 170t269 215q27 23 64 0q31 -23 0 -47q-128 -111 -391 -303q-264 -192 -343 -252q0 -8 -15 -318q-15 -311 -50 -579t-58 -383q-55 -258 -155 -411q-74 -106 -175 -160q-100 -54 -210 -22t-178 113t-91 179
q-56 228 -16 412q61 379 344 715q188 227 514 477q0 53 3 131t-9 344q-35 -71 -71 -125t-108 -88q-71 -34 -142 -6q-100 35 -97 186q2 57 15 176q2 20 25 29q25 8 47 -1t20 -30q-8 -76 -12 -151q-6 -129 38 -150q76 -35 162 109q78 143 121 254q10 28 50 24t40 -35z" />
    <glyph glyph-name="Cacute" unicode="&#x106;" horiz-adv-x="1703" 
d="M1276 2265q18 -29 -14 -42t-118 -52t-132 -52q-48 -13 -62 6t-8 33t38 23q32 10 120 48q88 37 120 51t56 -15zM252 208q0 -272 57 -431q109 -298 324 -312q92 -6 222 69q71 42 149 123q361 373 692 994q14 27 59 19t29 -37q-256 -479 -537 -826q-96 -119 -168 -193
q-71 -74 -191 -142q-120 -70 -241 -70q-188 -2 -308 148t-157 353q-38 201 -22 455t76 463t176 447q110 213 196 341q86 127 218 255q220 213 407 143q74 -29 119 -92q80 -117 51 -297q-31 -164 -121 -302t-188 -161q-44 -8 -56 22t31 40h2l12 6h2q46 28 80 73
q61 76 101 174q102 246 16 396q-37 66 -92 86q-142 52 -365 -203q-207 -229 -385 -627q-102 -231 -145 -437q-43 -205 -43 -477z" />
    <glyph glyph-name="cacute" unicode="&#x107;" horiz-adv-x="864" 
d="M356 1067q18 -29 -14 -42t-117 -52q-86 -39 -133 -52t-61 6t-8 32q5 13 37 23t120 49q88 37 120 51t56 -15zM842 655q22 27 62 10t16 -42q-184 -203 -453 -332q-223 -106 -375 -62q-100 29 -140 102t-26 167q23 176 162 278q80 61 138 56q58 -6 90 -34t34 -67t-33 -44
t-47 28t-26 47t-66 -12q-141 -90 -162 -261q-16 -208 172 -208q150 3 344 127t310 247z" />
    <glyph glyph-name="Ccaron" unicode="&#x10c;" horiz-adv-x="1703" 
d="M989 2243q-14 4 -20 17q-5 13 11 32q16 18 64 2t97 -64q88 80 133 91t57 -21t-31 -41q-14 -4 -59 -43q-73 -73 -105 -71q-31 3 -40 18q-46 55 -107 80zM252 208q0 -272 57 -431q109 -298 324 -312q92 -6 222 69q71 42 149 123q361 373 692 994q14 27 59 19t29 -37
q-256 -479 -537 -826q-96 -119 -168 -193q-71 -74 -191 -142q-120 -70 -241 -70q-188 -2 -308 148t-157 353q-38 201 -22 455t76 463t176 447q110 213 196 341q86 127 218 255q220 213 407 143q74 -29 119 -92q80 -117 51 -297q-31 -164 -121 -302t-188 -161q-44 -8 -56 22
t31 40h2l12 6h2q46 28 80 73q61 76 101 174q102 246 16 396q-37 66 -92 86q-142 52 -365 -203q-207 -229 -385 -627q-102 -231 -145 -437q-43 -205 -43 -477z" />
    <glyph glyph-name="ccaron" unicode="&#x10d;" horiz-adv-x="864" 
d="M27 1012q-15 4 -21 17t10 32t65 3q48 -16 97 -65q88 79 133 91t57 -20t-30 -42q-14 -4 -59 -43q-68 -72 -112 -70q-24 2 -34 17q-45 55 -106 80zM842 655q22 27 62 10t16 -42q-184 -203 -453 -332q-223 -106 -375 -62q-100 29 -140 102t-26 167q23 176 162 278
q80 61 138 56q58 -6 90 -34t34 -67t-33 -44t-47 28t-26 47t-66 -12q-141 -90 -162 -261q-16 -208 172 -208q150 3 344 127t310 247z" />
    <glyph glyph-name="Dcaron" unicode="&#x10e;" horiz-adv-x="1886" 
d="M870 2066q-14 4 -20 18t10 32t65 2q48 -16 97 -64q88 80 133 91t57 -21t-30 -41q-14 -4 -60 -43q-73 -73 -104 -71q-31 3 -41 18q-46 54 -107 79zM1081 -176q154 279 217 655q-302 -105 -504 -255t-290 -316q-133 -254 -29 -365q72 -82 163 -80t181 64q151 98 262 297z
M162 436l-2 56q-9 246 37 723q20 216 28 329q0 20 24 28q25 8 47 0q22 -9 21 -30q-25 -340 -49 -557q110 307 280 517q169 210 300 294q199 127 356 27q282 -179 236 -910q-16 -225 -33 -329q245 70 491 78q16 2 32 -8t16 -25q-2 -31 -48 -31q-216 -9 -501 -88
q-43 -276 -127 -490q-195 -506 -520 -604q-102 -33 -212 1t-159 116q-88 145 29 377q166 328 649 547q125 57 254 96l18 147q59 538 -21 810q-48 163 -120 230q-106 98 -223 38q-137 -63 -306 -273q-239 -287 -353 -697q-54 -191 -54 -319q2 -19 3 -47t-22 -36t-47 1t-24 29
z" />
    <glyph glyph-name="Ecaron" unicode="&#x11a;" horiz-adv-x="1929" 
d="M967 2273q-15 3 -21 17t10 32t65 3q48 -16 97 -64q159 145 193 68q10 -29 -33 -39q-14 -4 -59 -43q-73 -73 -105 -71q-31 3 -41 17q-45 55 -106 80zM933 999q3 0 5 2q-88 8 -150 23q-221 57 -307 184q-63 90 -50 202q23 201 187 380q121 127 277 195q186 88 322 53
q88 -20 141 -91t53 -173q1 -102 -65 -203q-66 -102 -166 -172q-27 -20 -64 4q-27 20 0 43q156 106 200 287q22 90 -30 170q-82 129 -297 47q-162 -63 -268 -170q-174 -170 -195 -359q-10 -102 32 -177t161 -126q150 -66 463 -53q23 0 36 -13q13 -14 7 -30q-5 -16 -23 -20
t-49 -8q-126 -20 -289 -101q-163 -80 -262 -172q-132 -117 -238 -271t-137 -394q-31 -239 25 -380t158 -198q190 -106 429 1q517 231 1064 1168q18 29 65 19q41 -10 25 -37q-319 -545 -625 -854q-473 -481 -866 -402q-156 33 -254 144q-127 139 -122 399t99 463
q68 139 215 295q127 139 285 227q90 53 205 96q0 2 3 2z" />
    <glyph glyph-name="ecaron" unicode="&#x11b;" horiz-adv-x="759" 
d="M88 1051q-14 4 -20 17t10 32q16 18 64 2t98 -64q88 80 133 91t57 -21t-31 -41q-14 -4 -59 -43q-72 -72 -104 -70t-41 17q-46 55 -107 80zM74 608q54 0 108 23q92 33 129 82q16 23 8 55t-32 41q-11 6 -42 -3q-32 -9 -59 -34q-78 -66 -116 -164h4zM733 645q19 27 59 13
t19 -46q-76 -116 -197 -202q-243 -173 -478 -145q-58 7 -103 41t-64 91q-55 168 76 340q55 76 136 121t160 3q79 -43 75 -111t-78 -121q-139 -92 -287 -86q-20 -139 49 -191q35 -29 93 -28q131 -2 291 93t249 228z" />
    <glyph glyph-name="Lacute" unicode="&#x139;" horiz-adv-x="1519" 
d="M1708 2372q18 -29 -14 -42q-32 -12 -117 -52q-86 -40 -133 -53q-48 -13 -62 6t-8 33t38 23q32 11 120 49t120 52t56 -16zM621 -362q124 229 206 534q-16 4 -26 6q-207 60 -388 -64t-258 -339t27 -338q78 -82 168 -68t162 103q53 70 109 166zM1196 1341q199 41 366 210
t175 331q3 106 -55 146t-138 -5q-141 -76 -231 -288q-58 -134 -117 -394zM1087 1262l3 6q-139 4 -252 75q-12 9 -12 23t14 23q29 23 65 0q86 -57 197 -58q41 193 86 326q76 217 186 332q100 100 224 121q67 11 126 -23q55 -29 81 -86q47 -102 -1 -238q-63 -167 -238 -313
t-384 -176q-167 -770 -248 -1063q111 -34 440 -173q330 -140 467 -190q283 -95 385 -74q33 7 43 11t18 6t27 21q27 20 62 0t4 -48q-84 -72 -232 -56t-317 74q-168 58 -479 190t-437 173q-91 -308 -187 -487q-78 -161 -150 -235t-109 -91q-77 -36 -126 -35q-51 1 -107 16
t-112 69t-77 126q-51 176 70 396q80 152 210 247q218 159 519 87q37 129 139 574t102 450z" />
    <glyph glyph-name="lacute" unicode="&#x13a;" horiz-adv-x="831" 
d="M645 2185q19 -29 -13 -42t-118 -52t-133 -52t-61 6q-29 38 29 56q43 14 233 97q38 16 63 -13zM309 1632q-195 -338 -227 -862q-4 -78 -8 -119q154 74 278 202t203 286q145 289 125 536q-12 96 -47 142q-82 117 -215 -33q-64 -72 -109 -152zM803 633q14 29 61 20
q39 -12 27 -39q-188 -348 -361 -503q-253 -217 -418 -44q-170 175 -126 635q28 553 202 891q111 213 224 291q68 51 154 46t141 -72q86 -104 61 -320q-16 -142 -88 -336t-236 -368t-374 -261q-8 -363 131 -483q119 -102 321 125q146 160 281 418z" />
    <glyph glyph-name="Lcaron" unicode="&#x13d;" horiz-adv-x="1519" 
d="M1391 2344q-5 13 11 32q16 18 64 2t97 -64q88 80 133 91t57 -21t-31 -41q-14 -4 -59 -43q-69 -74 -112 -70q-23 2 -51 37t-66 49t-43 28zM621 -362q124 229 206 534q-16 4 -26 6q-207 60 -388 -64t-258 -339t27 -338q78 -82 168 -68t162 103q53 70 109 166zM1196 1341
q199 41 366 210t175 331q3 106 -55 146t-138 -5q-141 -76 -231 -288q-58 -134 -117 -394zM1087 1262l3 6q-139 4 -252 75q-12 9 -12 23t14 23q29 23 65 0q86 -57 197 -58q41 193 86 326q76 217 186 332q100 100 224 121q67 11 126 -23q55 -29 81 -86q47 -102 -1 -238
q-63 -167 -238 -313t-384 -176q-167 -770 -248 -1063q111 -34 440 -173q330 -140 467 -190q283 -95 385 -74q33 7 43 11t18 6t27 21q27 20 62 0t4 -48q-84 -72 -232 -56t-317 74q-168 58 -479 190t-437 173q-91 -308 -187 -487q-78 -161 -150 -235t-109 -91
q-77 -36 -126 -35q-51 1 -107 16t-112 69t-77 126q-51 176 70 396q80 152 210 247q218 159 519 87q37 129 139 574t102 450z" />
    <glyph glyph-name="Nacute" unicode="&#x143;" horiz-adv-x="2183" 
d="M1427 2241q19 -29 -13 -43t-118 -52q-86 -39 -133 -52t-61 6q-14 18 -8 32t38 24t119 48t119 52t57 -15zM1466 1905q-4 0 -4 2t-4 2t-4 2h-4q-4 2 -10 2h-2q-16 2 -41 -4q-59 -23 -127 -97q-66 -76 -128 -179t-147 -326q-162 -439 -233 -737q-70 -298 -90 -386t-41 -329
q1 -15 -17 -25t-39 -6q-37 4 -36 33q8 141 65 649q42 350 64 634q35 457 -70 691q-34 75 -76 108l-2 3l-6 4q-2 0 -10 4h-2q-2 2 -6 2h-7q-14 0 -22 -8h-2q-11 0 -35 -27l-31 -31q-29 -37 -55 -84q-121 -221 -139 -475q-12 -201 55 -268q0 -2 9 -9t19 -8q11 -1 20 -3
q8 -3 20 -14t6 -26q-10 -27 -58 -22q-76 13 -114 73t-47 144q-18 164 45 387q83 289 219 395q86 62 173 28q111 -44 178 -274q42 -155 42 -262v-140q0 -72 -14 -232t-17 -176l-12 -123q80 267 172 513t164 363q129 211 250 275q51 32 117 30t114 -39q66 -45 109 -167
q102 -313 28 -1131q-85 -935 39 -1059h4q12 0 19 2h4l18 10l19 13q61 53 124 197q107 243 204 638q8 41 19 85t16 74q6 30 10 42q6 33 53 31q41 -6 39 -33q-2 -2 -2 -4q-114 -557 -246 -844q-76 -162 -136 -217t-106 -55l-12 -2l-29 -2q-37 4 -59 20q-74 47 -91 223
q-25 264 13 803q33 373 37 500q12 393 -26 577t-105 250q-7 5 -13 10t-10 5z" />
    <glyph glyph-name="nacute" unicode="&#x144;" horiz-adv-x="935" 
d="M449 1057q18 -29 -14 -42t-118 -52t-133 -53t-61 6t-8 33q5 13 37 23t120 49q88 37 120 51t57 -15zM586 354q43 0 114 54q123 94 211 235q17 27 59 11t21 -46q-76 -119 -188 -215q-152 -129 -260 -98q-143 41 -123 301l4 47q4 47 4 84t-8 37q-74 -20 -126 -112
q-20 -34 -28 -48q-18 -29 -67 -146q-50 -117 -78 -152q-28 -36 -46 -53q-19 -17 -48 -13t-35 24q-14 70 -10 217l2 111v43q-4 8 0 18q10 14 22 19q39 16 64 -13q6 -8 6 -55l-2 -104q0 -16 -1 -51t-1 -54q39 84 47 103q86 186 141 246t111 75q111 33 139 -37q14 -36 4 -166
t3 -185t54 -75q4 -2 15 -2z" />
    <glyph glyph-name="Ncaron" unicode="&#x147;" horiz-adv-x="2183" 
d="M967 2157q-15 4 -21 17t10 32q16 18 65 2q48 -16 97 -64q159 145 193 68q10 -29 -33 -39q-14 -4 -54 -40q-40 -35 -66 -55t-51 -18q-24 2 -34 17q-45 55 -106 80zM1466 1905q-4 0 -4 2t-4 2t-4 2h-4q-4 2 -10 2h-2q-16 2 -41 -4q-59 -23 -127 -97q-66 -76 -128 -179
t-147 -326q-162 -439 -233 -737q-70 -298 -90 -386t-41 -329q1 -15 -17 -25t-39 -6q-37 4 -36 33q8 141 65 649q42 350 64 634q35 457 -70 691q-34 75 -76 108l-2 3l-6 4q-2 0 -10 4h-2q-2 2 -6 2h-7q-14 0 -22 -8h-2q-11 0 -35 -27l-31 -31q-29 -37 -55 -84
q-121 -221 -139 -475q-12 -201 55 -268q0 -2 9 -9t19 -8q11 -1 20 -3q8 -3 20 -14t6 -26q-10 -27 -58 -22q-76 13 -114 73t-47 144q-18 164 45 387q83 289 219 395q86 62 173 28q111 -44 178 -274q42 -155 42 -262v-140q0 -72 -14 -232t-17 -176l-12 -123q80 267 172 513
t164 363q129 211 250 275q51 32 117 30t114 -39q66 -45 109 -167q102 -313 28 -1131q-85 -935 39 -1059h4q12 0 19 2h4l18 10l19 13q61 53 124 197q107 243 204 638q8 41 19 85t16 74q6 30 10 42q6 33 53 31q41 -6 39 -33q-2 -2 -2 -4q-114 -557 -246 -844
q-76 -162 -136 -217t-106 -55l-12 -2l-29 -2q-37 4 -59 20q-74 47 -91 223q-25 264 13 803q33 373 37 500q12 393 -26 577t-105 250q-7 5 -13 10t-10 5z" />
    <glyph glyph-name="ncaron" unicode="&#x148;" horiz-adv-x="935" 
d="M184 1026q-14 4 -20 17t10 32t64 3t98 -64q88 80 133 91t57 -21t-30 -42q-14 -4 -54 -40t-68 -55q-26 -19 -50 -17t-33 16q-46 55 -107 80zM586 354q43 0 114 54q123 94 211 235q17 27 59 11t21 -46q-76 -119 -188 -215q-152 -129 -260 -98q-143 41 -123 301l4 47
q4 47 4 84t-8 37q-74 -20 -126 -112q-20 -34 -28 -48q-18 -29 -67 -146q-50 -117 -78 -152q-28 -36 -46 -53q-19 -17 -48 -13t-35 24q-14 70 -10 217l2 111v43q-4 8 0 18q10 14 22 19q39 16 64 -13q6 -8 6 -55l-2 -104q0 -16 -1 -51t-1 -54q39 84 47 103q86 186 141 246
t111 75q111 33 139 -37q14 -36 4 -166t3 -185t54 -75q4 -2 15 -2z" />
    <glyph glyph-name="ohungarumlaut" unicode="&#x151;" 
d="M297 989q17 -3 -22 -69q-40 -66 -45 -88t-52 -15q-33 8 -31 27q14 41 43 92q23 51 50 61q37 12 57 -8zM0 834q25 76 78 147q18 27 65 16q31 -6 19 -22q-51 -70 -78 -141q-8 -27 -46 -21t-38 21zM717 631q10 -29 -33 -39q-231 -61 -395 -10q8 -51 4 -121q-4 -186 -92 -258
q-51 -45 -131 -35t-115 70q-61 98 -19 283t130 202q45 8 57 -23q8 -29 -29 -38q-14 0 -45 -78t-38 -156t7 -131q35 -92 103 -59q18 8 31 28q33 45 43 119q23 150 -13 252q-10 6 -28 25q-20 12 -20 36t36 26q35 3 49 -17l39 -33q8 -4 30 -18t64 -21q127 -29 310 20
q14 4 32 -3t23 -21z" />
    <glyph glyph-name="OE" unicode="&#x152;" horiz-adv-x="3274" 
d="M1163 -282q240 190 396 655q-375 -223 -687 -105q-203 80 -366 291q0 2 -2 2q-44 -370 24 -622q51 -203 164 -287q74 -54 160 -58q148 -8 311 124zM1151 1690h-23q-55 0 -149 -76q-152 -128 -280 -394t-175 -536q72 -127 191 -233q383 -331 876 30q185 622 82 1013
q-102 390 -381 466q-184 53 -367 -27q-183 -79 -321 -247t-181 -394q-44 -226 26 -442q8 -20 12 -33q2 10 37 137q137 428 356 652q83 87 202 134q118 47 224 -36q33 -27 -5 -45q-37 -18 -55 -4t-24 16l-6 6h-4q-8 6 -17 9h-2l-2 2h-2q-12 0 -12 2zM1966 -573h55q7 2 59 8
t152 49q227 102 471 360q291 312 578 801q16 29 65 19q37 -10 23 -37q-319 -545 -625 -854q-473 -481 -864 -402q-154 33 -256 144q-129 143 -121 419q0 45 6 95q-45 -84 -86 -144q-113 -166 -269 -268q-156 -101 -342 -81q-188 20 -288 185q-82 131 -110 334
q-41 297 16 621q-80 145 -104 299q-35 221 35 439q71 218 223 372t349 223q199 69 395 11t316 -242t150 -418q41 -305 -82 -782q92 83 127 118q197 200 469 301l2 2q-73 7 -143 25q-223 53 -307 182q-63 90 -51 202q24 205 186 380q113 121 276 197q190 84 324 51
q86 -20 139 -91t54 -173q0 -102 -66 -203q-66 -102 -164 -172q-29 -18 -63 3t-1 44q157 111 200 287q22 90 -30 170q-82 129 -299 47q-158 -59 -266 -168q-176 -176 -194 -361q-11 -104 31 -177t161 -126q156 -66 463 -53q37 2 42 -28t-32 -36q-81 -10 -181 -46
q-246 -88 -411 -232q-135 -125 -225 -256q-119 -168 -149 -409t30 -398q2 -6 9 -19t13 -25q5 -12 14 -26q8 -14 16 -21l38 -40v-2h2l54 -42q21 -13 73 -36q8 0 13 -4l30 -8q21 0 39 -6h11q6 -2 20 -2z" />
    <glyph glyph-name="oe" unicode="&#x153;" horiz-adv-x="923" 
d="M543 745h-6q-29 0 -41 -6q-76 -34 -111 -121h2q19 4 29 10t18 9l21 12q33 25 88 88v8zM975 655q14 -4 20 -18t-4 -27q-113 -117 -221 -176q-209 -117 -360 -86q-59 10 -95 43q-25 -47 -67 -84t-121 -27q-80 10 -117 70q-59 98 -16 284t129 202q43 10 54 -20t-27 -42
q-9 -6 -13 -14q-9 -10 -29 -54t-28 -102q-31 -170 18 -235q12 -19 37 -23t33 0q40 18 66 85t26 161q-51 35 -65 93t3 91t60 39t64 -33q16 -39 20 -67q18 25 51 51q57 37 120 44t97 -21t21 -68q0 -4 -2 -6q-13 -37 -61 -77t-85 -56q-57 -31 -121 -29q-10 -45 3 -82
q25 -97 206 -49q184 57 340 223q25 24 64 10z" />
    <glyph glyph-name="Racute" unicode="&#x154;" horiz-adv-x="2007" 
d="M1130 2066q18 -29 -14 -42t-117 -52q-86 -39 -133 -52t-61 6q-14 18 -8 32q5 14 37 24t120 48t120 52q32 13 56 -16zM883 354q86 10 176 74q-12 35 -31 61q-63 86 -170 46q-121 -49 -88 -115q16 -34 49 -52t64 -14zM455 506q0 272 2 293q-45 -123 -64 -185
q-86 -272 -121 -610q-20 -225 -8 -354q19 -139 49 -185q4 -8 9 -10q82 84 114 527q19 252 19 524zM547 524q1 -308 -17 -536q-37 -482 -135 -572q-37 -37 -89 -38t-91 90q-47 100 -47 288q-2 313 92 715q43 188 120 381t87 213q32 643 -14 750q-25 -4 -40 8q-29 23 -1 47
q63 41 110 -8q20 -23 35 -90q20 -119 16 -363q0 -43 -4 -133q76 137 142 225q221 303 467 311q170 6 290 -101t146 -275q49 -301 -129 -652q-57 -119 -153 -218t-173 -156q29 -94 60 -332q37 -240 71 -317q94 -209 299 44q167 208 322 590q55 142 78 240q3 20 27 24t44 -8
t16 -37t-16 -61q-84 -289 -258 -586q-106 -174 -188 -256q-191 -198 -350 -66q-38 29 -70 113t-46 177t-30 214t-39 207q-7 -5 -30 -15q-23 -11 -31 -15q-74 -41 -167 -33t-149 78q-59 78 -4 147q30 41 92 66t119 26q155 5 221 -127q14 14 39 35q139 125 207 246t115 285
q115 428 -80 610q-51 51 -123 73t-123 15q-113 -14 -225 -109q-196 -170 -381 -585q-12 -221 -12 -529z" />
    <glyph glyph-name="racute" unicode="&#x155;" horiz-adv-x="952" 
d="M18 1106q-80 -147 -49 -295q14 -55 51 -113q55 70 105 164q121 245 10 303q-25 13 -42 11t-40 -24t-35 -46zM299 446q1 -20 -29 -160t-30 -226t19 -136t67 -46q48 3 132 87q83 84 187 240q55 77 159 245t128 198t62 12t20 -44q-32 -35 -68 -96t-133 -216
q-139 -222 -258 -353q-186 -206 -315 -125q-53 33 -74 92q-35 104 -2 291q4 23 22 107t21 128q-49 18 -84 39q-82 45 -156 147t-88 176q-14 73 -2 150q31 203 141 263q66 37 147 9t105 -102q37 -111 -49 -269t-151 -224q74 -88 147 -119q63 -21 72 -35q10 -13 10 -33z" />
    <glyph glyph-name="Rcaron" unicode="&#x158;" horiz-adv-x="2007" 
d="M907 2097q-14 3 -20 17q-5 14 11 32t64 2t97 -63q88 80 133 91t57 -21t-30 -41q-14 -4 -60 -43q-69 -74 -111 -70q-24 2 -34 16q-46 55 -107 80zM883 354q86 10 176 74q-12 35 -31 61q-63 86 -170 46q-121 -49 -88 -115q16 -34 49 -52t64 -14zM455 506q0 272 2 293
q-45 -123 -64 -185q-86 -272 -121 -610q-20 -225 -8 -354q19 -139 49 -185q4 -8 9 -10q82 84 114 527q19 252 19 524zM547 524q1 -308 -17 -536q-37 -482 -135 -572q-37 -37 -89 -38t-91 90q-47 100 -47 288q-2 313 92 715q43 188 120 381t87 213q32 643 -14 750
q-25 -4 -40 8q-29 23 -1 47q63 41 110 -8q20 -23 35 -90q20 -119 16 -363q0 -43 -4 -133q76 137 142 225q221 303 467 311q170 6 290 -101t146 -275q49 -301 -129 -652q-57 -119 -153 -218t-173 -156q29 -94 60 -332q37 -240 71 -317q94 -209 299 44q167 208 322 590
q55 142 78 240q3 20 27 24t44 -8t16 -37t-16 -61q-84 -289 -258 -586q-106 -174 -188 -256q-191 -198 -350 -66q-38 29 -70 113t-46 177t-30 214t-39 207q-7 -5 -30 -15q-23 -11 -31 -15q-74 -41 -167 -33t-149 78q-59 78 -4 147q30 41 92 66t119 26q155 5 221 -127
q14 14 39 35q139 125 207 246t115 285q115 428 -80 610q-51 51 -123 73t-123 15q-113 -14 -225 -109q-196 -170 -381 -585q-12 -221 -12 -529z" />
    <glyph glyph-name="rcaron" unicode="&#x159;" horiz-adv-x="952" 
d="M-10 1466q-14 4 -20 18t10 32t64 2t97 -64q159 145 193 68q10 -29 -33 -39q-14 -4 -59 -43q-69 -74 -112 -70q-24 2 -34 16q-45 55 -106 80zM18 1106q-80 -147 -49 -295q14 -55 51 -113q55 70 105 164q121 245 10 303q-25 13 -42 11t-40 -24t-35 -46zM299 446
q1 -20 -29 -160t-30 -226t19 -136t67 -46q48 3 132 87q83 84 187 240q55 77 159 245t128 198t62 12t20 -44q-32 -35 -68 -96t-133 -216q-139 -222 -258 -353q-186 -206 -315 -125q-53 33 -74 92q-35 104 -2 291q4 23 22 107t21 128q-49 18 -84 39q-82 45 -156 147t-88 176
q-14 73 -2 150q31 203 141 263q66 37 147 9t105 -102q37 -111 -49 -269t-151 -224q74 -88 147 -119q63 -21 72 -35q10 -13 10 -33z" />
    <glyph glyph-name="Sacute" unicode="&#x15a;" horiz-adv-x="1705" 
d="M1145 2042q18 -29 -14 -42q-31 -13 -117 -52q-86 -38 -133 -52t-61 6t-9 32q5 14 37 24t120 48t120 52t57 -16zM1071 352q-45 86 -70 129q-376 -136 -577 -358q-162 -180 -125 -404q14 -88 58 -168t114 -120q145 -85 321 -55t290 169t118 335t-129 472zM1753 642
q0 -32 -47 -32q-328 -12 -621 -102q1 -4 7 -12t8 -13q305 -553 125 -882q-88 -158 -253 -237q-164 -79 -358 -51t-295 150q-125 152 -118 355q14 375 561 639q117 53 207 84q-25 44 -153 249t-144 235q-83 155 -93 223q-22 143 11 235q70 195 260 285t381 -3
q71 -39 105 -107t18 -147q-31 -158 -162 -221q-33 -14 -58 12t25 52q53 35 83 98t24 136t-75 116t-159 42t-170 -51t-133 -130q-109 -163 -38 -377q5 -14 13 -34t17 -37q8 -18 21 -41q14 -23 27 -46t17 -29q20 -30 41 -65t102 -166t122 -203q303 95 657 107q45 0 45 -32z
" />
    <glyph glyph-name="sacute" unicode="&#x15b;" horiz-adv-x="679" 
d="M301 1061q19 -29 -13 -42t-118 -52t-133 -53t-61 6t-9 33q6 13 38 23t120 49q87 37 119 51t57 -15zM91 -99q-14 62 -21 122q-2 -1 -6 -5t-7 -6q-312 -312 -319 -483q-4 -63 24 -131t82 -98q56 -30 144 22q88 53 113 154t19 172q-5 71 -10 131t-19 122zM649 653
q20 27 64 9q33 -16 10 -48q-48 -65 -226 -211q-179 -147 -347 -303q45 -252 57 -405q25 -272 -113 -389q-80 -68 -176 -79t-178 56q-47 45 -74 116q-64 167 80 376q109 160 307 344q-2 10 -6 33q-11 62 -43 193q-72 289 37 417q63 78 180 57q13 -2 25 -13t6 -26
q-12 -30 -58 -22t-77 -31q-54 -68 -49 -183t59 -325q0 -8 6 -29q89 82 273 237t243 226z" />
    <glyph glyph-name="Scedilla" unicode="&#x15e;" horiz-adv-x="1705" 
d="M698 -1051q0 16 -4 86t-1 88q3 19 27 27t46 -1t20 -27t5 -150q122 -33 145 -111q25 -81 -43 -153t-150 -66q-98 10 -120 133q-2 18 19 27q22 8 46 0t31 -45q6 -37 31 -49h12l2 2h4q37 21 55 43q41 51 23 96q-18 51 -115 68q-33 10 -33 32zM1071 352q-45 86 -70 129
q-376 -136 -577 -358q-162 -180 -125 -404q14 -88 58 -168t114 -120q145 -85 321 -55t290 169t118 335t-129 472zM1753 642q0 -32 -47 -32q-328 -12 -621 -102q1 -4 7 -12t8 -13q305 -553 125 -882q-88 -158 -253 -237q-164 -79 -358 -51t-295 150q-125 152 -118 355
q14 375 561 639q117 53 207 84q-25 44 -153 249t-144 235q-83 155 -93 223q-22 143 11 235q70 195 260 285t381 -3q71 -39 105 -107t18 -147q-31 -158 -162 -221q-33 -14 -58 12t25 52q53 35 83 98t24 136t-75 116t-159 42t-170 -51t-133 -130q-109 -163 -38 -377
q5 -14 13 -34t17 -37q8 -18 21 -41q14 -23 27 -46t17 -29q20 -30 41 -65t102 -166t122 -203q303 95 657 107q45 0 45 -32z" />
    <glyph glyph-name="scedilla" unicode="&#x15f;" horiz-adv-x="679" 
d="M-109 -1110q0 16 -4 86t-1 88t27 26q25 8 47 0q22 -10 20 -28t4 -149q122 -33 145 -111q25 -80 -43 -153t-149 -66q-98 10 -121 133q-2 18 19 27q23 8 47 0t30 -46t31 -49h12l2 2h4q37 21 55 43q41 51 23 97q-18 51 -115 67q-33 10 -33 33zM91 -99q-14 62 -21 122
q-2 -1 -6 -5t-7 -6q-312 -312 -319 -483q-4 -63 24 -131t82 -98q56 -30 144 22q88 53 113 154t19 172q-5 71 -10 131t-19 122zM649 653q20 27 64 9q33 -16 10 -48q-48 -65 -226 -211q-179 -147 -347 -303q45 -252 57 -405q25 -272 -113 -389q-80 -68 -176 -79t-178 56
q-47 45 -74 116q-64 167 80 376q109 160 307 344q-2 10 -6 33q-11 62 -43 193q-72 289 37 417q63 78 180 57q13 -2 25 -13t6 -26q-12 -30 -58 -22t-77 -31q-54 -68 -49 -183t59 -325q0 -8 6 -29q89 82 273 237t243 226z" />
    <glyph glyph-name="Scaron" unicode="&#x160;" horiz-adv-x="1705" 
d="M862 2015q-14 3 -20 17t10 32t64 3q48 -16 98 -64q88 80 133 91q45 12 57 -20t-30 -42q-14 -4 -60 -43q-69 -74 -112 -70q-24 2 -33 16q-46 55 -107 80zM1071 352q-45 86 -70 129q-376 -136 -577 -358q-162 -180 -125 -404q14 -88 58 -168t114 -120q145 -85 321 -55
t290 169t118 335t-129 472zM1753 642q0 -32 -47 -32q-328 -12 -621 -102q1 -4 7 -12t8 -13q305 -553 125 -882q-88 -158 -253 -237q-164 -79 -358 -51t-295 150q-125 152 -118 355q14 375 561 639q117 53 207 84q-25 44 -153 249t-144 235q-83 155 -93 223q-22 143 11 235
q70 195 260 285t381 -3q71 -39 105 -107t18 -147q-31 -158 -162 -221q-33 -14 -58 12t25 52q53 35 83 98t24 136t-75 116t-159 42t-170 -51t-133 -130q-109 -163 -38 -377q5 -14 13 -34t17 -37q8 -18 21 -41q14 -23 27 -46t17 -29q20 -30 41 -65t102 -166t122 -203
q303 95 657 107q45 0 45 -32z" />
    <glyph glyph-name="scaron" unicode="&#x161;" horiz-adv-x="679" 
d="M-23 1059q-14 4 -20 17q-5 13 11 32q16 18 64 2t97 -63q88 80 133 91q46 11 58 -21t-31 -42q-14 -4 -60 -43q-72 -72 -104 -70q-31 3 -41 17q-46 55 -107 80zM91 -99q-14 62 -21 122q-2 -1 -6 -5t-7 -6q-312 -312 -319 -483q-4 -63 24 -131t82 -98q56 -30 144 22
q88 53 113 154t19 172q-5 71 -10 131t-19 122zM649 653q20 27 64 9q33 -16 10 -48q-48 -65 -226 -211q-179 -147 -347 -303q45 -252 57 -405q25 -272 -113 -389q-80 -68 -176 -79t-178 56q-47 45 -74 116q-64 167 80 376q109 160 307 344q-2 10 -6 33q-11 62 -43 193
q-72 289 37 417q63 78 180 57q13 -2 25 -13t6 -26q-12 -30 -58 -22t-77 -31q-54 -68 -49 -183t59 -325q0 -8 6 -29q89 82 273 237t243 226z" />
    <glyph glyph-name="Tcaron" unicode="&#x164;" horiz-adv-x="1808" 
d="M907 2097q-14 3 -20 17q-5 14 11 32t64 2t97 -63q88 80 133 91t57 -21t-30 -41q-14 -4 -60 -43q-69 -74 -111 -70q-24 2 -34 16q-46 55 -107 80zM1153 1722q-39 13 -184 13q-350 8 -566 -66q-135 -45 -201 -130t-30 -216q6 -21 -14 -33t-46 -6t-30 25q-45 177 59 285
q105 108 329 164t554 38q123 -4 579 -70t678 -68q223 -3 345 25t167 91q17 28 59 12t19 -47q-65 -92 -231 -122t-415 -20t-752 80q-281 45 -316 45h-4zM1083 -258h21q8 4 22 4t19 6q18 6 24 12h2q76 41 164 140q211 237 453 737q14 31 63 18q37 -12 27 -38
q-246 -489 -421 -701q-255 -308 -446 -225q-104 47 -163 199q-126 307 18 1269q53 354 66 447q2 20 26 28q25 8 47 -1t19 -29q-14 -115 -57 -391q-43 -277 -64 -457q-43 -372 -14 -654q0 -25 6 -49v-2q0 -4 2 -6l8 -41q21 -87 36 -117l17 -34q0 -6 11 -17q0 -4 37 -53l10 -8
q25 -25 35 -25l16 -8l12 -2q2 0 2 -1t2 -1z" />
    <glyph glyph-name="Uring" unicode="&#x16e;" horiz-adv-x="2471" 
d="M1323 1933q-43 -43 -19 -78t62 4t45 85q4 29 -20 24h-7q2 -16 -18 -28t-43 -7zM1315 2005q5 10 35 24t92 1q61 -14 59 -66t-30 -97q-27 -44 -71 -74q-44 -29 -100 -21t-87 58q-29 50 9 110t93 65zM1866 -205h6q43 9 74 37q149 112 380 594q94 196 123 246q16 29 66 16
q37 -10 22 -37q-49 -86 -128 -251q-166 -347 -273 -484q-152 -206 -301 -183q-283 39 -217 879q6 100 22 275q-220 -591 -331 -816q-111 -226 -224 -358q-147 -176 -280 -186q-147 -10 -209 203q-92 293 -6 815q44 297 74 427t50 236t20 272q2 275 -124 349q-49 29 -104 4
q-121 -58 -205 -278t-92 -375q-8 -203 113 -275q14 -10 13 -23t-13 -22q-36 -23 -74 5q-4 3 -8 5q-225 162 -47 650q82 225 194 321q66 57 153 63q88 6 168 -54q80 -62 104 -210t9 -296q-14 -148 -57 -357t-47 -231q-128 -708 -33 -1012q35 -106 65 -130q49 -39 95 -7
q63 29 127 100q133 139 217 313q120 248 194 438t168 445q94 254 136 363q20 115 38 168q41 121 125 86q29 -14 21 -37q-43 -100 -92 -230q-14 -82 -43 -342q-33 -346 -40 -492q-7 -145 15 -325t86 -262q40 -40 54 -39q14 2 16 2z" />
    <glyph glyph-name="uring" unicode="&#x16f;" horiz-adv-x="897" 
d="M201 997q-43 -43 -19 -77t61 3q38 38 46 85q4 29 -21 24h-6q2 -16 -18 -27t-43 -8zM193 1069q5 10 35 24q30 15 91 1t59 -66t-29 -97q-27 -44 -71 -74q-44 -29 -100 -21t-87 58q-30 50 8 110t94 65zM47 478q0 -77 16 -111q23 -53 80 24q39 39 93 149t88 152q12 14 36 16
t39 -14q14 -10 15 -24q0 -402 36 -495t103 -13q37 37 96 123t219 356q16 31 66 18q37 -10 22 -36q-134 -225 -204 -335t-136 -177q-97 -98 -210 -19q-76 53 -82 424q-14 -27 -48 -80q-94 -162 -188 -164q-180 -4 -119 377q2 12 6 31l5 25q6 33 50 29t42 -32
q-25 -147 -25 -224z" />
    <glyph glyph-name="uhungarumlaut" unicode="&#x171;" horiz-adv-x="897" 
d="M387 981q17 -3 -22 -69q-41 -66 -45 -88t-52 -15q-33 8 -30 27q14 41 43 92q23 51 49 61q37 12 57 -8zM90 825q26 78 78 148q18 27 65 16q31 -6 19 -22q-51 -70 -78 -142q-8 -27 -46 -21t-38 21zM47 478q0 -77 16 -111q23 -53 80 24q39 39 93 149t88 152q12 14 36 16
t39 -14q14 -10 15 -24q0 -402 36 -495t103 -13q37 37 96 123t219 356q16 31 66 18q37 -10 22 -36q-134 -225 -204 -335t-136 -177q-97 -98 -210 -19q-76 53 -82 424q-14 -27 -48 -80q-94 -162 -188 -164q-180 -4 -119 377q2 12 6 31l5 25q6 33 50 29t42 -32
q-25 -147 -25 -224z" />
    <glyph glyph-name="Ydieresis" unicode="&#x178;" horiz-adv-x="2078" 
d="M1124 1913q32 8 52 -12t8 -54q-20 -39 -60 -19t-30 54q5 19 30 31zM922 1819q-39 -1 -50 27t4 48t55 16t40 -32q-4 -59 -49 -59zM637 -1589q139 0 261 62q373 190 476 788q28 182 50 395q22 214 24 266t10 200l12 222q-914 -438 -1179 -975q-84 -168 -105 -332
q-33 -383 199 -546q113 -80 252 -80zM688 238h19q2 2 14 5t15 5t10 5q148 64 430 692q236 527 299 626q39 76 91 56q28 -11 29 -42q6 -90 2 -205q0 -305 -28 -915q242 106 510 199q40 16 63 -13q8 -12 2 -25t-20 -18q-322 -113 -559 -221q-5 -114 -11 -208q-6 -93 -11 -196
q-14 -307 -71 -690q-57 -384 -229 -620q-119 -172 -329 -267t-415 -43q-206 52 -317 230q-131 213 -80 502q72 401 457 749q346 316 916 580q16 307 25 618t7 404q-61 -127 -191 -408t-194 -409q-125 -250 -225 -353q-125 -129 -246 -97t-151 206q-27 135 -15 501t-40 571
q-21 89 -73 138t-139 -30q-77 -66 -103 -231t40 -242l4 -5l2 -2q41 -20 12 -44t-59 -11q-82 43 -89 181q-7 139 45 271t148 177q55 25 113 15t103 -50q124 -120 133 -582l-11 -398q0 -71 11 -198q12 -94 34 -139t35 -54t23 -11t14 -4z" />
    <glyph glyph-name="Zacute" unicode="&#x179;" horiz-adv-x="1998" 
d="M2085 2075q18 -29 -14 -42q-31 -13 -117 -53t-133 -52q-47 -13 -61 6q-14 18 -9 32q6 14 38 24t120 49q87 37 119 51t57 -15zM243 -215q135 -38 488 254q-258 53 -420 -62q-39 -27 -82 -73t-32 -76q10 -33 46 -43zM2136 1618h6q33 4 149 16t249 61q26 9 64 34
q61 40 44 101t-181 7q-165 -53 -331 -219zM615 117q103 0 173 -27q240 215 476 524q70 92 292 401t309 414t105 127q-79 0 -309 38q-229 38 -343 52q-114 12 -169 -4q-86 -31 -119 -129q-6 -18 -32 -22t-45 8t-13 33q37 104 121 147q81 45 193 38t318 -41t282 -45t171 -13
q264 283 531 305q109 12 157 -41t27 -117q-29 -84 -196 -141q-227 -72 -469 -72q-86 -92 -204 -248t-325 -446q-207 -289 -353 -466t-310 -329q96 -33 196 -77q101 -44 405 -226q304 -180 484 -243q276 -96 461 -99q252 -4 430 146q25 25 61 0q33 -20 2 -45
q-322 -272 -890 -92q-227 70 -476 208q-46 27 -206 122t-278 155t-247 100q-127 -109 -254 -188q-215 -133 -340 -105q-55 14 -95 45t-27 74q25 94 109 160q153 119 397 119z" />
    <glyph glyph-name="zacute" unicode="&#x17a;" horiz-adv-x="1040" 
d="M408 1176q18 -28 -14 -42t-118 -53t-133 -52t-61 6t-8 33t38 23q32 11 119 49q88 38 120 52t57 -16zM334 -293q4 180 -10 320q-150 -115 -267 -222q-324 -303 -426 -608q-66 -201 -51 -377q16 -227 152 -317q59 -41 124 -35q118 11 220 119q106 117 157 305
q95 344 101 815zM426 -248q0 -465 -92 -833q-45 -190 -131 -308q-156 -213 -359 -210q-100 2 -181 60t-124 155q-72 154 -47 370q41 352 311 672q174 205 512 457q-4 15 -13 89t-32 120q-20 53 -57 86q-32 21 -50 23q-17 3 -37 19t-3 37q129 129 153 158q106 131 82 191
q-8 20 -22 26q-41 16 -113 -67q-25 -27 -79 -98t-85 -101t-67 -12q-14 4 -20 18q-5 14 5 25q33 33 95 115t116 131q56 51 128 59t116 -53q63 -88 -51 -236q-45 -59 -152 -162q129 -55 166 -297q2 -4 2 -10q31 23 240 170t360 279q27 20 62 0t4 -47q-133 -115 -367 -281
t-286 -205q16 -150 16 -340z" />
    <glyph glyph-name="Zcaron" unicode="&#x17d;" horiz-adv-x="1998" 
d="M1800 2075q-14 4 -20 17t10 32q16 18 64 2t98 -64q88 80 133 91t57 -21t-31 -41q-14 -4 -59 -43q-72 -72 -104 -70t-41 17q-46 55 -107 80zM243 -215q135 -38 488 254q-258 53 -420 -62q-39 -27 -82 -73t-32 -76q10 -33 46 -43zM2136 1618h6q33 4 149 16t249 61
q26 9 64 34q61 40 44 101t-181 7q-165 -53 -331 -219zM615 117q103 0 173 -27q240 215 476 524q70 92 292 401t309 414t105 127q-79 0 -309 38q-229 38 -343 52q-114 12 -169 -4q-86 -31 -119 -129q-6 -18 -32 -22t-45 8t-13 33q37 104 121 147q81 45 193 38t318 -41
t282 -45t171 -13q264 283 531 305q109 12 157 -41t27 -117q-29 -84 -196 -141q-227 -72 -469 -72q-86 -92 -204 -248t-325 -446q-207 -289 -353 -466t-310 -329q96 -33 196 -77q101 -44 405 -226q304 -180 484 -243q276 -96 461 -99q252 -4 430 146q25 25 61 0q33 -20 2 -45
q-322 -272 -890 -92q-227 70 -476 208q-46 27 -206 122t-278 155t-247 100q-127 -109 -254 -188q-215 -133 -340 -105q-55 14 -95 45t-27 74q25 94 109 160q153 119 397 119z" />
    <glyph glyph-name="zcaron" unicode="&#x17e;" horiz-adv-x="1040" 
d="M127 1124q-15 4 -21 18t11 32t65 2t97 -64q88 80 133 91t57 -21t-31 -41q-14 -4 -54 -40q-40 -35 -66 -55t-51 -18q-24 2 -34 16q-45 55 -106 80zM334 -293q4 180 -10 320q-150 -115 -267 -222q-324 -303 -426 -608q-66 -201 -51 -377q16 -227 152 -317q59 -41 124 -35
q118 11 220 119q106 117 157 305q95 344 101 815zM426 -248q0 -465 -92 -833q-45 -190 -131 -308q-156 -213 -359 -210q-100 2 -181 60t-124 155q-72 154 -47 370q41 352 311 672q174 205 512 457q-4 15 -13 89t-32 120q-20 53 -57 86q-32 21 -50 23q-17 3 -37 19t-3 37
q129 129 153 158q106 131 82 191q-8 20 -22 26q-41 16 -113 -67q-25 -27 -79 -98t-85 -101t-67 -12q-14 4 -20 18q-5 14 5 25q33 33 95 115t116 131q56 51 128 59t116 -53q63 -88 -51 -236q-45 -59 -152 -162q129 -55 166 -297q2 -4 2 -10q31 23 240 170t360 279q27 20 62 0
t4 -47q-133 -115 -367 -281t-286 -205q16 -150 16 -340z" />
    <glyph glyph-name="circumflex" unicode="&#x2c6;" horiz-adv-x="751" 
d="M526 950q14 -4 20 -18t-3 -27q-23 -27 -72 -9t-96 65q-6 -4 -43 -39t-92 -52q-43 -8 -58 25q-10 29 33 39q16 2 58 42q41 40 65 56t47 14t35 -16q45 -57 106 -80z" />
    <glyph glyph-name="caron" unicode="&#x2c7;" horiz-adv-x="829" 
d="M264 1124q-14 4 -20 18t10 32t64 2t98 -64q88 80 133 91t57 -21t-31 -41q-14 -4 -59 -43q-73 -73 -105 -71q-31 3 -40 17q-46 55 -107 80z" />
    <glyph glyph-name="ring" unicode="&#x2da;" horiz-adv-x="763" 
d="M365 997q-46 -41 -21 -76q25 -36 63 2t46 85q4 29 -21 24h-6q2 -16 -18 -27t-43 -8zM356 1069q6 10 36 24q30 15 91 1t59 -66t-29 -97q-28 -44 -67 -69q-49 -34 -105 -26t-86 58t8 110t93 65z" />
    <glyph glyph-name="tilde" unicode="&#x2dc;" horiz-adv-x="641" 
d="M387 922h4q8 8 10 12q14 29 60 20q39 -12 28 -39q-39 -78 -149 -51q-8 2 -34 10t-40 11h-9l-7 -15q-12 -29 -57 -20q-39 12 -31 41q35 82 145 51l74 -18q2 -2 6 -2z" />
    <glyph glyph-name="endash" unicode="&#x2013;" horiz-adv-x="1009" 
d="M739 680q47 0 47 -33q0 -27 -47 -33q-199 0 -397 -6q-16 0 -31 9q-14 9 -14 26q0 31 47 31q198 6 395 6z" />
    <glyph glyph-name="emdash" unicode="&#x2014;" horiz-adv-x="1851" 
d="M449 598l-173 -4q-90 -4 -120 -19q-49 -14 -70 17q-10 14 -4 28q12 29 92 37q80 7 149 9t206 10t325 10q751 27 866 35q16 2 34 -9t18 -28q0 -29 -54 -35q-266 -17 -510 -23q-245 -5 -329 -10q-215 -2 -430 -18z" />
    <glyph glyph-name="quoteleft" unicode="&#x2018;" horiz-adv-x="704" 
d="M281 1683q5 17 29 23t44 -5t17 -34q-10 -45 6 -100q12 -31 -31 -39q-45 -10 -57 20q-24 63 -8 135z" />
    <glyph glyph-name="quoteright" unicode="&#x2019;" horiz-adv-x="704" 
d="M371 1683q16 -72 -9 -135q-12 -31 -57 -20q-43 8 -31 39q16 55 10 89t13 45q20 11 45 5t29 -23z" />
    <glyph glyph-name="quotesinglbase" unicode="&#x201a;" horiz-adv-x="428" 
d="M309 162q33 -92 -65 -174q-27 -20 -62 0t-4 47q63 51 41 110q-12 31 33 39t57 -22z" />
    <glyph glyph-name="quotedblleft" unicode="&#x201c;" horiz-adv-x="800" 
d="M633 1776q17 -3 10 -95q-8 -92 -2 -122q6 -29 -35 -35q-47 -6 -57 32q-11 74 -5 132q5 59 10 71t13 19q35 23 66 -2zM403 1737q2 20 27 28q24 8 46 -1t20 -27q-20 -109 -9 -203q2 -20 -20 -29q-23 -8 -47 0t-25 29q-12 97 8 203z" />
    <glyph glyph-name="quotedblright" unicode="&#x201d;" horiz-adv-x="800" 
d="M393 1548v6q6 25 2 84q-4 58 -6 92t12 46q31 25 66 2q16 -12 19 -42q10 -102 -1 -180q-2 -32 -47 -32t-45 24zM631 1737q20 -106 8 -203q-2 -20 -26 -28q-25 -8 -47 -1q-22 8 -19 29q12 94 -8 203q-2 18 19 27q22 9 46 1t27 -28z" />
    <glyph glyph-name="quotedblbase" unicode="&#x201e;" horiz-adv-x="800" 
d="M524 231q20 -3 6 -138q-4 -48 2 -78q6 -29 -34 -35t-55 21q-14 27 -9 113q4 86 10 100q6 13 15 19q34 23 65 -2zM295 193q2 20 27 28q24 8 46 -1t19 -27q-20 -109 -8 -203q2 -20 -21 -28q-22 -8 -46 -1q-24 8 -25 29q-12 97 8 203z" />
    <glyph glyph-name="bullet" unicode="&#x2022;" horiz-adv-x="720" 
d="M371 680q61 -52 21 -102t-95 -38t-72 85q0 6 4 12q13 39 57 51t85 -8z" />
    <glyph glyph-name="ellipsis" unicode="&#x2026;" horiz-adv-x="1667" 
d="M1315 137q2 -31 -39 -41q-20 -8 -45 -2t-29 25q-4 3 -6 21t18 38t52 8q47 -12 49 -49zM864 141q2 -31 -39 -41q-20 -8 -45 -2t-28 25q-4 3 -6 21t18 38t51 8q47 -12 49 -49zM414 139q2 -31 -39 -41q-20 -8 -45 -2t-29 25q-4 3 -6 21q-3 18 17 38t53 8q47 -12 49 -49z" />
    <glyph glyph-name="guilsinglleft" unicode="&#x2039;" horiz-adv-x="1150" 
d="M215 625v8q0 20 31 29v2h6q36 14 122 72q216 146 365 294q91 88 115 128t64 32q16 -4 28 -15t4 -26q-92 -139 -334 -328q-184 -147 -262 -186q14 -8 56 -33q86 -59 194 -156q237 -214 352 -368q23 -29 -18 -43t-61 12q-106 143 -322 340q-106 98 -151 129t-117 62t-72 47
z" />
    <glyph glyph-name="guilsinglright" unicode="&#x203a;" horiz-adv-x="1009" 
d="M872 690q0 -18 -19 -26t-38 -5h-2q-4 0 -9 -3t-13 -7q-109 -61 -256 -194q-225 -211 -324 -342q-20 -27 -61 -12t-19 44q125 170 352 367q140 129 250 190q-38 19 -63 39q-70 45 -194 143t-215 187q-91 90 -120 137q-20 33 25 45q39 12 55 -12q35 -55 127 -147
q227 -211 490 -365h2q33 -8 32 -33v-6z" />
    <glyph glyph-name="fraction" unicode="&#x2044;" horiz-adv-x="1615" 
d="M-98 -725q12 -6 18 -8h2q90 -26 243 182q168 229 357 676l143 339q60 146 77 193q62 167 204 492q270 620 451 807q122 123 243 98q14 -4 26 -14t5 -25q-14 -36 -63 -20q-86 0 -185 -133q-185 -235 -445 -868q-127 -299 -220 -535q-158 -375 -254 -585t-199 -372
q-260 -414 -481 -264q-29 24 4 46t63 -3q2 -2 9 -6h2z" />
    <glyph glyph-name="Euro" unicode="&#x20ac;" horiz-adv-x="1656" 
d="M428 387q0 -305 55 -475q66 -219 203 -313t320 18q106 71 200 215t154 313q156 446 -57 662q-21 26 15 42q36 17 64 -11q76 -76 107 -176q92 -298 -110 -702t-480 -460q-186 -37 -334 97q-125 121 -179 323t-50 498q0 94 10 211q-113 4 -170 -49q-28 -20 -62 0t-3 47
q84 74 241 65q10 84 22 140t15 61q-147 12 -213 -45q-28 -22 -62 -2t-3 49q96 80 292 59q51 195 136 383q83 199 169 343t195 262q224 244 410 172q72 -29 117 -93q80 -117 56 -290t-106 -310t-176 -164q-16 -5 -34 3t-22 19q-3 11 6 19t35 25q59 40 117 142q58 103 84 245
t-18 238q-34 84 -110 106t-142 -24q-66 -48 -135 -117q-109 -117 -190 -255t-169 -344q-88 -204 -132 -370q166 -20 245 25q35 20 64 -2q12 -9 13 -23t-13 -22q-113 -61 -324 -39q-28 -140 -35 -199q170 -23 240 -4q30 8 60 25t50 1q40 -31 9 -51q-111 -63 -338 -39
q-19 0 -27 5q-10 -98 -10 -234z" />
    <glyph glyph-name="minus" unicode="&#x2212;" horiz-adv-x="1009" 
d="M739 680q47 0 47 -33q0 -27 -47 -33q-199 0 -397 -6q-16 0 -31 9q-14 9 -14 26q0 31 47 31q198 6 395 6z" />
    <glyph glyph-name="d.alt" horiz-adv-x="968" 
d="M1057 2234q-158 0 -320 -174q-119 -129 -186 -306t-107 -363q14 -3 45 -5t48 -4q197 -12 370 31q408 106 447 411q14 110 -27 202t-113 150t-157 58zM176 668q-45 0 -92 -33q-86 -63 -102 -133t9 -148q26 -76 88 -36t97 129q35 88 57 184q-37 0 -47 24q0 8 -4 13h-6z
M1065 2298q104 -4 190 -60q87 -56 133 -141q46 -84 59 -186t-28 -199q-76 -197 -309 -301q-193 -84 -399 -94q-117 -8 -279 10q-25 -131 -44 -285t-43 -307q-24 -154 -33 -298q-13 -207 94 -269q57 -39 137 12q79 51 149 129q70 79 147 185t122 157q23 25 63 9t19 -43
q-22 -26 -37 -43q-15 -18 -105 -134t-129 -159q-239 -260 -412 -169q-72 38 -108 113q-27 53 -33 117q-29 -41 -67 -66q-111 -68 -191 -12q-53 35 -71 98q-35 130 44 233q80 103 174 129t142 -13q12 68 36 257t56 371q-23 0 -39 7q-156 23 -442 88q-688 162 -865 194
q-408 78 -735 92q-276 8 -444 -22t-277 -92q-98 -62 -128 -136t-3 -143q59 -158 279 -197q14 -2 25 -13t6 -25q-12 -31 -58 -23q-246 47 -332 219q-74 179 95 328t620 170q346 10 731 -51t871 -181t708 -151q55 261 139 443t214 294q186 166 358 158z" />
    <glyph glyph-name="e_e" horiz-adv-x="1376" 
d="M602 588q0 -18 2 -27q251 145 305 268q25 55 -8 78q-59 41 -143 -18q-150 -108 -156 -301zM266 813q-16 0 -74 -31q-80 -42 -122 -147q59 -2 143 47t80 88t-27 43zM623 483q0 -4 2 -4q18 -39 57 -59q82 -43 212 -24t253 84t199 165q18 27 59 11t18 -44
q-79 -106 -207 -177t-270 -97q-72 -10 -146 -11t-149 29q-74 30 -108 90q-221 -104 -351 -103t-178 46q-63 57 -58 157q4 100 66 185q62 86 164 129t158 -10q70 -64 25 -132t-143 -110t-167 -39q-2 2 -8 2q-10 -51 4 -94q20 -61 97 -67q129 -15 366 104q-31 129 39 264
q47 96 138 161t188 48q98 -23 123 -82q18 -51 -17 -112q-87 -145 -368 -306q2 0 2 -4z" />
    <glyph glyph-name="f_f" horiz-adv-x="1871" 
d="M1053 217q-41 49 -64 72q-4 -61 -14 -185q-19 -241 20 -370q37 -106 138 -74q47 18 63 57q41 85 -6 231t-137 269zM244 86q-80 113 -197 201q0 -394 94 -555q20 -41 64 -70q39 -18 76 -8q91 34 77 151q-8 138 -114 281zM121 1139q-39 -209 -60 -467q242 125 451 389
q193 236 332 540q140 305 162 505q37 327 -110 357q-58 11 -112 -16q-123 -47 -237 -209q-84 -115 -172 -301q-180 -386 -254 -798zM1159 1495q-90 -344 -125 -639q19 19 51 43q151 131 299 315q311 389 332 689q18 227 -106 282q-39 14 -80 -11q-41 -24 -96 -89
q-172 -214 -275 -590zM-45 236q0 100 2 112q-25 14 -27 17q-30 15 -18 37t43 22h2q4 115 8 172q-10 14 0 27q52 739 311 1314q84 182 173 308q115 170 237 235q172 92 299 23q109 -61 121 -232q14 -227 -100 -516q-135 -352 -353 -649q-272 -369 -596 -516q-4 -53 -8 -160
q17 0 35 6q453 63 848 344q20 205 65 424q98 471 232 719q238 436 450 305q76 -47 110 -127t25 -174q-17 -175 -88 -332q-72 -156 -229 -372q-209 -273 -473 -469q-10 -100 -27 -328q154 0 348 41q392 83 543 229q27 27 62 11q14 -5 20 -19t-4 -26q-174 -170 -575 -252
q-200 -41 -367 -48q90 -70 178 -223q141 -244 94 -407q-16 -60 -65 -98t-122 -46t-127 27t-74 105q-36 125 -30 291t25 343q-2 2 -17 7q-51 17 -42 47q12 25 57 20h6q8 172 17 256q-135 -86 -299 -162q-238 -102 -471 -141q-27 -4 -91 -14q78 -51 142 -113
q150 -143 211 -298t20 -257q-23 -55 -75 -85t-115 -28q-222 10 -270 391q-20 159 -21 259z" />
    <glyph glyph-name="g.alt" horiz-adv-x="679" 
d="M-125 -1649q277 91 387 461q66 222 76 490t-8 477q-375 -85 -672 -410q-142 -155 -196 -357t-5 -380q57 -233 211 -285q96 -33 207 4zM1921 -106q27 23 64 0q31 -23 0 -48q-89 -76 -215 -94t-252 -10t-354 36q-226 28 -389 37t-355 -18q0 -15 5 -133t7 -230t-15 -299
t-63 -331q-72 -240 -202 -367q-86 -80 -195 -128t-217 -42q-217 16 -322 213q-86 166 -74 378t110 375q97 163 286 321q276 231 586 292q-8 190 -4 400t6 227q-9 -9 -17 -12q-129 -121 -243 -162q-46 -23 -110 -11t-79 68q-27 135 113 287q97 101 209 110q61 5 118 -32
q13 -9 13 -23t-13 -22q-33 -23 -65 0t-66 12q-64 -14 -130 -94t-85 -152q-10 -31 -6 -63q9 -59 111 1t170 126t98 106q16 68 47 97q12 12 35 14t39 -8q36 -23 -35 -127q0 -14 -6 -48t-10 -153q0 -481 2 -524q58 8 144 11t140 6t171 -7q118 -10 271 -27q153 -18 290 -34
q340 -38 487 82z" />
    <glyph glyph-name="h.alt" horiz-adv-x="1120" 
d="M639 2243q-131 -88 -223 -260t-140 -345q-49 -173 -92 -385q418 10 674 158q182 102 266 262q90 182 43 357q-52 206 -211 258q-80 28 -164 16t-153 -61zM45 240q0 -20 -22 -29q-23 -8 -51 3t-17 60q0 104 35 328q35 283 88 586q-437 0 -1270 147q-552 98 -869 118
q-317 21 -487 -81q-117 -68 -133 -130t98 -105q15 -5 21 -19t-4 -26q-25 -25 -64 -11q-135 49 -145 136q-8 74 82 145q176 152 483 160q182 4 535 -45q14 -2 585 -93q770 -129 1180 -131h2q4 17 11 53q45 237 120 457q168 469 445 576q84 35 186 33t184 -43
q168 -86 217 -278q49 -193 -25 -363t-249 -289q-274 -184 -756 -207q-18 -2 -53 -2q-26 -130 -59 -371q-33 -243 -37 -277t-6 -42q72 94 135 133q43 33 103 31q119 -4 110 -187q0 -49 -8 -159q-15 -209 68 -217q121 -9 494 413q93 106 120 134t69 9q31 -16 13 -41
q-35 -39 -159 -177q-283 -316 -446 -386q-55 -29 -119 -17q-106 19 -131 145q-11 65 -3 145q30 277 -25 271q-26 -3 -37 -17q-12 -13 -38 -35t-83 -101q-76 -115 -86 -174v-16q0 -2 -2 -6v-8z" />
    <glyph glyph-name="j.alt" horiz-adv-x="344" 
d="M-164 -1386q106 425 137 1161q-227 10 -383 -86q-270 -168 -374 -545t34 -668q96 -207 234 -239q80 -17 152 25t116 120q45 78 84 232zM2173 -332q8 -12 2 -25t-21 -18q-352 -113 -817 -86t-815 119q-303 84 -454 106q-34 -582 -79 -850t-95 -430q-72 -229 -246 -296
q-92 -35 -182 -15t-164 86q-121 111 -173 281t-44 352q16 381 231 653q110 139 268 222t393 69q20 451 3 856q0 20 22 29q22 8 46 -1t24 -30q20 -449 -2 -862q112 -14 404 -88t585 -111q639 -76 1050 52q41 12 64 -13zM2 1075q43 5 55 -23t-13 -54q-26 -26 -54 -14
q-28 11 -31 24q-8 63 43 67z" />
    <glyph glyph-name="k.alt" horiz-adv-x="960" 
d="M131 627q-66 -76 -35 -152v-2q63 39 122 93t73 108q4 6 2 19t-23 14t-65 -24q-43 -25 -74 -56zM178 1366q-8 -18 -14 -51h84q436 8 653 225q129 129 146 311q20 221 -99 279q-51 31 -143 12t-201 -104q-154 -118 -268 -316t-158 -356zM141 416q93 -210 381 -80
q130 59 260 162q111 92 158 157q20 25 61 9q35 -16 19 -43q-68 -91 -195 -187q-322 -242 -553 -211q-137 18 -206 148q-4 -145 0 -289q0 -20 -23 -28t-47 0q-24 9 -23 30q-10 753 86 1176q-117 16 -206 38t-397 106q-308 85 -513 117q-457 71 -733 -165q-27 -23 -61 0
q-27 23 -2 47q106 92 242 139t256 57q120 9 284 -13t268 -46q105 -24 203 -52t209 -60q291 -84 465 -105q47 186 123 326q113 213 247 350q174 178 359 207q96 16 180 -18t123 -117q72 -153 14 -333t-206 -288q-275 -202 -703 -201l-61 2q-50 -218 -72 -563q82 72 178 82
q53 6 96 -18t33 -76q-29 -137 -244 -260z" />
    <glyph glyph-name="l_l" horiz-adv-x="1654" 
d="M856 1247q-156 -508 -84 -919q90 104 174 227q299 436 373 881q37 207 4 325q-20 80 -63 107q-18 12 -43 6q-31 -2 -54 -21q-92 -61 -174 -243t-133 -363zM211 1456q-127 -471 -143 -780q272 160 483 530q186 322 231 626t-2 445q-78 236 -250 -4q-98 -131 -172 -340
t-147 -477zM1624 639q16 31 66 18q37 -10 22 -36q-137 -246 -239 -388q-94 -137 -179 -219q-104 -109 -196 -143q-117 -47 -213 13t-150 227q-6 12 -14 41q-102 -104 -195 -168q-194 -125 -324 -65q-130 59 -184 275t-41 474q23 408 205 1026q84 272 142 390t86 168
q29 50 82 106t112 81q106 45 178 -16t92 -174q43 -193 -4 -447q-57 -326 -245 -639q-244 -410 -559 -569q0 -256 42 -390t78 -179q86 -111 252 -9q129 82 258 226q-88 391 23 856q35 142 105 340q174 498 399 501q80 2 129 -51q122 -132 51 -502q-115 -598 -586 -1132
q-12 -12 -24 -27q37 -166 104 -250q115 -133 303 56q92 88 180 215q101 139 244 391z" />
    <glyph glyph-name="l.alt" horiz-adv-x="808" 
d="M174 1231q548 0 760 282q109 147 96 330q-4 87 -47 143t-123 66q-166 20 -322 -140q-232 -238 -364 -681zM195 1165l-39 2q-144 -568 -52 -897q38 -134 97 -172q76 -43 157 -7t130 88q93 99 137 163q114 169 180 299q8 19 35 21t39 -12t-2 -43q-56 -113 -139 -237
t-121 -167q-220 -249 -402 -195q-163 49 -218 315q-26 126 -20 306t50 377q10 57 39 168q-130 16 -224 38t-402 108q-308 85 -508 118q-454 75 -738 -166q-27 -23 -62 0q-27 23 -2 47q223 190 549 197q137 4 305 -23t262 -51t383 -106q289 -80 453 -99q43 154 100 281
q115 260 264 415q160 172 330 185q238 16 314 -140q70 -140 12 -322t-204 -290q-274 -202 -703 -201z" />
    <glyph glyph-name="m_m" horiz-adv-x="2455" 
d="M1866 680v6q-71 -92 -209 -424q-10 -22 -41 -24t-43 18q-33 53 -38 137t5 146q13 147 4 170q-109 -78 -262 -363q-53 -98 -82 -147q-12 -21 -47 -23t-41 25q-20 111 45 294q31 87 41 134q-58 -76 -170 -259q-111 -184 -124 -203q-68 -99 -130 -151q-74 -56 -121 -36
t-57 61q-18 70 20 211q12 45 81 262t53 264q0 7 -5 10q-2 0 -4 3h-2q-58 0 -130 -86q-40 -49 -72 -111t-92 -200t-95 -197q-8 -15 -31 -21t-41 2t-17 49q2 41 26 171q24 129 26 189t0 68q-83 -62 -239 -458q-10 -25 -44 -23t-44 25q-33 72 -19 247q2 25 8 91q5 66 7 93
t24 36q22 8 46 -1t23 -37q-3 -72 -11 -140q-9 -68 -9 -99q64 138 123 238q16 27 55 63t81 39q42 4 69 -14q12 -10 23 -49q11 -70 -7 -149q-2 -9 -2 -13q53 115 86 168q113 176 250 184q51 2 82 -28t29 -102t-64 -245q-139 -418 -80 -413q20 2 66 55q70 88 209 317t237 336
q18 20 52 16t34 -32q12 -88 -51 -281l-7 -21q-5 -15 -7 -24q101 184 194 277q94 93 140 80q73 -21 73 -110v-40l-4 -70q-8 -98 -8 -149q36 80 60 127t36 72t34 63t41 55t40 31t64 5t51 -46q4 -17 1 -89t-13 -136q-33 -229 8 -275q31 -29 90 0q127 68 248 199
q100 115 168 209q20 29 61 12q41 -14 18 -45q-111 -158 -199 -242t-130 -119q-41 -34 -108 -65q-68 -30 -140 -26t-99 50t-27 102t8 127q7 71 17 139q9 67 9 110z" />
    <glyph glyph-name="n_n" horiz-adv-x="1912" 
d="M1903 639q18 29 59 13t19 -49q-21 -35 -91 -109t-168 -154q-217 -182 -344 -137q-92 33 -78 200q4 51 28 206t6 170t-82 -19t-126 -117q-62 -82 -71 -139q-2 -20 -27 -28q-24 -8 -46 0q-22 9 -18 41t-6 122q-226 -377 -300 -451q-148 -148 -220 -22q-33 57 -20 164
q7 125 37 211q115 403 -6 377q-30 -8 -58 -29q-97 -67 -201 -217t-141 -236q-8 -24 -49 -22t-41 32q2 66 14 197q2 21 26 29q25 8 47 -1t20 -28v-2q4 6 18 28t22 31q121 170 222 236q80 58 166 47q44 -6 78 -47q34 -42 27 -120t-50 -258t-42 -261q1 -82 13 -102
q16 -31 113 100q95 131 123 176t96 157t106 169q12 20 50 14t36 -36t3 -99q12 16 18 22q102 117 211 146q35 14 85 5t65 -50t1 -142q-35 -270 -36 -292q-12 -129 82 -101q87 27 233 161t197 214z" />
    <glyph glyph-name="o_o" horiz-adv-x="1081" 
d="M698 244q35 102 18 208t-77 195v2q-74 -41 -120 -211t-7 -272q29 -68 80 -49q63 27 106 127zM78 602q-56 0 -102 -140q-45 -140 10 -198q29 -34 70 -18t53 90q33 143 -29 260q-2 2 -2 6zM1075 662q46 12 60 -8t8 -32q-6 -13 -21 -18q-195 -63 -352 -20q66 -169 28 -323
q-26 -105 -102 -165t-165 -38q-89 24 -113 112q-37 139 20 313q23 76 54 127q-193 -59 -302 -51q18 -63 18 -149t-33 -153q-31 -67 -105 -78t-131 26t-70 110q-17 123 61 261t183 81q12 -10 12 -22q84 -31 254 14q41 8 121 32t116 32t54 -19q29 0 43 -8q137 -98 362 -24z
" />
    <glyph glyph-name="p_p" horiz-adv-x="1961" 
d="M1327 211q59 20 96 94q-33 -20 -65 -47q-39 -39 -31 -47zM899 78v37q-162 -291 -247 -565t-95 -410q-10 -137 14 -223q1 -5 7 -23q25 -83 57 -82q8 -2 22 -2q53 10 101 88q43 63 71 162q50 156 66 467q4 92 4 551zM412 45q59 42 84 133q6 25 14 64q-51 -43 -68 -78
q-35 -74 -30 -119zM-150 -1180q48 185 69 463q22 277 35 409t21 236q-35 -102 -78 -226q-44 -124 -77 -253q-88 -354 -103 -575q-8 -47 -5 -121t30 -111q35 -49 80 80q16 45 28 98zM997 281l-6 -215q0 -487 -4 -562q-20 -309 -69 -462q-66 -221 -191 -279q-82 -39 -166 4
q-65 37 -93 195t42 424q125 469 373 872q6 9 22 37q8 180 8 268q-55 -61 -98 -98t-203 -152q-27 -282 -174 -331q-30 -12 -70 -1t-49 54t21 117t94 124q39 33 88 66q5 187 -59 274q-31 41 -66 39t-55 -21t-57 -63q-68 -90 -144 -247l-61 -129q-8 -217 -27 -442
q-20 -224 -26 -300q-57 -682 -156 -833q-27 -40 -71 -56t-89 6q-72 36 -84 146q-28 259 125 829q33 127 105 318q74 209 133 346q6 225 -8 430q-2 18 20 27q22 8 46 0t26 -29q6 -78 10 -231q56 116 150 234t209 82q116 -36 155 -204q12 -72 14 -112q2 0 4 2t5 4
q154 102 294 284q13 20 49 14t37 -32q6 -102 3 -232q99 155 134 193q121 132 238 94q90 -27 135 -123q39 -74 35 -166q12 4 32 13t116 46q97 37 152 71q55 35 90 71q36 35 73 21q39 -20 14 -45q-47 -49 -119 -93t-158 -79l-210 -84q-8 -39 -29 -80q-43 -88 -112 -121
q-90 -49 -140 4q-52 52 27 124t170 109q18 145 -57 238t-183 -39q-24 -30 -102 -146t-113 -173z" />
    <glyph glyph-name="p.alt" horiz-adv-x="868" 
d="M-162 -1196q107 427 137 1161q-197 10 -348 -65q-272 -142 -386 -518t9 -689q90 -238 238 -292q80 -31 151 22t117 143t82 238zM354 205q66 68 80 129q-123 -66 -141 -113q-13 -34 4 -51q24 6 57 35zM-12 451q0 135 -6 274q0 20 22 29q22 8 46 -1t24 -30q4 -82 4 -123
q51 49 106 76q147 72 244 -4q74 -61 96 -180q4 -20 6 -29q16 8 54 24q219 100 290 160q27 20 62 0t4 -47q-61 -49 -224 -128t-181 -87q-4 -57 -23 -100q-45 -97 -125 -151t-141 -19q-31 16 -43 49q-12 32 0 70t73 88q66 49 166 98q-4 156 -84 211q-57 37 -151 -25
q-94 -66 -125 -160q0 -252 -10 -428q131 -16 467 -106q225 -55 522 -94q641 -76 1050 53q44 13 62 -12q10 -13 4 -27t-20 -18q-453 -142 -1174 -52q-259 38 -327 54t-273 71t-313 70l-11 -164q0 -65 -10 -160t-17 -187q-8 -92 -12 -123q-4 -33 -13 -111t-17 -121t-26 -146
t-50 -214q-33 -111 -81 -205t-134 -152q-88 -55 -185 -45t-176 80q-129 117 -187 294t-52 369q10 387 219 662q113 141 248 213q176 94 414 80q10 236 8 407v17z" />
    <glyph glyph-name="r_r" horiz-adv-x="1792" 
d="M801 981q-27 -89 4 -183t80 -138t57 -48q10 14 30 44q19 30 29 44q85 128 89 186t-18 105t-56 74q-61 43 -126 14t-89 -98zM250 1427q-96 19 -171 -59t-115 -197t-21 -261q18 -142 77 -244q190 158 314 438q25 53 31 120t-22 128t-93 75zM1171 453l-6 -181
q1 -147 59 -164t173 68q72 56 113 104t64 73t77 99q53 74 58 82t35 52q30 43 34 47q18 27 59 11t22 -42t-91 -130t-158 -200q-143 -160 -250 -209q-61 -35 -142 -23t-116 79q-40 69 -27 224q6 71 4 106q-70 37 -104 57q-39 -64 -120 -200t-153 -246t-153 -199
q-145 -152 -258 -121q-80 20 -118 105t-34 165t28 204q23 124 21 156t-9 44q-7 14 -14 19t-27 17t-29 17q-204 122 -252 397q-48 262 93 477q65 97 159 137t198 1q143 -54 151 -232q2 -108 -85 -266q-125 -238 -307 -377v-2q45 -55 94 -82t56 -32t18 -12t24 -21t20 -56
q8 -41 -18 -187t-24 -151q-10 -109 15 -170t52 -81t67 4q40 25 58 43q113 94 265 346q151 253 210 346q-39 25 -90 72q-69 69 -97 159t-12 176t79 142q65 55 152 61q87 7 160 -61t85 -157t-45 -187q-23 -39 -70 -109t-53 -80q10 -5 22 -13t38 -20t34 -17t28 -14
q37 -17 37 -48z" />
    <glyph glyph-name="s_s" horiz-adv-x="1249" 
d="M550 -373q62 33 54 199q-2 41 -14 137q-94 -123 -114 -213q-21 -90 22 -121q27 -16 52 -2zM115 -578q96 231 12 545q-4 10 -10 35t-11 35q-78 -96 -143 -205q-154 -266 -104 -422q14 -49 50 -93t79 -34q76 20 127 139zM655 810q-27 -30 -49 -74t-24 -79q6 5 18 19t26 28
l21 21q55 55 45 85t-37 0zM1223 664q25 24 51 14q50 -19 29 -49q-98 -104 -316 -291q-225 -193 -319 -287q16 -98 20 -149q31 -227 -49 -303q-35 -31 -87 -40t-95 11q-88 45 -78 149q12 149 194 349q-11 83 -43 208q-31 125 -38 179q-150 -150 -224 -230q-35 -45 -94 -104
q39 -119 57 -203q59 -260 -8 -459q-33 -98 -94 -169q-61 -70 -163 -72t-162 103t-46 220q25 240 318 590q-6 16 -18 49q-11 34 -47 138t-44 149q-25 133 31 215q35 49 87 64t103 -19q33 -25 -3 -44t-62 1l-4 2q-31 -6 -50 -47t-21 -95t28 -142t67 -191q109 121 340 348
q-2 23 2 64q6 113 64 186q86 106 172 74q154 -57 -61 -261q-31 -30 -41 -41t-44 -44q4 -68 36 -207t40 -183q74 72 274 242t298 275z" />
    <glyph glyph-name="t_t" horiz-adv-x="1296" 
d="M672 1358q20 79 23 178q3 100 5 119l-208 -37q-221 -39 -388 -57l-12 -105q-23 -180 -41 -425q-34 -456 6 -609t86 -184q51 -40 111 28t115 170q53 102 137 348q84 245 166 574zM854 1747l119 20q341 55 579 51t314 -34q149 -56 133 -152q-4 -32 -43 -30t-41 32
q-6 152 -590 109q-207 -16 -485 -66q-24 -120 -74 -317q-45 -332 -59 -481q-39 -575 102 -729q53 -59 141 10q150 119 340 485q14 29 60 21q39 -12 28 -39q-78 -145 -165 -283t-181 -217q-94 -80 -180 -72q-139 14 -203 218t-41 534q-61 -182 -67 -199q-59 -174 -154 -307
q-119 -174 -252 -137q-106 31 -151 184q-59 207 -39 481q31 451 67 721q-311 -34 -559 -16t-368 92q-86 49 -109 121q-37 113 72 141q14 4 32 -2t23 -20q10 -29 -33 -39q-20 -14 -11 -47t23 -49q115 -161 713 -134q115 6 228 19q27 182 63 338q4 18 29 23t45 -7t14 -35
q-37 -170 -59 -307q193 25 594 94q14 106 57 176q14 20 44 16t40 -24q25 -49 4 -143z" />
    <glyph glyph-name="y.alt" horiz-adv-x="655" 
d="M-16 -1554q194 130 309 634q76 333 100 814q-343 0 -504 -115q-235 -166 -355 -537t-23 -606q55 -135 196 -201t277 11zM399 698q0 33 45 33t48 -33q14 -301 0 -673l-3 -72q143 -8 357 -41q943 -138 1329 -41q72 15 115 41t51 57q6 19 31 23t45 -8t14 -33
q-54 -175 -670 -184q-248 0 -381 12t-581 74q-182 29 -314 36q-12 -252 -45 -483q-43 -342 -129 -598t-213 -369q-164 -150 -370 -86q-144 43 -224 129t-108 234q-55 291 84 639q150 362 393 502q160 88 428 100h96q14 291 9 522q-2 -4 -8 -12q-6 -9 -22 -35
q-86 -130 -166 -156q-79 -28 -132 8q-52 36 -72 100q-50 164 -31 269q2 21 27 29q24 8 46 -1t20 -30q-14 -151 16 -229q53 -138 131 -62q61 61 111 150q2 6 15 29t17 31t22 45q18 36 19 83z" />
    <glyph glyph-name="b.alt" horiz-adv-x="831" 
d="M846 1372q184 104 270 271t39 350q-23 89 -77 159t-135 99t-165 17q-218 -32 -383 -339q-84 -162 -136 -350t-89 -362q424 10 676 155zM141 121q-4 -5 -4 -11t-8 -14v-8l10 -12h2l2 -2q0 2 5 4q35 14 110 143q-78 -53 -117 -100zM213 1153l-55 -2q-44 -230 -71 -454
q-28 -224 -32 -240q183 196 305 127q59 -33 70 -115q2 -29 -4 -59q96 53 174 100q147 82 205 137q29 29 63 10q14 -4 21 -22t-17 -31q-73 -65 -254 -170q-182 -104 -225 -129q-49 -127 -99 -189t-82 -82q-32 -22 -73 -25t-76 32q-66 57 27 143q61 59 223 158q41 102 15 164
q-37 74 -152 -41q-135 -131 -133 -254q2 -23 -26 -30t-48 5q-29 6 -28 31q4 120 52 468q48 347 73 464q-362 0 -994 102q-86 14 -470 81t-689 85t-473 -84q-117 -68 -135 -129q-16 -63 98 -106q15 -4 21 -18t-4 -25q-20 -25 -64 -13q-137 57 -143 136q-8 74 82 145
q176 152 483 160q182 4 456 -34t664 -103q766 -129 1178 -132h4q6 37 44 206t87 304q221 619 631 611q102 -2 184 -43q164 -89 217 -277q49 -195 -29 -367t-245 -286q-281 -186 -756 -209z" />
  </font>
</defs>
</svg>
